<?xml version="1.0" encoding="utf-8" standalone="no"?>
<!DOCTYPE svg PUBLIC "-//W3C//DTD SVG 1.1//EN"
  "http://www.w3.org/Graphics/SVG/1.1/DTD/svg11.dtd">
<!-- Created with matplotlib (https://matplotlib.org/) -->
<svg height="345.6pt" version="1.1" viewBox="0 0 460.8 345.6" width="460.8pt" xmlns="http://www.w3.org/2000/svg" xmlns:xlink="http://www.w3.org/1999/xlink">
 <metadata>
  <rdf:RDF xmlns:cc="http://creativecommons.org/ns#" xmlns:dc="http://purl.org/dc/elements/1.1/" xmlns:rdf="http://www.w3.org/1999/02/22-rdf-syntax-ns#">
   <cc:Work>
    <dc:type rdf:resource="http://purl.org/dc/dcmitype/StillImage"/>
    <dc:date>2021-09-07T16:04:55.277942</dc:date>
    <dc:format>image/svg+xml</dc:format>
    <dc:creator>
     <cc:Agent>
      <dc:title>Matplotlib v3.3.4, https://matplotlib.org/</dc:title>
     </cc:Agent>
    </dc:creator>
   </cc:Work>
  </rdf:RDF>
 </metadata>
 <defs>
  <style type="text/css">*{stroke-linecap:butt;stroke-linejoin:round;}</style>
 </defs>
 <g id="figure_1">
  <g id="patch_1">
   <path d="M 0 345.6 
L 460.8 345.6 
L 460.8 0 
L 0 0 
z
" style="fill:#ffffff;"/>
  </g>
  <g id="axes_1">
   <g id="patch_2">
    <path d="M 57.6 307.584 
L 414.72 307.584 
L 414.72 41.472 
L 57.6 41.472 
z
" style="fill:#ffffff;"/>
   </g>
   <g id="matplotlib.axis_1">
    <g id="xtick_1">
     <g id="line2d_1">
      <defs>
       <path d="M 0 0 
L 0 3.5 
" id="m8fed07994f" style="stroke:#000000;stroke-width:0.8;"/>
      </defs>
      <g>
       <use style="stroke:#000000;stroke-width:0.8;" x="67.207124" xlink:href="#m8fed07994f" y="307.584"/>
      </g>
     </g>
     <g id="text_1">
      <!-- 0 -->
      <g transform="translate(64.025874 322.182437)scale(0.1 -0.1)">
       <defs>
        <path d="M 31.78125 66.40625 
Q 24.171875 66.40625 20.328125 58.90625 
Q 16.5 51.421875 16.5 36.375 
Q 16.5 21.390625 20.328125 13.890625 
Q 24.171875 6.390625 31.78125 6.390625 
Q 39.453125 6.390625 43.28125 13.890625 
Q 47.125 21.390625 47.125 36.375 
Q 47.125 51.421875 43.28125 58.90625 
Q 39.453125 66.40625 31.78125 66.40625 
z
M 31.78125 74.21875 
Q 44.046875 74.21875 50.515625 64.515625 
Q 56.984375 54.828125 56.984375 36.375 
Q 56.984375 17.96875 50.515625 8.265625 
Q 44.046875 -1.421875 31.78125 -1.421875 
Q 19.53125 -1.421875 13.0625 8.265625 
Q 6.59375 17.96875 6.59375 36.375 
Q 6.59375 54.828125 13.0625 64.515625 
Q 19.53125 74.21875 31.78125 74.21875 
z
" id="DejaVuSans-48"/>
       </defs>
       <use xlink:href="#DejaVuSans-48"/>
      </g>
     </g>
    </g>
    <g id="xtick_2">
     <g id="line2d_2">
      <g>
       <use style="stroke:#000000;stroke-width:0.8;" x="133.463154" xlink:href="#m8fed07994f" y="307.584"/>
      </g>
     </g>
     <g id="text_2">
      <!-- 10 -->
      <g transform="translate(127.100654 322.182437)scale(0.1 -0.1)">
       <defs>
        <path d="M 12.40625 8.296875 
L 28.515625 8.296875 
L 28.515625 63.921875 
L 10.984375 60.40625 
L 10.984375 69.390625 
L 28.421875 72.90625 
L 38.28125 72.90625 
L 38.28125 8.296875 
L 54.390625 8.296875 
L 54.390625 0 
L 12.40625 0 
z
" id="DejaVuSans-49"/>
       </defs>
       <use xlink:href="#DejaVuSans-49"/>
       <use x="63.623047" xlink:href="#DejaVuSans-48"/>
      </g>
     </g>
    </g>
    <g id="xtick_3">
     <g id="line2d_3">
      <g>
       <use style="stroke:#000000;stroke-width:0.8;" x="199.719184" xlink:href="#m8fed07994f" y="307.584"/>
      </g>
     </g>
     <g id="text_3">
      <!-- 20 -->
      <g transform="translate(193.356684 322.182437)scale(0.1 -0.1)">
       <defs>
        <path d="M 19.1875 8.296875 
L 53.609375 8.296875 
L 53.609375 0 
L 7.328125 0 
L 7.328125 8.296875 
Q 12.9375 14.109375 22.625 23.890625 
Q 32.328125 33.6875 34.8125 36.53125 
Q 39.546875 41.84375 41.421875 45.53125 
Q 43.3125 49.21875 43.3125 52.78125 
Q 43.3125 58.59375 39.234375 62.25 
Q 35.15625 65.921875 28.609375 65.921875 
Q 23.96875 65.921875 18.8125 64.3125 
Q 13.671875 62.703125 7.8125 59.421875 
L 7.8125 69.390625 
Q 13.765625 71.78125 18.9375 73 
Q 24.125 74.21875 28.421875 74.21875 
Q 39.75 74.21875 46.484375 68.546875 
Q 53.21875 62.890625 53.21875 53.421875 
Q 53.21875 48.921875 51.53125 44.890625 
Q 49.859375 40.875 45.40625 35.40625 
Q 44.1875 33.984375 37.640625 27.21875 
Q 31.109375 20.453125 19.1875 8.296875 
z
" id="DejaVuSans-50"/>
       </defs>
       <use xlink:href="#DejaVuSans-50"/>
       <use x="63.623047" xlink:href="#DejaVuSans-48"/>
      </g>
     </g>
    </g>
    <g id="xtick_4">
     <g id="line2d_4">
      <g>
       <use style="stroke:#000000;stroke-width:0.8;" x="265.975213" xlink:href="#m8fed07994f" y="307.584"/>
      </g>
     </g>
     <g id="text_4">
      <!-- 30 -->
      <g transform="translate(259.612713 322.182437)scale(0.1 -0.1)">
       <defs>
        <path d="M 40.578125 39.3125 
Q 47.65625 37.796875 51.625 33 
Q 55.609375 28.21875 55.609375 21.1875 
Q 55.609375 10.40625 48.1875 4.484375 
Q 40.765625 -1.421875 27.09375 -1.421875 
Q 22.515625 -1.421875 17.65625 -0.515625 
Q 12.796875 0.390625 7.625 2.203125 
L 7.625 11.71875 
Q 11.71875 9.328125 16.59375 8.109375 
Q 21.484375 6.890625 26.8125 6.890625 
Q 36.078125 6.890625 40.9375 10.546875 
Q 45.796875 14.203125 45.796875 21.1875 
Q 45.796875 27.640625 41.28125 31.265625 
Q 36.765625 34.90625 28.71875 34.90625 
L 20.21875 34.90625 
L 20.21875 43.015625 
L 29.109375 43.015625 
Q 36.375 43.015625 40.234375 45.921875 
Q 44.09375 48.828125 44.09375 54.296875 
Q 44.09375 59.90625 40.109375 62.90625 
Q 36.140625 65.921875 28.71875 65.921875 
Q 24.65625 65.921875 20.015625 65.03125 
Q 15.375 64.15625 9.8125 62.3125 
L 9.8125 71.09375 
Q 15.4375 72.65625 20.34375 73.4375 
Q 25.25 74.21875 29.59375 74.21875 
Q 40.828125 74.21875 47.359375 69.109375 
Q 53.90625 64.015625 53.90625 55.328125 
Q 53.90625 49.265625 50.4375 45.09375 
Q 46.96875 40.921875 40.578125 39.3125 
z
" id="DejaVuSans-51"/>
       </defs>
       <use xlink:href="#DejaVuSans-51"/>
       <use x="63.623047" xlink:href="#DejaVuSans-48"/>
      </g>
     </g>
    </g>
    <g id="xtick_5">
     <g id="line2d_5">
      <g>
       <use style="stroke:#000000;stroke-width:0.8;" x="332.231243" xlink:href="#m8fed07994f" y="307.584"/>
      </g>
     </g>
     <g id="text_5">
      <!-- 40 -->
      <g transform="translate(325.868743 322.182437)scale(0.1 -0.1)">
       <defs>
        <path d="M 37.796875 64.3125 
L 12.890625 25.390625 
L 37.796875 25.390625 
z
M 35.203125 72.90625 
L 47.609375 72.90625 
L 47.609375 25.390625 
L 58.015625 25.390625 
L 58.015625 17.1875 
L 47.609375 17.1875 
L 47.609375 0 
L 37.796875 0 
L 37.796875 17.1875 
L 4.890625 17.1875 
L 4.890625 26.703125 
z
" id="DejaVuSans-52"/>
       </defs>
       <use xlink:href="#DejaVuSans-52"/>
       <use x="63.623047" xlink:href="#DejaVuSans-48"/>
      </g>
     </g>
    </g>
    <g id="xtick_6">
     <g id="line2d_6">
      <g>
       <use style="stroke:#000000;stroke-width:0.8;" x="398.487273" xlink:href="#m8fed07994f" y="307.584"/>
      </g>
     </g>
     <g id="text_6">
      <!-- 50 -->
      <g transform="translate(392.124773 322.182437)scale(0.1 -0.1)">
       <defs>
        <path d="M 10.796875 72.90625 
L 49.515625 72.90625 
L 49.515625 64.59375 
L 19.828125 64.59375 
L 19.828125 46.734375 
Q 21.96875 47.46875 24.109375 47.828125 
Q 26.265625 48.1875 28.421875 48.1875 
Q 40.625 48.1875 47.75 41.5 
Q 54.890625 34.8125 54.890625 23.390625 
Q 54.890625 11.625 47.5625 5.09375 
Q 40.234375 -1.421875 26.90625 -1.421875 
Q 22.3125 -1.421875 17.546875 -0.640625 
Q 12.796875 0.140625 7.71875 1.703125 
L 7.71875 11.625 
Q 12.109375 9.234375 16.796875 8.0625 
Q 21.484375 6.890625 26.703125 6.890625 
Q 35.15625 6.890625 40.078125 11.328125 
Q 45.015625 15.765625 45.015625 23.390625 
Q 45.015625 31 40.078125 35.4375 
Q 35.15625 39.890625 26.703125 39.890625 
Q 22.75 39.890625 18.8125 39.015625 
Q 14.890625 38.140625 10.796875 36.28125 
z
" id="DejaVuSans-53"/>
       </defs>
       <use xlink:href="#DejaVuSans-53"/>
       <use x="63.623047" xlink:href="#DejaVuSans-48"/>
      </g>
     </g>
    </g>
   </g>
   <g id="matplotlib.axis_2">
    <g id="ytick_1">
     <g id="line2d_7">
      <defs>
       <path d="M 0 0 
L -3.5 0 
" id="m2d50fda478" style="stroke:#000000;stroke-width:0.8;"/>
      </defs>
      <g>
       <use style="stroke:#000000;stroke-width:0.8;" x="57.6" xlink:href="#m2d50fda478" y="299.583636"/>
      </g>
     </g>
     <g id="text_7">
      <!-- 0.00 -->
      <g transform="translate(28.334375 303.382855)scale(0.1 -0.1)">
       <defs>
        <path d="M 10.6875 12.40625 
L 21 12.40625 
L 21 0 
L 10.6875 0 
z
" id="DejaVuSans-46"/>
       </defs>
       <use xlink:href="#DejaVuSans-48"/>
       <use x="63.623047" xlink:href="#DejaVuSans-46"/>
       <use x="95.410156" xlink:href="#DejaVuSans-48"/>
       <use x="159.033203" xlink:href="#DejaVuSans-48"/>
      </g>
     </g>
    </g>
    <g id="ytick_2">
     <g id="line2d_8">
      <g>
       <use style="stroke:#000000;stroke-width:0.8;" x="57.6" xlink:href="#m2d50fda478" y="264.568573"/>
      </g>
     </g>
     <g id="text_8">
      <!-- 0.02 -->
      <g transform="translate(28.334375 268.367792)scale(0.1 -0.1)">
       <use xlink:href="#DejaVuSans-48"/>
       <use x="63.623047" xlink:href="#DejaVuSans-46"/>
       <use x="95.410156" xlink:href="#DejaVuSans-48"/>
       <use x="159.033203" xlink:href="#DejaVuSans-50"/>
      </g>
     </g>
    </g>
    <g id="ytick_3">
     <g id="line2d_9">
      <g>
       <use style="stroke:#000000;stroke-width:0.8;" x="57.6" xlink:href="#m2d50fda478" y="229.55351"/>
      </g>
     </g>
     <g id="text_9">
      <!-- 0.04 -->
      <g transform="translate(28.334375 233.352729)scale(0.1 -0.1)">
       <use xlink:href="#DejaVuSans-48"/>
       <use x="63.623047" xlink:href="#DejaVuSans-46"/>
       <use x="95.410156" xlink:href="#DejaVuSans-48"/>
       <use x="159.033203" xlink:href="#DejaVuSans-52"/>
      </g>
     </g>
    </g>
    <g id="ytick_4">
     <g id="line2d_10">
      <g>
       <use style="stroke:#000000;stroke-width:0.8;" x="57.6" xlink:href="#m2d50fda478" y="194.538447"/>
      </g>
     </g>
     <g id="text_10">
      <!-- 0.06 -->
      <g transform="translate(28.334375 198.337666)scale(0.1 -0.1)">
       <defs>
        <path d="M 33.015625 40.375 
Q 26.375 40.375 22.484375 35.828125 
Q 18.609375 31.296875 18.609375 23.390625 
Q 18.609375 15.53125 22.484375 10.953125 
Q 26.375 6.390625 33.015625 6.390625 
Q 39.65625 6.390625 43.53125 10.953125 
Q 47.40625 15.53125 47.40625 23.390625 
Q 47.40625 31.296875 43.53125 35.828125 
Q 39.65625 40.375 33.015625 40.375 
z
M 52.59375 71.296875 
L 52.59375 62.3125 
Q 48.875 64.0625 45.09375 64.984375 
Q 41.3125 65.921875 37.59375 65.921875 
Q 27.828125 65.921875 22.671875 59.328125 
Q 17.53125 52.734375 16.796875 39.40625 
Q 19.671875 43.65625 24.015625 45.921875 
Q 28.375 48.1875 33.59375 48.1875 
Q 44.578125 48.1875 50.953125 41.515625 
Q 57.328125 34.859375 57.328125 23.390625 
Q 57.328125 12.15625 50.6875 5.359375 
Q 44.046875 -1.421875 33.015625 -1.421875 
Q 20.359375 -1.421875 13.671875 8.265625 
Q 6.984375 17.96875 6.984375 36.375 
Q 6.984375 53.65625 15.1875 63.9375 
Q 23.390625 74.21875 37.203125 74.21875 
Q 40.921875 74.21875 44.703125 73.484375 
Q 48.484375 72.75 52.59375 71.296875 
z
" id="DejaVuSans-54"/>
       </defs>
       <use xlink:href="#DejaVuSans-48"/>
       <use x="63.623047" xlink:href="#DejaVuSans-46"/>
       <use x="95.410156" xlink:href="#DejaVuSans-48"/>
       <use x="159.033203" xlink:href="#DejaVuSans-54"/>
      </g>
     </g>
    </g>
    <g id="ytick_5">
     <g id="line2d_11">
      <g>
       <use style="stroke:#000000;stroke-width:0.8;" x="57.6" xlink:href="#m2d50fda478" y="159.523384"/>
      </g>
     </g>
     <g id="text_11">
      <!-- 0.08 -->
      <g transform="translate(28.334375 163.322602)scale(0.1 -0.1)">
       <defs>
        <path d="M 31.78125 34.625 
Q 24.75 34.625 20.71875 30.859375 
Q 16.703125 27.09375 16.703125 20.515625 
Q 16.703125 13.921875 20.71875 10.15625 
Q 24.75 6.390625 31.78125 6.390625 
Q 38.8125 6.390625 42.859375 10.171875 
Q 46.921875 13.96875 46.921875 20.515625 
Q 46.921875 27.09375 42.890625 30.859375 
Q 38.875 34.625 31.78125 34.625 
z
M 21.921875 38.8125 
Q 15.578125 40.375 12.03125 44.71875 
Q 8.5 49.078125 8.5 55.328125 
Q 8.5 64.0625 14.71875 69.140625 
Q 20.953125 74.21875 31.78125 74.21875 
Q 42.671875 74.21875 48.875 69.140625 
Q 55.078125 64.0625 55.078125 55.328125 
Q 55.078125 49.078125 51.53125 44.71875 
Q 48 40.375 41.703125 38.8125 
Q 48.828125 37.15625 52.796875 32.3125 
Q 56.78125 27.484375 56.78125 20.515625 
Q 56.78125 9.90625 50.3125 4.234375 
Q 43.84375 -1.421875 31.78125 -1.421875 
Q 19.734375 -1.421875 13.25 4.234375 
Q 6.78125 9.90625 6.78125 20.515625 
Q 6.78125 27.484375 10.78125 32.3125 
Q 14.796875 37.15625 21.921875 38.8125 
z
M 18.3125 54.390625 
Q 18.3125 48.734375 21.84375 45.5625 
Q 25.390625 42.390625 31.78125 42.390625 
Q 38.140625 42.390625 41.71875 45.5625 
Q 45.3125 48.734375 45.3125 54.390625 
Q 45.3125 60.0625 41.71875 63.234375 
Q 38.140625 66.40625 31.78125 66.40625 
Q 25.390625 66.40625 21.84375 63.234375 
Q 18.3125 60.0625 18.3125 54.390625 
z
" id="DejaVuSans-56"/>
       </defs>
       <use xlink:href="#DejaVuSans-48"/>
       <use x="63.623047" xlink:href="#DejaVuSans-46"/>
       <use x="95.410156" xlink:href="#DejaVuSans-48"/>
       <use x="159.033203" xlink:href="#DejaVuSans-56"/>
      </g>
     </g>
    </g>
    <g id="ytick_6">
     <g id="line2d_12">
      <g>
       <use style="stroke:#000000;stroke-width:0.8;" x="57.6" xlink:href="#m2d50fda478" y="124.508321"/>
      </g>
     </g>
     <g id="text_12">
      <!-- 0.10 -->
      <g transform="translate(28.334375 128.307539)scale(0.1 -0.1)">
       <use xlink:href="#DejaVuSans-48"/>
       <use x="63.623047" xlink:href="#DejaVuSans-46"/>
       <use x="95.410156" xlink:href="#DejaVuSans-49"/>
       <use x="159.033203" xlink:href="#DejaVuSans-48"/>
      </g>
     </g>
    </g>
    <g id="ytick_7">
     <g id="line2d_13">
      <g>
       <use style="stroke:#000000;stroke-width:0.8;" x="57.6" xlink:href="#m2d50fda478" y="89.493257"/>
      </g>
     </g>
     <g id="text_13">
      <!-- 0.12 -->
      <g transform="translate(28.334375 93.292476)scale(0.1 -0.1)">
       <use xlink:href="#DejaVuSans-48"/>
       <use x="63.623047" xlink:href="#DejaVuSans-46"/>
       <use x="95.410156" xlink:href="#DejaVuSans-49"/>
       <use x="159.033203" xlink:href="#DejaVuSans-50"/>
      </g>
     </g>
    </g>
    <g id="ytick_8">
     <g id="line2d_14">
      <g>
       <use style="stroke:#000000;stroke-width:0.8;" x="57.6" xlink:href="#m2d50fda478" y="54.478194"/>
      </g>
     </g>
     <g id="text_14">
      <!-- 0.14 -->
      <g transform="translate(28.334375 58.277413)scale(0.1 -0.1)">
       <use xlink:href="#DejaVuSans-48"/>
       <use x="63.623047" xlink:href="#DejaVuSans-46"/>
       <use x="95.410156" xlink:href="#DejaVuSans-49"/>
       <use x="159.033203" xlink:href="#DejaVuSans-52"/>
      </g>
     </g>
    </g>
   </g>
   <g id="line2d_15">
    <defs>
     <path d="M 0 3 
C 0.795609 3 1.55874 2.683901 2.12132 2.12132 
C 2.683901 1.55874 3 0.795609 3 0 
C 3 -0.795609 2.683901 -1.55874 2.12132 -2.12132 
C 1.55874 -2.683901 0.795609 -3 0 -3 
C -0.795609 -3 -1.55874 -2.683901 -2.12132 -2.12132 
C -2.683901 -1.55874 -3 -0.795609 -3 0 
C -3 0.795609 -2.683901 1.55874 -2.12132 2.12132 
C -1.55874 2.683901 -0.795609 3 0 3 
z
" id="m1c047c1adf" style="stroke:#ff0000;"/>
    </defs>
    <g clip-path="url(#p3f6814d2e2)">
     <use style="fill:#ff0000;stroke:#ff0000;" x="73.832727" xlink:href="#m1c047c1adf" y="116.060837"/>
     <use style="fill:#ff0000;stroke:#ff0000;" x="80.45833" xlink:href="#m1c047c1adf" y="168.15419"/>
     <use style="fill:#ff0000;stroke:#ff0000;" x="87.083933" xlink:href="#m1c047c1adf" y="183.150189"/>
     <use style="fill:#ff0000;stroke:#ff0000;" x="93.709536" xlink:href="#m1c047c1adf" y="195.584836"/>
     <use style="fill:#ff0000;stroke:#ff0000;" x="100.335139" xlink:href="#m1c047c1adf" y="202.813213"/>
     <use style="fill:#ff0000;stroke:#ff0000;" x="106.960742" xlink:href="#m1c047c1adf" y="207.529624"/>
     <use style="fill:#ff0000;stroke:#ff0000;" x="113.586345" xlink:href="#m1c047c1adf" y="213.184775"/>
     <use style="fill:#ff0000;stroke:#ff0000;" x="120.211948" xlink:href="#m1c047c1adf" y="216.564972"/>
     <use style="fill:#ff0000;stroke:#ff0000;" x="126.837551" xlink:href="#m1c047c1adf" y="220.381814"/>
     <use style="fill:#ff0000;stroke:#ff0000;" x="133.463154" xlink:href="#m1c047c1adf" y="223.450973"/>
     <use style="fill:#ff0000;stroke:#ff0000;" x="140.088757" xlink:href="#m1c047c1adf" y="225.790822"/>
     <use style="fill:#ff0000;stroke:#ff0000;" x="146.71436" xlink:href="#m1c047c1adf" y="227.927391"/>
     <use style="fill:#ff0000;stroke:#ff0000;" x="153.339963" xlink:href="#m1c047c1adf" y="230.997294"/>
     <use style="fill:#ff0000;stroke:#ff0000;" x="159.965566" xlink:href="#m1c047c1adf" y="232.511398"/>
     <use style="fill:#ff0000;stroke:#ff0000;" x="166.591169" xlink:href="#m1c047c1adf" y="235.316466"/>
     <use style="fill:#ff0000;stroke:#ff0000;" x="173.216772" xlink:href="#m1c047c1adf" y="236.890435"/>
     <use style="fill:#ff0000;stroke:#ff0000;" x="179.842375" xlink:href="#m1c047c1adf" y="237.659191"/>
     <use style="fill:#ff0000;stroke:#ff0000;" x="186.467978" xlink:href="#m1c047c1adf" y="238.625213"/>
     <use style="fill:#ff0000;stroke:#ff0000;" x="193.093581" xlink:href="#m1c047c1adf" y="239.605988"/>
     <use style="fill:#ff0000;stroke:#ff0000;" x="199.719184" xlink:href="#m1c047c1adf" y="240.453367"/>
     <use style="fill:#ff0000;stroke:#ff0000;" x="206.344787" xlink:href="#m1c047c1adf" y="241.397808"/>
     <use style="fill:#ff0000;stroke:#ff0000;" x="212.97039" xlink:href="#m1c047c1adf" y="242.745879"/>
     <use style="fill:#ff0000;stroke:#ff0000;" x="219.595993" xlink:href="#m1c047c1adf" y="243.187012"/>
     <use style="fill:#ff0000;stroke:#ff0000;" x="226.221596" xlink:href="#m1c047c1adf" y="244.825817"/>
     <use style="fill:#ff0000;stroke:#ff0000;" x="232.847199" xlink:href="#m1c047c1adf" y="245.358647"/>
     <use style="fill:#ff0000;stroke:#ff0000;" x="239.472801" xlink:href="#m1c047c1adf" y="246.81883"/>
     <use style="fill:#ff0000;stroke:#ff0000;" x="246.098404" xlink:href="#m1c047c1adf" y="246.689914"/>
     <use style="fill:#ff0000;stroke:#ff0000;" x="252.724007" xlink:href="#m1c047c1adf" y="247.099021"/>
     <use style="fill:#ff0000;stroke:#ff0000;" x="259.34961" xlink:href="#m1c047c1adf" y="249.005453"/>
     <use style="fill:#ff0000;stroke:#ff0000;" x="265.975213" xlink:href="#m1c047c1adf" y="248.178996"/>
     <use style="fill:#ff0000;stroke:#ff0000;" x="272.600816" xlink:href="#m1c047c1adf" y="249.404675"/>
     <use style="fill:#ff0000;stroke:#ff0000;" x="279.226419" xlink:href="#m1c047c1adf" y="249.994067"/>
     <use style="fill:#ff0000;stroke:#ff0000;" x="285.852022" xlink:href="#m1c047c1adf" y="250.136946"/>
     <use style="fill:#ff0000;stroke:#ff0000;" x="292.477625" xlink:href="#m1c047c1adf" y="250.362567"/>
     <use style="fill:#ff0000;stroke:#ff0000;" x="299.103228" xlink:href="#m1c047c1adf" y="250.96277"/>
     <use style="fill:#ff0000;stroke:#ff0000;" x="305.728831" xlink:href="#m1c047c1adf" y="251.471158"/>
     <use style="fill:#ff0000;stroke:#ff0000;" x="312.354434" xlink:href="#m1c047c1adf" y="251.478371"/>
     <use style="fill:#ff0000;stroke:#ff0000;" x="318.980037" xlink:href="#m1c047c1adf" y="253.127795"/>
     <use style="fill:#ff0000;stroke:#ff0000;" x="325.60564" xlink:href="#m1c047c1adf" y="253.360293"/>
     <use style="fill:#ff0000;stroke:#ff0000;" x="332.231243" xlink:href="#m1c047c1adf" y="253.23067"/>
     <use style="fill:#ff0000;stroke:#ff0000;" x="338.856846" xlink:href="#m1c047c1adf" y="254.266834"/>
     <use style="fill:#ff0000;stroke:#ff0000;" x="345.482449" xlink:href="#m1c047c1adf" y="254.52216"/>
     <use style="fill:#ff0000;stroke:#ff0000;" x="352.108052" xlink:href="#m1c047c1adf" y="254.914221"/>
     <use style="fill:#ff0000;stroke:#ff0000;" x="358.733655" xlink:href="#m1c047c1adf" y="255.537032"/>
     <use style="fill:#ff0000;stroke:#ff0000;" x="365.359258" xlink:href="#m1c047c1adf" y="255.958667"/>
     <use style="fill:#ff0000;stroke:#ff0000;" x="371.984861" xlink:href="#m1c047c1adf" y="255.62686"/>
     <use style="fill:#ff0000;stroke:#ff0000;" x="378.610464" xlink:href="#m1c047c1adf" y="256.365438"/>
     <use style="fill:#ff0000;stroke:#ff0000;" x="385.236067" xlink:href="#m1c047c1adf" y="256.816067"/>
     <use style="fill:#ff0000;stroke:#ff0000;" x="391.86167" xlink:href="#m1c047c1adf" y="257.038255"/>
     <use style="fill:#ff0000;stroke:#ff0000;" x="398.487273" xlink:href="#m1c047c1adf" y="257.338534"/>
    </g>
   </g>
   <g id="line2d_16">
    <path clip-path="url(#p3f6814d2e2)" d="M 73.832727 53.568 
L 80.45833 172.162494 
L 87.083933 186.58489 
L 93.709536 209.231817 
L 100.335139 213.705777 
L 106.960742 224.318662 
L 113.586345 227.115199 
L 120.211948 188.446992 
L 126.837551 201.734673 
L 133.463154 242.086277 
L 140.088757 237.251556 
L 146.71436 232.698718 
L 153.339963 224.608111 
L 159.965566 210.527367 
L 166.591169 234.006314 
L 173.216772 226.467538 
L 179.842375 243.856678 
L 186.467978 224.650244 
L 193.093581 238.245029 
L 199.719184 244.072362 
L 206.344787 244.822856 
L 212.97039 249.677639 
L 219.595993 243.502908 
L 226.221596 243.749051 
L 232.847199 249.642619 
L 239.472801 256.992776 
L 246.098404 241.380915 
L 252.724007 245.996935 
L 259.34961 244.473613 
L 265.975213 239.380442 
L 272.600816 201.341353 
L 279.226419 254.801845 
L 285.852022 252.273385 
L 292.477625 249.49943 
L 299.103228 258.641642 
L 305.728831 239.490274 
L 312.354434 249.656143 
L 318.980037 244.91649 
L 325.60564 256.792011 
L 332.231243 260.734543 
L 338.856846 256.170576 
L 345.482449 250.468322 
L 352.108052 251.485464 
L 358.733655 241.857287 
L 365.359258 246.641397 
L 371.984861 249.161601 
L 378.610464 256.989202 
L 385.236067 259.341763 
L 391.86167 236.622718 
L 398.487273 259.168351 
" style="fill:none;stroke:#ff0000;stroke-linecap:square;stroke-width:1.5;"/>
   </g>
   <g id="line2d_17">
    <defs>
     <path d="M 0 3 
C 0.795609 3 1.55874 2.683901 2.12132 2.12132 
C 2.683901 1.55874 3 0.795609 3 0 
C 3 -0.795609 2.683901 -1.55874 2.12132 -2.12132 
C 1.55874 -2.683901 0.795609 -3 0 -3 
C -0.795609 -3 -1.55874 -2.683901 -2.12132 -2.12132 
C -2.683901 -1.55874 -3 -0.795609 -3 0 
C -3 0.795609 -2.683901 1.55874 -2.12132 2.12132 
C -1.55874 2.683901 -0.795609 3 0 3 
z
" id="m429f62f6e3" style="stroke:#0000ff;"/>
    </defs>
    <g clip-path="url(#p3f6814d2e2)">
     <use style="fill:#0000ff;stroke:#0000ff;" x="73.832727" xlink:href="#m429f62f6e3" y="198.875211"/>
     <use style="fill:#0000ff;stroke:#0000ff;" x="80.45833" xlink:href="#m429f62f6e3" y="258.179469"/>
     <use style="fill:#0000ff;stroke:#0000ff;" x="87.083933" xlink:href="#m429f62f6e3" y="270.700595"/>
     <use style="fill:#0000ff;stroke:#0000ff;" x="93.709536" xlink:href="#m429f62f6e3" y="275.216541"/>
     <use style="fill:#0000ff;stroke:#0000ff;" x="100.335139" xlink:href="#m429f62f6e3" y="278.328064"/>
     <use style="fill:#0000ff;stroke:#0000ff;" x="106.960742" xlink:href="#m429f62f6e3" y="280.319007"/>
     <use style="fill:#0000ff;stroke:#0000ff;" x="113.586345" xlink:href="#m429f62f6e3" y="282.581097"/>
     <use style="fill:#0000ff;stroke:#0000ff;" x="120.211948" xlink:href="#m429f62f6e3" y="283.226395"/>
     <use style="fill:#0000ff;stroke:#0000ff;" x="126.837551" xlink:href="#m429f62f6e3" y="284.196183"/>
     <use style="fill:#0000ff;stroke:#0000ff;" x="133.463154" xlink:href="#m429f62f6e3" y="284.965414"/>
     <use style="fill:#0000ff;stroke:#0000ff;" x="140.088757" xlink:href="#m429f62f6e3" y="286.479705"/>
     <use style="fill:#0000ff;stroke:#0000ff;" x="146.71436" xlink:href="#m429f62f6e3" y="286.535215"/>
     <use style="fill:#0000ff;stroke:#0000ff;" x="153.339963" xlink:href="#m429f62f6e3" y="287.651063"/>
     <use style="fill:#0000ff;stroke:#0000ff;" x="159.965566" xlink:href="#m429f62f6e3" y="288.124114"/>
     <use style="fill:#0000ff;stroke:#0000ff;" x="166.591169" xlink:href="#m429f62f6e3" y="288.626078"/>
     <use style="fill:#0000ff;stroke:#0000ff;" x="173.216772" xlink:href="#m429f62f6e3" y="288.892874"/>
     <use style="fill:#0000ff;stroke:#0000ff;" x="179.842375" xlink:href="#m429f62f6e3" y="289.165783"/>
     <use style="fill:#0000ff;stroke:#0000ff;" x="186.467978" xlink:href="#m429f62f6e3" y="289.807534"/>
     <use style="fill:#0000ff;stroke:#0000ff;" x="193.093581" xlink:href="#m429f62f6e3" y="289.932061"/>
     <use style="fill:#0000ff;stroke:#0000ff;" x="199.719184" xlink:href="#m429f62f6e3" y="289.843988"/>
     <use style="fill:#0000ff;stroke:#0000ff;" x="206.344787" xlink:href="#m429f62f6e3" y="290.182845"/>
     <use style="fill:#0000ff;stroke:#0000ff;" x="212.97039" xlink:href="#m429f62f6e3" y="290.548184"/>
     <use style="fill:#0000ff;stroke:#0000ff;" x="219.595993" xlink:href="#m429f62f6e3" y="290.648079"/>
     <use style="fill:#0000ff;stroke:#0000ff;" x="226.221596" xlink:href="#m429f62f6e3" y="291.161386"/>
     <use style="fill:#0000ff;stroke:#0000ff;" x="232.847199" xlink:href="#m429f62f6e3" y="291.202524"/>
     <use style="fill:#0000ff;stroke:#0000ff;" x="239.472801" xlink:href="#m429f62f6e3" y="291.827702"/>
     <use style="fill:#0000ff;stroke:#0000ff;" x="246.098404" xlink:href="#m429f62f6e3" y="291.429394"/>
     <use style="fill:#0000ff;stroke:#0000ff;" x="252.724007" xlink:href="#m429f62f6e3" y="291.698507"/>
     <use style="fill:#0000ff;stroke:#0000ff;" x="259.34961" xlink:href="#m429f62f6e3" y="292.183855"/>
     <use style="fill:#0000ff;stroke:#0000ff;" x="265.975213" xlink:href="#m429f62f6e3" y="292.256184"/>
     <use style="fill:#0000ff;stroke:#0000ff;" x="272.600816" xlink:href="#m429f62f6e3" y="291.974647"/>
     <use style="fill:#0000ff;stroke:#0000ff;" x="279.226419" xlink:href="#m429f62f6e3" y="292.03431"/>
     <use style="fill:#0000ff;stroke:#0000ff;" x="285.852022" xlink:href="#m429f62f6e3" y="292.579512"/>
     <use style="fill:#0000ff;stroke:#0000ff;" x="292.477625" xlink:href="#m429f62f6e3" y="292.738951"/>
     <use style="fill:#0000ff;stroke:#0000ff;" x="299.103228" xlink:href="#m429f62f6e3" y="292.852397"/>
     <use style="fill:#0000ff;stroke:#0000ff;" x="305.728831" xlink:href="#m429f62f6e3" y="292.970906"/>
     <use style="fill:#0000ff;stroke:#0000ff;" x="312.354434" xlink:href="#m429f62f6e3" y="293.131273"/>
     <use style="fill:#0000ff;stroke:#0000ff;" x="318.980037" xlink:href="#m429f62f6e3" y="293.084723"/>
     <use style="fill:#0000ff;stroke:#0000ff;" x="325.60564" xlink:href="#m429f62f6e3" y="293.275452"/>
     <use style="fill:#0000ff;stroke:#0000ff;" x="332.231243" xlink:href="#m429f62f6e3" y="293.329768"/>
     <use style="fill:#0000ff;stroke:#0000ff;" x="338.856846" xlink:href="#m429f62f6e3" y="293.460892"/>
     <use style="fill:#0000ff;stroke:#0000ff;" x="345.482449" xlink:href="#m429f62f6e3" y="293.68524"/>
     <use style="fill:#0000ff;stroke:#0000ff;" x="352.108052" xlink:href="#m429f62f6e3" y="293.747174"/>
     <use style="fill:#0000ff;stroke:#0000ff;" x="358.733655" xlink:href="#m429f62f6e3" y="293.988183"/>
     <use style="fill:#0000ff;stroke:#0000ff;" x="365.359258" xlink:href="#m429f62f6e3" y="294.004406"/>
     <use style="fill:#0000ff;stroke:#0000ff;" x="371.984861" xlink:href="#m429f62f6e3" y="294.096603"/>
     <use style="fill:#0000ff;stroke:#0000ff;" x="378.610464" xlink:href="#m429f62f6e3" y="294.133152"/>
     <use style="fill:#0000ff;stroke:#0000ff;" x="385.236067" xlink:href="#m429f62f6e3" y="294.265629"/>
     <use style="fill:#0000ff;stroke:#0000ff;" x="391.86167" xlink:href="#m429f62f6e3" y="294.210852"/>
     <use style="fill:#0000ff;stroke:#0000ff;" x="398.487273" xlink:href="#m429f62f6e3" y="294.423199"/>
    </g>
   </g>
   <g id="line2d_18">
    <path clip-path="url(#p3f6814d2e2)" d="M 73.832727 229.706076 
L 80.45833 272.59616 
L 87.083933 276.707623 
L 93.709536 280.731376 
L 100.335139 283.196074 
L 106.960742 283.776004 
L 113.586345 283.990864 
L 120.211948 278.425486 
L 126.837551 285.582313 
L 133.463154 290.943708 
L 140.088757 289.615142 
L 146.71436 290.480959 
L 153.339963 285.811899 
L 159.965566 284.093846 
L 166.591169 289.085911 
L 173.216772 290.260605 
L 179.842375 292.570462 
L 186.467978 289.601866 
L 193.093581 290.664077 
L 199.719184 291.185573 
L 206.344787 292.112026 
L 212.97039 293.444447 
L 219.595993 290.866718 
L 226.221596 291.475421 
L 232.847199 293.520551 
L 239.472801 293.84172 
L 246.098404 291.309317 
L 252.724007 293.247142 
L 259.34961 291.384033 
L 265.975213 293.492665 
L 272.600816 289.38594 
L 279.226419 293.119698 
L 285.852022 290.680029 
L 292.477625 286.14899 
L 299.103228 294.866711 
L 305.728831 291.588222 
L 312.354434 293.861874 
L 318.980037 294.013796 
L 325.60564 294.161279 
L 332.231243 294.387635 
L 338.856846 294.865619 
L 345.482449 294.08132 
L 352.108052 294.141575 
L 358.733655 293.998399 
L 365.359258 292.495174 
L 371.984861 293.731165 
L 378.610464 294.812872 
L 385.236067 292.954389 
L 391.86167 291.61149 
L 398.487273 295.488 
" style="fill:none;stroke:#0000ff;stroke-linecap:square;stroke-width:1.5;"/>
   </g>
   <g id="patch_3">
    <path d="M 57.6 307.584 
L 57.6 41.472 
" style="fill:none;stroke:#000000;stroke-linecap:square;stroke-linejoin:miter;stroke-width:0.8;"/>
   </g>
   <g id="patch_4">
    <path d="M 414.72 307.584 
L 414.72 41.472 
" style="fill:none;stroke:#000000;stroke-linecap:square;stroke-linejoin:miter;stroke-width:0.8;"/>
   </g>
   <g id="patch_5">
    <path d="M 57.6 307.584 
L 414.72 307.584 
" style="fill:none;stroke:#000000;stroke-linecap:square;stroke-linejoin:miter;stroke-width:0.8;"/>
   </g>
   <g id="patch_6">
    <path d="M 57.6 41.472 
L 414.72 41.472 
" style="fill:none;stroke:#000000;stroke-linecap:square;stroke-linejoin:miter;stroke-width:0.8;"/>
   </g>
  </g>
 </g>
 <defs>
  <clipPath id="p3f6814d2e2">
   <rect height="266.112" width="357.12" x="57.6" y="41.472"/>
  </clipPath>
 </defs>
</svg>
