<?xml version="1.0" encoding="utf-8" standalone="no"?>
<!DOCTYPE svg PUBLIC "-//W3C//DTD SVG 1.1//EN"
  "http://www.w3.org/Graphics/SVG/1.1/DTD/svg11.dtd">
<!-- Created with matplotlib (https://matplotlib.org/) -->
<svg height="345.6pt" version="1.1" viewBox="0 0 460.8 345.6" width="460.8pt" xmlns="http://www.w3.org/2000/svg" xmlns:xlink="http://www.w3.org/1999/xlink">
 <metadata>
  <rdf:RDF xmlns:cc="http://creativecommons.org/ns#" xmlns:dc="http://purl.org/dc/elements/1.1/" xmlns:rdf="http://www.w3.org/1999/02/22-rdf-syntax-ns#">
   <cc:Work>
    <dc:type rdf:resource="http://purl.org/dc/dcmitype/StillImage"/>
    <dc:date>2021-09-04T13:48:18.624532</dc:date>
    <dc:format>image/svg+xml</dc:format>
    <dc:creator>
     <cc:Agent>
      <dc:title>Matplotlib v3.3.4, https://matplotlib.org/</dc:title>
     </cc:Agent>
    </dc:creator>
   </cc:Work>
  </rdf:RDF>
 </metadata>
 <defs>
  <style type="text/css">*{stroke-linecap:butt;stroke-linejoin:round;}</style>
 </defs>
 <g id="figure_1">
  <g id="patch_1">
   <path d="M 0 345.6 
L 460.8 345.6 
L 460.8 0 
L 0 0 
z
" style="fill:#ffffff;"/>
  </g>
  <g id="axes_1">
   <g id="patch_2">
    <path d="M 57.6 307.584 
L 414.72 307.584 
L 414.72 41.472 
L 57.6 41.472 
z
" style="fill:#ffffff;"/>
   </g>
   <g id="matplotlib.axis_1">
    <g id="xtick_1">
     <g id="line2d_1">
      <defs>
       <path d="M 0 0 
L 0 3.5 
" id="m6783886046" style="stroke:#000000;stroke-width:0.8;"/>
      </defs>
      <g>
       <use style="stroke:#000000;stroke-width:0.8;" x="62.637743" xlink:href="#m6783886046" y="307.584"/>
      </g>
     </g>
     <g id="text_1">
      <!-- 0 -->
      <g transform="translate(59.456493 322.182437)scale(0.1 -0.1)">
       <defs>
        <path d="M 31.78125 66.40625 
Q 24.171875 66.40625 20.328125 58.90625 
Q 16.5 51.421875 16.5 36.375 
Q 16.5 21.390625 20.328125 13.890625 
Q 24.171875 6.390625 31.78125 6.390625 
Q 39.453125 6.390625 43.28125 13.890625 
Q 47.125 21.390625 47.125 36.375 
Q 47.125 51.421875 43.28125 58.90625 
Q 39.453125 66.40625 31.78125 66.40625 
z
M 31.78125 74.21875 
Q 44.046875 74.21875 50.515625 64.515625 
Q 56.984375 54.828125 56.984375 36.375 
Q 56.984375 17.96875 50.515625 8.265625 
Q 44.046875 -1.421875 31.78125 -1.421875 
Q 19.53125 -1.421875 13.0625 8.265625 
Q 6.59375 17.96875 6.59375 36.375 
Q 6.59375 54.828125 13.0625 64.515625 
Q 19.53125 74.21875 31.78125 74.21875 
z
" id="DejaVuSans-48"/>
       </defs>
       <use xlink:href="#DejaVuSans-48"/>
      </g>
     </g>
    </g>
    <g id="xtick_2">
     <g id="line2d_2">
      <g>
       <use style="stroke:#000000;stroke-width:0.8;" x="118.612665" xlink:href="#m6783886046" y="307.584"/>
      </g>
     </g>
     <g id="text_2">
      <!-- 5 -->
      <g transform="translate(115.431415 322.182437)scale(0.1 -0.1)">
       <defs>
        <path d="M 10.796875 72.90625 
L 49.515625 72.90625 
L 49.515625 64.59375 
L 19.828125 64.59375 
L 19.828125 46.734375 
Q 21.96875 47.46875 24.109375 47.828125 
Q 26.265625 48.1875 28.421875 48.1875 
Q 40.625 48.1875 47.75 41.5 
Q 54.890625 34.8125 54.890625 23.390625 
Q 54.890625 11.625 47.5625 5.09375 
Q 40.234375 -1.421875 26.90625 -1.421875 
Q 22.3125 -1.421875 17.546875 -0.640625 
Q 12.796875 0.140625 7.71875 1.703125 
L 7.71875 11.625 
Q 12.109375 9.234375 16.796875 8.0625 
Q 21.484375 6.890625 26.703125 6.890625 
Q 35.15625 6.890625 40.078125 11.328125 
Q 45.015625 15.765625 45.015625 23.390625 
Q 45.015625 31 40.078125 35.4375 
Q 35.15625 39.890625 26.703125 39.890625 
Q 22.75 39.890625 18.8125 39.015625 
Q 14.890625 38.140625 10.796875 36.28125 
z
" id="DejaVuSans-53"/>
       </defs>
       <use xlink:href="#DejaVuSans-53"/>
      </g>
     </g>
    </g>
    <g id="xtick_3">
     <g id="line2d_3">
      <g>
       <use style="stroke:#000000;stroke-width:0.8;" x="174.587586" xlink:href="#m6783886046" y="307.584"/>
      </g>
     </g>
     <g id="text_3">
      <!-- 10 -->
      <g transform="translate(168.225086 322.182437)scale(0.1 -0.1)">
       <defs>
        <path d="M 12.40625 8.296875 
L 28.515625 8.296875 
L 28.515625 63.921875 
L 10.984375 60.40625 
L 10.984375 69.390625 
L 28.421875 72.90625 
L 38.28125 72.90625 
L 38.28125 8.296875 
L 54.390625 8.296875 
L 54.390625 0 
L 12.40625 0 
z
" id="DejaVuSans-49"/>
       </defs>
       <use xlink:href="#DejaVuSans-49"/>
       <use x="63.623047" xlink:href="#DejaVuSans-48"/>
      </g>
     </g>
    </g>
    <g id="xtick_4">
     <g id="line2d_4">
      <g>
       <use style="stroke:#000000;stroke-width:0.8;" x="230.562508" xlink:href="#m6783886046" y="307.584"/>
      </g>
     </g>
     <g id="text_4">
      <!-- 15 -->
      <g transform="translate(224.200008 322.182437)scale(0.1 -0.1)">
       <use xlink:href="#DejaVuSans-49"/>
       <use x="63.623047" xlink:href="#DejaVuSans-53"/>
      </g>
     </g>
    </g>
    <g id="xtick_5">
     <g id="line2d_5">
      <g>
       <use style="stroke:#000000;stroke-width:0.8;" x="286.537429" xlink:href="#m6783886046" y="307.584"/>
      </g>
     </g>
     <g id="text_5">
      <!-- 20 -->
      <g transform="translate(280.174929 322.182437)scale(0.1 -0.1)">
       <defs>
        <path d="M 19.1875 8.296875 
L 53.609375 8.296875 
L 53.609375 0 
L 7.328125 0 
L 7.328125 8.296875 
Q 12.9375 14.109375 22.625 23.890625 
Q 32.328125 33.6875 34.8125 36.53125 
Q 39.546875 41.84375 41.421875 45.53125 
Q 43.3125 49.21875 43.3125 52.78125 
Q 43.3125 58.59375 39.234375 62.25 
Q 35.15625 65.921875 28.609375 65.921875 
Q 23.96875 65.921875 18.8125 64.3125 
Q 13.671875 62.703125 7.8125 59.421875 
L 7.8125 69.390625 
Q 13.765625 71.78125 18.9375 73 
Q 24.125 74.21875 28.421875 74.21875 
Q 39.75 74.21875 46.484375 68.546875 
Q 53.21875 62.890625 53.21875 53.421875 
Q 53.21875 48.921875 51.53125 44.890625 
Q 49.859375 40.875 45.40625 35.40625 
Q 44.1875 33.984375 37.640625 27.21875 
Q 31.109375 20.453125 19.1875 8.296875 
z
" id="DejaVuSans-50"/>
       </defs>
       <use xlink:href="#DejaVuSans-50"/>
       <use x="63.623047" xlink:href="#DejaVuSans-48"/>
      </g>
     </g>
    </g>
    <g id="xtick_6">
     <g id="line2d_6">
      <g>
       <use style="stroke:#000000;stroke-width:0.8;" x="342.512351" xlink:href="#m6783886046" y="307.584"/>
      </g>
     </g>
     <g id="text_6">
      <!-- 25 -->
      <g transform="translate(336.149851 322.182437)scale(0.1 -0.1)">
       <use xlink:href="#DejaVuSans-50"/>
       <use x="63.623047" xlink:href="#DejaVuSans-53"/>
      </g>
     </g>
    </g>
    <g id="xtick_7">
     <g id="line2d_7">
      <g>
       <use style="stroke:#000000;stroke-width:0.8;" x="398.487273" xlink:href="#m6783886046" y="307.584"/>
      </g>
     </g>
     <g id="text_7">
      <!-- 30 -->
      <g transform="translate(392.124773 322.182437)scale(0.1 -0.1)">
       <defs>
        <path d="M 40.578125 39.3125 
Q 47.65625 37.796875 51.625 33 
Q 55.609375 28.21875 55.609375 21.1875 
Q 55.609375 10.40625 48.1875 4.484375 
Q 40.765625 -1.421875 27.09375 -1.421875 
Q 22.515625 -1.421875 17.65625 -0.515625 
Q 12.796875 0.390625 7.625 2.203125 
L 7.625 11.71875 
Q 11.71875 9.328125 16.59375 8.109375 
Q 21.484375 6.890625 26.8125 6.890625 
Q 36.078125 6.890625 40.9375 10.546875 
Q 45.796875 14.203125 45.796875 21.1875 
Q 45.796875 27.640625 41.28125 31.265625 
Q 36.765625 34.90625 28.71875 34.90625 
L 20.21875 34.90625 
L 20.21875 43.015625 
L 29.109375 43.015625 
Q 36.375 43.015625 40.234375 45.921875 
Q 44.09375 48.828125 44.09375 54.296875 
Q 44.09375 59.90625 40.109375 62.90625 
Q 36.140625 65.921875 28.71875 65.921875 
Q 24.65625 65.921875 20.015625 65.03125 
Q 15.375 64.15625 9.8125 62.3125 
L 9.8125 71.09375 
Q 15.4375 72.65625 20.34375 73.4375 
Q 25.25 74.21875 29.59375 74.21875 
Q 40.828125 74.21875 47.359375 69.109375 
Q 53.90625 64.015625 53.90625 55.328125 
Q 53.90625 49.265625 50.4375 45.09375 
Q 46.96875 40.921875 40.578125 39.3125 
z
" id="DejaVuSans-51"/>
       </defs>
       <use xlink:href="#DejaVuSans-51"/>
       <use x="63.623047" xlink:href="#DejaVuSans-48"/>
      </g>
     </g>
    </g>
   </g>
   <g id="matplotlib.axis_2">
    <g id="ytick_1">
     <g id="line2d_8">
      <defs>
       <path d="M 0 0 
L -3.5 0 
" id="m9877aa0bb6" style="stroke:#000000;stroke-width:0.8;"/>
      </defs>
      <g>
       <use style="stroke:#000000;stroke-width:0.8;" x="57.6" xlink:href="#m9877aa0bb6" y="298.171547"/>
      </g>
     </g>
     <g id="text_8">
      <!-- 0.000 -->
      <g transform="translate(21.971875 301.970766)scale(0.1 -0.1)">
       <defs>
        <path d="M 10.6875 12.40625 
L 21 12.40625 
L 21 0 
L 10.6875 0 
z
" id="DejaVuSans-46"/>
       </defs>
       <use xlink:href="#DejaVuSans-48"/>
       <use x="63.623047" xlink:href="#DejaVuSans-46"/>
       <use x="95.410156" xlink:href="#DejaVuSans-48"/>
       <use x="159.033203" xlink:href="#DejaVuSans-48"/>
       <use x="222.65625" xlink:href="#DejaVuSans-48"/>
      </g>
     </g>
    </g>
    <g id="ytick_2">
     <g id="line2d_9">
      <g>
       <use style="stroke:#000000;stroke-width:0.8;" x="57.6" xlink:href="#m9877aa0bb6" y="267.922265"/>
      </g>
     </g>
     <g id="text_9">
      <!-- 0.002 -->
      <g transform="translate(21.971875 271.721484)scale(0.1 -0.1)">
       <use xlink:href="#DejaVuSans-48"/>
       <use x="63.623047" xlink:href="#DejaVuSans-46"/>
       <use x="95.410156" xlink:href="#DejaVuSans-48"/>
       <use x="159.033203" xlink:href="#DejaVuSans-48"/>
       <use x="222.65625" xlink:href="#DejaVuSans-50"/>
      </g>
     </g>
    </g>
    <g id="ytick_3">
     <g id="line2d_10">
      <g>
       <use style="stroke:#000000;stroke-width:0.8;" x="57.6" xlink:href="#m9877aa0bb6" y="237.672982"/>
      </g>
     </g>
     <g id="text_10">
      <!-- 0.004 -->
      <g transform="translate(21.971875 241.472201)scale(0.1 -0.1)">
       <defs>
        <path d="M 37.796875 64.3125 
L 12.890625 25.390625 
L 37.796875 25.390625 
z
M 35.203125 72.90625 
L 47.609375 72.90625 
L 47.609375 25.390625 
L 58.015625 25.390625 
L 58.015625 17.1875 
L 47.609375 17.1875 
L 47.609375 0 
L 37.796875 0 
L 37.796875 17.1875 
L 4.890625 17.1875 
L 4.890625 26.703125 
z
" id="DejaVuSans-52"/>
       </defs>
       <use xlink:href="#DejaVuSans-48"/>
       <use x="63.623047" xlink:href="#DejaVuSans-46"/>
       <use x="95.410156" xlink:href="#DejaVuSans-48"/>
       <use x="159.033203" xlink:href="#DejaVuSans-48"/>
       <use x="222.65625" xlink:href="#DejaVuSans-52"/>
      </g>
     </g>
    </g>
    <g id="ytick_4">
     <g id="line2d_11">
      <g>
       <use style="stroke:#000000;stroke-width:0.8;" x="57.6" xlink:href="#m9877aa0bb6" y="207.4237"/>
      </g>
     </g>
     <g id="text_11">
      <!-- 0.006 -->
      <g transform="translate(21.971875 211.222919)scale(0.1 -0.1)">
       <defs>
        <path d="M 33.015625 40.375 
Q 26.375 40.375 22.484375 35.828125 
Q 18.609375 31.296875 18.609375 23.390625 
Q 18.609375 15.53125 22.484375 10.953125 
Q 26.375 6.390625 33.015625 6.390625 
Q 39.65625 6.390625 43.53125 10.953125 
Q 47.40625 15.53125 47.40625 23.390625 
Q 47.40625 31.296875 43.53125 35.828125 
Q 39.65625 40.375 33.015625 40.375 
z
M 52.59375 71.296875 
L 52.59375 62.3125 
Q 48.875 64.0625 45.09375 64.984375 
Q 41.3125 65.921875 37.59375 65.921875 
Q 27.828125 65.921875 22.671875 59.328125 
Q 17.53125 52.734375 16.796875 39.40625 
Q 19.671875 43.65625 24.015625 45.921875 
Q 28.375 48.1875 33.59375 48.1875 
Q 44.578125 48.1875 50.953125 41.515625 
Q 57.328125 34.859375 57.328125 23.390625 
Q 57.328125 12.15625 50.6875 5.359375 
Q 44.046875 -1.421875 33.015625 -1.421875 
Q 20.359375 -1.421875 13.671875 8.265625 
Q 6.984375 17.96875 6.984375 36.375 
Q 6.984375 53.65625 15.1875 63.9375 
Q 23.390625 74.21875 37.203125 74.21875 
Q 40.921875 74.21875 44.703125 73.484375 
Q 48.484375 72.75 52.59375 71.296875 
z
" id="DejaVuSans-54"/>
       </defs>
       <use xlink:href="#DejaVuSans-48"/>
       <use x="63.623047" xlink:href="#DejaVuSans-46"/>
       <use x="95.410156" xlink:href="#DejaVuSans-48"/>
       <use x="159.033203" xlink:href="#DejaVuSans-48"/>
       <use x="222.65625" xlink:href="#DejaVuSans-54"/>
      </g>
     </g>
    </g>
    <g id="ytick_5">
     <g id="line2d_12">
      <g>
       <use style="stroke:#000000;stroke-width:0.8;" x="57.6" xlink:href="#m9877aa0bb6" y="177.174417"/>
      </g>
     </g>
     <g id="text_12">
      <!-- 0.008 -->
      <g transform="translate(21.971875 180.973636)scale(0.1 -0.1)">
       <defs>
        <path d="M 31.78125 34.625 
Q 24.75 34.625 20.71875 30.859375 
Q 16.703125 27.09375 16.703125 20.515625 
Q 16.703125 13.921875 20.71875 10.15625 
Q 24.75 6.390625 31.78125 6.390625 
Q 38.8125 6.390625 42.859375 10.171875 
Q 46.921875 13.96875 46.921875 20.515625 
Q 46.921875 27.09375 42.890625 30.859375 
Q 38.875 34.625 31.78125 34.625 
z
M 21.921875 38.8125 
Q 15.578125 40.375 12.03125 44.71875 
Q 8.5 49.078125 8.5 55.328125 
Q 8.5 64.0625 14.71875 69.140625 
Q 20.953125 74.21875 31.78125 74.21875 
Q 42.671875 74.21875 48.875 69.140625 
Q 55.078125 64.0625 55.078125 55.328125 
Q 55.078125 49.078125 51.53125 44.71875 
Q 48 40.375 41.703125 38.8125 
Q 48.828125 37.15625 52.796875 32.3125 
Q 56.78125 27.484375 56.78125 20.515625 
Q 56.78125 9.90625 50.3125 4.234375 
Q 43.84375 -1.421875 31.78125 -1.421875 
Q 19.734375 -1.421875 13.25 4.234375 
Q 6.78125 9.90625 6.78125 20.515625 
Q 6.78125 27.484375 10.78125 32.3125 
Q 14.796875 37.15625 21.921875 38.8125 
z
M 18.3125 54.390625 
Q 18.3125 48.734375 21.84375 45.5625 
Q 25.390625 42.390625 31.78125 42.390625 
Q 38.140625 42.390625 41.71875 45.5625 
Q 45.3125 48.734375 45.3125 54.390625 
Q 45.3125 60.0625 41.71875 63.234375 
Q 38.140625 66.40625 31.78125 66.40625 
Q 25.390625 66.40625 21.84375 63.234375 
Q 18.3125 60.0625 18.3125 54.390625 
z
" id="DejaVuSans-56"/>
       </defs>
       <use xlink:href="#DejaVuSans-48"/>
       <use x="63.623047" xlink:href="#DejaVuSans-46"/>
       <use x="95.410156" xlink:href="#DejaVuSans-48"/>
       <use x="159.033203" xlink:href="#DejaVuSans-48"/>
       <use x="222.65625" xlink:href="#DejaVuSans-56"/>
      </g>
     </g>
    </g>
    <g id="ytick_6">
     <g id="line2d_13">
      <g>
       <use style="stroke:#000000;stroke-width:0.8;" x="57.6" xlink:href="#m9877aa0bb6" y="146.925135"/>
      </g>
     </g>
     <g id="text_13">
      <!-- 0.010 -->
      <g transform="translate(21.971875 150.724354)scale(0.1 -0.1)">
       <use xlink:href="#DejaVuSans-48"/>
       <use x="63.623047" xlink:href="#DejaVuSans-46"/>
       <use x="95.410156" xlink:href="#DejaVuSans-48"/>
       <use x="159.033203" xlink:href="#DejaVuSans-49"/>
       <use x="222.65625" xlink:href="#DejaVuSans-48"/>
      </g>
     </g>
    </g>
    <g id="ytick_7">
     <g id="line2d_14">
      <g>
       <use style="stroke:#000000;stroke-width:0.8;" x="57.6" xlink:href="#m9877aa0bb6" y="116.675852"/>
      </g>
     </g>
     <g id="text_14">
      <!-- 0.012 -->
      <g transform="translate(21.971875 120.475071)scale(0.1 -0.1)">
       <use xlink:href="#DejaVuSans-48"/>
       <use x="63.623047" xlink:href="#DejaVuSans-46"/>
       <use x="95.410156" xlink:href="#DejaVuSans-48"/>
       <use x="159.033203" xlink:href="#DejaVuSans-49"/>
       <use x="222.65625" xlink:href="#DejaVuSans-50"/>
      </g>
     </g>
    </g>
    <g id="ytick_8">
     <g id="line2d_15">
      <g>
       <use style="stroke:#000000;stroke-width:0.8;" x="57.6" xlink:href="#m9877aa0bb6" y="86.42657"/>
      </g>
     </g>
     <g id="text_15">
      <!-- 0.014 -->
      <g transform="translate(21.971875 90.225789)scale(0.1 -0.1)">
       <use xlink:href="#DejaVuSans-48"/>
       <use x="63.623047" xlink:href="#DejaVuSans-46"/>
       <use x="95.410156" xlink:href="#DejaVuSans-48"/>
       <use x="159.033203" xlink:href="#DejaVuSans-49"/>
       <use x="222.65625" xlink:href="#DejaVuSans-52"/>
      </g>
     </g>
    </g>
    <g id="ytick_9">
     <g id="line2d_16">
      <g>
       <use style="stroke:#000000;stroke-width:0.8;" x="57.6" xlink:href="#m9877aa0bb6" y="56.177287"/>
      </g>
     </g>
     <g id="text_16">
      <!-- 0.016 -->
      <g transform="translate(21.971875 59.976506)scale(0.1 -0.1)">
       <use xlink:href="#DejaVuSans-48"/>
       <use x="63.623047" xlink:href="#DejaVuSans-46"/>
       <use x="95.410156" xlink:href="#DejaVuSans-48"/>
       <use x="159.033203" xlink:href="#DejaVuSans-49"/>
       <use x="222.65625" xlink:href="#DejaVuSans-54"/>
      </g>
     </g>
    </g>
   </g>
   <g id="line2d_17">
    <defs>
     <path d="M 0 3 
C 0.795609 3 1.55874 2.683901 2.12132 2.12132 
C 2.683901 1.55874 3 0.795609 3 0 
C 3 -0.795609 2.683901 -1.55874 2.12132 -2.12132 
C 1.55874 -2.683901 0.795609 -3 0 -3 
C -0.795609 -3 -1.55874 -2.683901 -2.12132 -2.12132 
C -2.683901 -1.55874 -3 -0.795609 -3 0 
C -3 0.795609 -2.683901 1.55874 -2.12132 2.12132 
C -1.55874 2.683901 -0.795609 3 0 3 
z
" id="mfca6a17091" style="stroke:#ff0000;"/>
    </defs>
    <g clip-path="url(#p1a3965449e)">
     <use style="fill:#ff0000;stroke:#ff0000;" x="73.832727" xlink:href="#mfca6a17091" y="130.0184"/>
     <use style="fill:#ff0000;stroke:#ff0000;" x="85.027712" xlink:href="#mfca6a17091" y="131.12599"/>
     <use style="fill:#ff0000;stroke:#ff0000;" x="96.222696" xlink:href="#mfca6a17091" y="130.090703"/>
     <use style="fill:#ff0000;stroke:#ff0000;" x="107.41768" xlink:href="#mfca6a17091" y="130.593134"/>
     <use style="fill:#ff0000;stroke:#ff0000;" x="118.612665" xlink:href="#mfca6a17091" y="130.548087"/>
     <use style="fill:#ff0000;stroke:#ff0000;" x="129.807649" xlink:href="#mfca6a17091" y="130.994301"/>
     <use style="fill:#ff0000;stroke:#ff0000;" x="141.002633" xlink:href="#mfca6a17091" y="130.994259"/>
     <use style="fill:#ff0000;stroke:#ff0000;" x="152.197618" xlink:href="#mfca6a17091" y="131.694061"/>
     <use style="fill:#ff0000;stroke:#ff0000;" x="163.392602" xlink:href="#mfca6a17091" y="130.976609"/>
     <use style="fill:#ff0000;stroke:#ff0000;" x="174.587586" xlink:href="#mfca6a17091" y="131.838822"/>
     <use style="fill:#ff0000;stroke:#ff0000;" x="185.782571" xlink:href="#mfca6a17091" y="131.474081"/>
     <use style="fill:#ff0000;stroke:#ff0000;" x="196.977555" xlink:href="#mfca6a17091" y="131.669974"/>
     <use style="fill:#ff0000;stroke:#ff0000;" x="208.172539" xlink:href="#mfca6a17091" y="131.199096"/>
     <use style="fill:#ff0000;stroke:#ff0000;" x="219.367524" xlink:href="#mfca6a17091" y="131.850063"/>
     <use style="fill:#ff0000;stroke:#ff0000;" x="230.562508" xlink:href="#mfca6a17091" y="130.567822"/>
     <use style="fill:#ff0000;stroke:#ff0000;" x="241.757492" xlink:href="#mfca6a17091" y="131.464545"/>
     <use style="fill:#ff0000;stroke:#ff0000;" x="252.952476" xlink:href="#mfca6a17091" y="131.281062"/>
     <use style="fill:#ff0000;stroke:#ff0000;" x="264.147461" xlink:href="#mfca6a17091" y="131.5715"/>
     <use style="fill:#ff0000;stroke:#ff0000;" x="275.342445" xlink:href="#mfca6a17091" y="131.029642"/>
     <use style="fill:#ff0000;stroke:#ff0000;" x="286.537429" xlink:href="#mfca6a17091" y="131.875206"/>
     <use style="fill:#ff0000;stroke:#ff0000;" x="297.732414" xlink:href="#mfca6a17091" y="131.673834"/>
     <use style="fill:#ff0000;stroke:#ff0000;" x="308.927398" xlink:href="#mfca6a17091" y="131.504437"/>
     <use style="fill:#ff0000;stroke:#ff0000;" x="320.122382" xlink:href="#mfca6a17091" y="131.452967"/>
     <use style="fill:#ff0000;stroke:#ff0000;" x="331.317367" xlink:href="#mfca6a17091" y="131.583022"/>
     <use style="fill:#ff0000;stroke:#ff0000;" x="342.512351" xlink:href="#mfca6a17091" y="131.276583"/>
     <use style="fill:#ff0000;stroke:#ff0000;" x="353.707335" xlink:href="#mfca6a17091" y="131.538116"/>
     <use style="fill:#ff0000;stroke:#ff0000;" x="364.90232" xlink:href="#mfca6a17091" y="131.259018"/>
     <use style="fill:#ff0000;stroke:#ff0000;" x="376.097304" xlink:href="#mfca6a17091" y="131.272005"/>
     <use style="fill:#ff0000;stroke:#ff0000;" x="387.292288" xlink:href="#mfca6a17091" y="131.045433"/>
     <use style="fill:#ff0000;stroke:#ff0000;" x="398.487273" xlink:href="#mfca6a17091" y="131.487097"/>
    </g>
   </g>
   <g id="line2d_18">
    <path clip-path="url(#p1a3965449e)" d="M 73.832727 142.847208 
L 85.027712 109.766848 
L 96.222696 97.417933 
L 107.41768 129.994412 
L 118.612665 135.369571 
L 129.807649 142.448577 
L 141.002633 129.750585 
L 152.197618 144.060766 
L 163.392602 118.454691 
L 174.587586 127.576634 
L 185.782571 53.568 
L 196.977555 140.773775 
L 208.172539 167.329973 
L 219.367524 135.047271 
L 230.562508 108.815668 
L 241.757492 164.835301 
L 252.952476 105.372027 
L 264.147461 147.371436 
L 275.342445 123.773647 
L 286.537429 71.40762 
L 297.732414 109.97277 
L 308.927398 113.425792 
L 320.122382 145.909346 
L 331.317367 115.030784 
L 342.512351 124.250512 
L 353.707335 135.891327 
L 364.90232 130.892361 
L 376.097304 136.092559 
L 387.292288 83.990826 
L 398.487273 139.426907 
" style="fill:none;stroke:#ff0000;stroke-linecap:square;stroke-width:1.5;"/>
   </g>
   <g id="line2d_19">
    <defs>
     <path d="M 0 3 
C 0.795609 3 1.55874 2.683901 2.12132 2.12132 
C 2.683901 1.55874 3 0.795609 3 0 
C 3 -0.795609 2.683901 -1.55874 2.12132 -2.12132 
C 1.55874 -2.683901 0.795609 -3 0 -3 
C -0.795609 -3 -1.55874 -2.683901 -2.12132 -2.12132 
C -2.683901 -1.55874 -3 -0.795609 -3 0 
C -3 0.795609 -2.683901 1.55874 -2.12132 2.12132 
C -1.55874 2.683901 -0.795609 3 0 3 
z
" id="m00442976fe" style="stroke:#0000ff;"/>
    </defs>
    <g clip-path="url(#p1a3965449e)">
     <use style="fill:#0000ff;stroke:#0000ff;" x="73.832727" xlink:href="#m00442976fe" y="293.891974"/>
     <use style="fill:#0000ff;stroke:#0000ff;" x="85.027712" xlink:href="#m00442976fe" y="293.913988"/>
     <use style="fill:#0000ff;stroke:#0000ff;" x="96.222696" xlink:href="#m00442976fe" y="293.915738"/>
     <use style="fill:#0000ff;stroke:#0000ff;" x="107.41768" xlink:href="#m00442976fe" y="293.934901"/>
     <use style="fill:#0000ff;stroke:#0000ff;" x="118.612665" xlink:href="#m00442976fe" y="293.899915"/>
     <use style="fill:#0000ff;stroke:#0000ff;" x="129.807649" xlink:href="#m00442976fe" y="293.934464"/>
     <use style="fill:#0000ff;stroke:#0000ff;" x="141.002633" xlink:href="#m00442976fe" y="293.918099"/>
     <use style="fill:#0000ff;stroke:#0000ff;" x="152.197618" xlink:href="#m00442976fe" y="293.926729"/>
     <use style="fill:#0000ff;stroke:#0000ff;" x="163.392602" xlink:href="#m00442976fe" y="293.931149"/>
     <use style="fill:#0000ff;stroke:#0000ff;" x="174.587586" xlink:href="#m00442976fe" y="293.937367"/>
     <use style="fill:#0000ff;stroke:#0000ff;" x="185.782571" xlink:href="#m00442976fe" y="293.929861"/>
     <use style="fill:#0000ff;stroke:#0000ff;" x="196.977555" xlink:href="#m00442976fe" y="293.921743"/>
     <use style="fill:#0000ff;stroke:#0000ff;" x="208.172539" xlink:href="#m00442976fe" y="293.912367"/>
     <use style="fill:#0000ff;stroke:#0000ff;" x="219.367524" xlink:href="#m00442976fe" y="293.928081"/>
     <use style="fill:#0000ff;stroke:#0000ff;" x="230.562508" xlink:href="#m00442976fe" y="293.903344"/>
     <use style="fill:#0000ff;stroke:#0000ff;" x="241.757492" xlink:href="#m00442976fe" y="293.937484"/>
     <use style="fill:#0000ff;stroke:#0000ff;" x="252.952476" xlink:href="#m00442976fe" y="293.934593"/>
     <use style="fill:#0000ff;stroke:#0000ff;" x="264.147461" xlink:href="#m00442976fe" y="293.915664"/>
     <use style="fill:#0000ff;stroke:#0000ff;" x="275.342445" xlink:href="#m00442976fe" y="293.927069"/>
     <use style="fill:#0000ff;stroke:#0000ff;" x="286.537429" xlink:href="#m00442976fe" y="293.949787"/>
     <use style="fill:#0000ff;stroke:#0000ff;" x="297.732414" xlink:href="#m00442976fe" y="293.92676"/>
     <use style="fill:#0000ff;stroke:#0000ff;" x="308.927398" xlink:href="#m00442976fe" y="293.917442"/>
     <use style="fill:#0000ff;stroke:#0000ff;" x="320.122382" xlink:href="#m00442976fe" y="293.925785"/>
     <use style="fill:#0000ff;stroke:#0000ff;" x="331.317367" xlink:href="#m00442976fe" y="293.933016"/>
     <use style="fill:#0000ff;stroke:#0000ff;" x="342.512351" xlink:href="#m00442976fe" y="293.933456"/>
     <use style="fill:#0000ff;stroke:#0000ff;" x="353.707335" xlink:href="#m00442976fe" y="293.909379"/>
     <use style="fill:#0000ff;stroke:#0000ff;" x="364.90232" xlink:href="#m00442976fe" y="293.922891"/>
     <use style="fill:#0000ff;stroke:#0000ff;" x="376.097304" xlink:href="#m00442976fe" y="293.918694"/>
     <use style="fill:#0000ff;stroke:#0000ff;" x="387.292288" xlink:href="#m00442976fe" y="293.925762"/>
     <use style="fill:#0000ff;stroke:#0000ff;" x="398.487273" xlink:href="#m00442976fe" y="293.908986"/>
    </g>
   </g>
   <g id="line2d_20">
    <path clip-path="url(#p1a3965449e)" d="M 73.832727 294.275569 
L 85.027712 293.457635 
L 96.222696 292.447116 
L 107.41768 294.178957 
L 118.612665 294.443703 
L 129.807649 294.408566 
L 141.002633 294.187248 
L 152.197618 294.157794 
L 163.392602 293.271436 
L 174.587586 293.837901 
L 185.782571 290.502069 
L 196.977555 294.255547 
L 208.172539 295.488 
L 219.367524 294.576754 
L 230.562508 293.15408 
L 241.757492 294.688827 
L 252.952476 292.665677 
L 264.147461 294.585715 
L 275.342445 293.506094 
L 286.537429 291.65086 
L 297.732414 293.431233 
L 308.927398 293.763419 
L 320.122382 294.799758 
L 331.317367 292.761505 
L 342.512351 293.837631 
L 353.707335 294.511476 
L 364.90232 294.066817 
L 376.097304 294.710576 
L 387.292288 292.627119 
L 398.487273 294.361215 
" style="fill:none;stroke:#0000ff;stroke-linecap:square;stroke-width:1.5;"/>
   </g>
   <g id="patch_3">
    <path d="M 57.6 307.584 
L 57.6 41.472 
" style="fill:none;stroke:#000000;stroke-linecap:square;stroke-linejoin:miter;stroke-width:0.8;"/>
   </g>
   <g id="patch_4">
    <path d="M 414.72 307.584 
L 414.72 41.472 
" style="fill:none;stroke:#000000;stroke-linecap:square;stroke-linejoin:miter;stroke-width:0.8;"/>
   </g>
   <g id="patch_5">
    <path d="M 57.6 307.584 
L 414.72 307.584 
" style="fill:none;stroke:#000000;stroke-linecap:square;stroke-linejoin:miter;stroke-width:0.8;"/>
   </g>
   <g id="patch_6">
    <path d="M 57.6 41.472 
L 414.72 41.472 
" style="fill:none;stroke:#000000;stroke-linecap:square;stroke-linejoin:miter;stroke-width:0.8;"/>
   </g>
  </g>
 </g>
 <defs>
  <clipPath id="p1a3965449e">
   <rect height="266.112" width="357.12" x="57.6" y="41.472"/>
  </clipPath>
 </defs>
</svg>
