<?xml version="1.0" encoding="utf-8" standalone="no"?>
<!DOCTYPE svg PUBLIC "-//W3C//DTD SVG 1.1//EN"
  "http://www.w3.org/Graphics/SVG/1.1/DTD/svg11.dtd">
<!-- Created with matplotlib (https://matplotlib.org/) -->
<svg height="345.6pt" version="1.1" viewBox="0 0 460.8 345.6" width="460.8pt" xmlns="http://www.w3.org/2000/svg" xmlns:xlink="http://www.w3.org/1999/xlink">
 <defs>
  <style type="text/css">
*{stroke-linecap:butt;stroke-linejoin:round;}
  </style>
 </defs>
 <g id="figure_1">
  <g id="patch_1">
   <path d="M 0 345.6 
L 460.8 345.6 
L 460.8 0 
L 0 0 
z
" style="fill:#ffffff;"/>
  </g>
  <g id="axes_1">
   <g id="patch_2">
    <path d="M 57.6 307.584 
L 414.72 307.584 
L 414.72 41.472 
L 57.6 41.472 
z
" style="fill:#ffffff;"/>
   </g>
   <g id="matplotlib.axis_1">
    <g id="xtick_1">
     <g id="line2d_1">
      <defs>
       <path d="M 0 0 
L 0 3.5 
" id="m2b800e729e" style="stroke:#000000;stroke-width:0.8;"/>
      </defs>
      <g>
       <use style="stroke:#000000;stroke-width:0.8;" x="67.207124" xlink:href="#m2b800e729e" y="307.584"/>
      </g>
     </g>
     <g id="text_1">
      <!-- 0 -->
      <defs>
       <path d="M 31.78125 66.40625 
Q 24.171875 66.40625 20.328125 58.90625 
Q 16.5 51.421875 16.5 36.375 
Q 16.5 21.390625 20.328125 13.890625 
Q 24.171875 6.390625 31.78125 6.390625 
Q 39.453125 6.390625 43.28125 13.890625 
Q 47.125 21.390625 47.125 36.375 
Q 47.125 51.421875 43.28125 58.90625 
Q 39.453125 66.40625 31.78125 66.40625 
z
M 31.78125 74.21875 
Q 44.046875 74.21875 50.515625 64.515625 
Q 56.984375 54.828125 56.984375 36.375 
Q 56.984375 17.96875 50.515625 8.265625 
Q 44.046875 -1.421875 31.78125 -1.421875 
Q 19.53125 -1.421875 13.0625 8.265625 
Q 6.59375 17.96875 6.59375 36.375 
Q 6.59375 54.828125 13.0625 64.515625 
Q 19.53125 74.21875 31.78125 74.21875 
z
" id="DejaVuSans-48"/>
      </defs>
      <g transform="translate(64.025874 322.182437)scale(0.1 -0.1)">
       <use xlink:href="#DejaVuSans-48"/>
      </g>
     </g>
    </g>
    <g id="xtick_2">
     <g id="line2d_2">
      <g>
       <use style="stroke:#000000;stroke-width:0.8;" x="133.463154" xlink:href="#m2b800e729e" y="307.584"/>
      </g>
     </g>
     <g id="text_2">
      <!-- 10 -->
      <defs>
       <path d="M 12.40625 8.296875 
L 28.515625 8.296875 
L 28.515625 63.921875 
L 10.984375 60.40625 
L 10.984375 69.390625 
L 28.421875 72.90625 
L 38.28125 72.90625 
L 38.28125 8.296875 
L 54.390625 8.296875 
L 54.390625 0 
L 12.40625 0 
z
" id="DejaVuSans-49"/>
      </defs>
      <g transform="translate(127.100654 322.182437)scale(0.1 -0.1)">
       <use xlink:href="#DejaVuSans-49"/>
       <use x="63.623047" xlink:href="#DejaVuSans-48"/>
      </g>
     </g>
    </g>
    <g id="xtick_3">
     <g id="line2d_3">
      <g>
       <use style="stroke:#000000;stroke-width:0.8;" x="199.719184" xlink:href="#m2b800e729e" y="307.584"/>
      </g>
     </g>
     <g id="text_3">
      <!-- 20 -->
      <defs>
       <path d="M 19.1875 8.296875 
L 53.609375 8.296875 
L 53.609375 0 
L 7.328125 0 
L 7.328125 8.296875 
Q 12.9375 14.109375 22.625 23.890625 
Q 32.328125 33.6875 34.8125 36.53125 
Q 39.546875 41.84375 41.421875 45.53125 
Q 43.3125 49.21875 43.3125 52.78125 
Q 43.3125 58.59375 39.234375 62.25 
Q 35.15625 65.921875 28.609375 65.921875 
Q 23.96875 65.921875 18.8125 64.3125 
Q 13.671875 62.703125 7.8125 59.421875 
L 7.8125 69.390625 
Q 13.765625 71.78125 18.9375 73 
Q 24.125 74.21875 28.421875 74.21875 
Q 39.75 74.21875 46.484375 68.546875 
Q 53.21875 62.890625 53.21875 53.421875 
Q 53.21875 48.921875 51.53125 44.890625 
Q 49.859375 40.875 45.40625 35.40625 
Q 44.1875 33.984375 37.640625 27.21875 
Q 31.109375 20.453125 19.1875 8.296875 
z
" id="DejaVuSans-50"/>
      </defs>
      <g transform="translate(193.356684 322.182437)scale(0.1 -0.1)">
       <use xlink:href="#DejaVuSans-50"/>
       <use x="63.623047" xlink:href="#DejaVuSans-48"/>
      </g>
     </g>
    </g>
    <g id="xtick_4">
     <g id="line2d_4">
      <g>
       <use style="stroke:#000000;stroke-width:0.8;" x="265.975213" xlink:href="#m2b800e729e" y="307.584"/>
      </g>
     </g>
     <g id="text_4">
      <!-- 30 -->
      <defs>
       <path d="M 40.578125 39.3125 
Q 47.65625 37.796875 51.625 33 
Q 55.609375 28.21875 55.609375 21.1875 
Q 55.609375 10.40625 48.1875 4.484375 
Q 40.765625 -1.421875 27.09375 -1.421875 
Q 22.515625 -1.421875 17.65625 -0.515625 
Q 12.796875 0.390625 7.625 2.203125 
L 7.625 11.71875 
Q 11.71875 9.328125 16.59375 8.109375 
Q 21.484375 6.890625 26.8125 6.890625 
Q 36.078125 6.890625 40.9375 10.546875 
Q 45.796875 14.203125 45.796875 21.1875 
Q 45.796875 27.640625 41.28125 31.265625 
Q 36.765625 34.90625 28.71875 34.90625 
L 20.21875 34.90625 
L 20.21875 43.015625 
L 29.109375 43.015625 
Q 36.375 43.015625 40.234375 45.921875 
Q 44.09375 48.828125 44.09375 54.296875 
Q 44.09375 59.90625 40.109375 62.90625 
Q 36.140625 65.921875 28.71875 65.921875 
Q 24.65625 65.921875 20.015625 65.03125 
Q 15.375 64.15625 9.8125 62.3125 
L 9.8125 71.09375 
Q 15.4375 72.65625 20.34375 73.4375 
Q 25.25 74.21875 29.59375 74.21875 
Q 40.828125 74.21875 47.359375 69.109375 
Q 53.90625 64.015625 53.90625 55.328125 
Q 53.90625 49.265625 50.4375 45.09375 
Q 46.96875 40.921875 40.578125 39.3125 
z
" id="DejaVuSans-51"/>
      </defs>
      <g transform="translate(259.612713 322.182437)scale(0.1 -0.1)">
       <use xlink:href="#DejaVuSans-51"/>
       <use x="63.623047" xlink:href="#DejaVuSans-48"/>
      </g>
     </g>
    </g>
    <g id="xtick_5">
     <g id="line2d_5">
      <g>
       <use style="stroke:#000000;stroke-width:0.8;" x="332.231243" xlink:href="#m2b800e729e" y="307.584"/>
      </g>
     </g>
     <g id="text_5">
      <!-- 40 -->
      <defs>
       <path d="M 37.796875 64.3125 
L 12.890625 25.390625 
L 37.796875 25.390625 
z
M 35.203125 72.90625 
L 47.609375 72.90625 
L 47.609375 25.390625 
L 58.015625 25.390625 
L 58.015625 17.1875 
L 47.609375 17.1875 
L 47.609375 0 
L 37.796875 0 
L 37.796875 17.1875 
L 4.890625 17.1875 
L 4.890625 26.703125 
z
" id="DejaVuSans-52"/>
      </defs>
      <g transform="translate(325.868743 322.182437)scale(0.1 -0.1)">
       <use xlink:href="#DejaVuSans-52"/>
       <use x="63.623047" xlink:href="#DejaVuSans-48"/>
      </g>
     </g>
    </g>
    <g id="xtick_6">
     <g id="line2d_6">
      <g>
       <use style="stroke:#000000;stroke-width:0.8;" x="398.487273" xlink:href="#m2b800e729e" y="307.584"/>
      </g>
     </g>
     <g id="text_6">
      <!-- 50 -->
      <defs>
       <path d="M 10.796875 72.90625 
L 49.515625 72.90625 
L 49.515625 64.59375 
L 19.828125 64.59375 
L 19.828125 46.734375 
Q 21.96875 47.46875 24.109375 47.828125 
Q 26.265625 48.1875 28.421875 48.1875 
Q 40.625 48.1875 47.75 41.5 
Q 54.890625 34.8125 54.890625 23.390625 
Q 54.890625 11.625 47.5625 5.09375 
Q 40.234375 -1.421875 26.90625 -1.421875 
Q 22.3125 -1.421875 17.546875 -0.640625 
Q 12.796875 0.140625 7.71875 1.703125 
L 7.71875 11.625 
Q 12.109375 9.234375 16.796875 8.0625 
Q 21.484375 6.890625 26.703125 6.890625 
Q 35.15625 6.890625 40.078125 11.328125 
Q 45.015625 15.765625 45.015625 23.390625 
Q 45.015625 31 40.078125 35.4375 
Q 35.15625 39.890625 26.703125 39.890625 
Q 22.75 39.890625 18.8125 39.015625 
Q 14.890625 38.140625 10.796875 36.28125 
z
" id="DejaVuSans-53"/>
      </defs>
      <g transform="translate(392.124773 322.182437)scale(0.1 -0.1)">
       <use xlink:href="#DejaVuSans-53"/>
       <use x="63.623047" xlink:href="#DejaVuSans-48"/>
      </g>
     </g>
    </g>
   </g>
   <g id="matplotlib.axis_2">
    <g id="ytick_1">
     <g id="line2d_7">
      <defs>
       <path d="M 0 0 
L -3.5 0 
" id="m31443beea1" style="stroke:#000000;stroke-width:0.8;"/>
      </defs>
      <g>
       <use style="stroke:#000000;stroke-width:0.8;" x="57.6" xlink:href="#m31443beea1" y="300.042342"/>
      </g>
     </g>
     <g id="text_7">
      <!-- 0.00 -->
      <defs>
       <path d="M 10.6875 12.40625 
L 21 12.40625 
L 21 0 
L 10.6875 0 
z
" id="DejaVuSans-46"/>
      </defs>
      <g transform="translate(28.334375 303.841561)scale(0.1 -0.1)">
       <use xlink:href="#DejaVuSans-48"/>
       <use x="63.623047" xlink:href="#DejaVuSans-46"/>
       <use x="95.410156" xlink:href="#DejaVuSans-48"/>
       <use x="159.033203" xlink:href="#DejaVuSans-48"/>
      </g>
     </g>
    </g>
    <g id="ytick_2">
     <g id="line2d_8">
      <g>
       <use style="stroke:#000000;stroke-width:0.8;" x="57.6" xlink:href="#m31443beea1" y="242.948026"/>
      </g>
     </g>
     <g id="text_8">
      <!-- 0.01 -->
      <g transform="translate(28.334375 246.747245)scale(0.1 -0.1)">
       <use xlink:href="#DejaVuSans-48"/>
       <use x="63.623047" xlink:href="#DejaVuSans-46"/>
       <use x="95.410156" xlink:href="#DejaVuSans-48"/>
       <use x="159.033203" xlink:href="#DejaVuSans-49"/>
      </g>
     </g>
    </g>
    <g id="ytick_3">
     <g id="line2d_9">
      <g>
       <use style="stroke:#000000;stroke-width:0.8;" x="57.6" xlink:href="#m31443beea1" y="185.85371"/>
      </g>
     </g>
     <g id="text_9">
      <!-- 0.02 -->
      <g transform="translate(28.334375 189.652928)scale(0.1 -0.1)">
       <use xlink:href="#DejaVuSans-48"/>
       <use x="63.623047" xlink:href="#DejaVuSans-46"/>
       <use x="95.410156" xlink:href="#DejaVuSans-48"/>
       <use x="159.033203" xlink:href="#DejaVuSans-50"/>
      </g>
     </g>
    </g>
    <g id="ytick_4">
     <g id="line2d_10">
      <g>
       <use style="stroke:#000000;stroke-width:0.8;" x="57.6" xlink:href="#m31443beea1" y="128.759393"/>
      </g>
     </g>
     <g id="text_10">
      <!-- 0.03 -->
      <g transform="translate(28.334375 132.558612)scale(0.1 -0.1)">
       <use xlink:href="#DejaVuSans-48"/>
       <use x="63.623047" xlink:href="#DejaVuSans-46"/>
       <use x="95.410156" xlink:href="#DejaVuSans-48"/>
       <use x="159.033203" xlink:href="#DejaVuSans-51"/>
      </g>
     </g>
    </g>
    <g id="ytick_5">
     <g id="line2d_11">
      <g>
       <use style="stroke:#000000;stroke-width:0.8;" x="57.6" xlink:href="#m31443beea1" y="71.665077"/>
      </g>
     </g>
     <g id="text_11">
      <!-- 0.04 -->
      <g transform="translate(28.334375 75.464296)scale(0.1 -0.1)">
       <use xlink:href="#DejaVuSans-48"/>
       <use x="63.623047" xlink:href="#DejaVuSans-46"/>
       <use x="95.410156" xlink:href="#DejaVuSans-48"/>
       <use x="159.033203" xlink:href="#DejaVuSans-52"/>
      </g>
     </g>
    </g>
   </g>
   <g id="line2d_12">
    <defs>
     <path d="M 0 3 
C 0.795609 3 1.55874 2.683901 2.12132 2.12132 
C 2.683901 1.55874 3 0.795609 3 0 
C 3 -0.795609 2.683901 -1.55874 2.12132 -2.12132 
C 1.55874 -2.683901 0.795609 -3 0 -3 
C -0.795609 -3 -1.55874 -2.683901 -2.12132 -2.12132 
C -2.683901 -1.55874 -3 -0.795609 -3 0 
C -3 0.795609 -2.683901 1.55874 -2.12132 2.12132 
C -1.55874 2.683901 -0.795609 3 0 3 
z
" id="me48379623c" style="stroke:#ff0000;"/>
    </defs>
    <g clip-path="url(#p2eebd0efc4)">
     <use style="fill:#ff0000;stroke:#ff0000;" x="73.832727" xlink:href="#me48379623c" y="53.568"/>
     <use style="fill:#ff0000;stroke:#ff0000;" x="80.45833" xlink:href="#me48379623c" y="149.172971"/>
     <use style="fill:#ff0000;stroke:#ff0000;" x="87.083933" xlink:href="#me48379623c" y="177.921458"/>
     <use style="fill:#ff0000;stroke:#ff0000;" x="93.709536" xlink:href="#me48379623c" y="192.149263"/>
     <use style="fill:#ff0000;stroke:#ff0000;" x="100.335139" xlink:href="#me48379623c" y="204.268504"/>
     <use style="fill:#ff0000;stroke:#ff0000;" x="106.960742" xlink:href="#me48379623c" y="212.996251"/>
     <use style="fill:#ff0000;stroke:#ff0000;" x="113.586345" xlink:href="#me48379623c" y="217.141024"/>
     <use style="fill:#ff0000;stroke:#ff0000;" x="120.211948" xlink:href="#me48379623c" y="224.111391"/>
     <use style="fill:#ff0000;stroke:#ff0000;" x="126.837551" xlink:href="#me48379623c" y="228.435831"/>
     <use style="fill:#ff0000;stroke:#ff0000;" x="133.463154" xlink:href="#me48379623c" y="232.317865"/>
     <use style="fill:#ff0000;stroke:#ff0000;" x="140.088757" xlink:href="#me48379623c" y="235.961996"/>
     <use style="fill:#ff0000;stroke:#ff0000;" x="146.71436" xlink:href="#me48379623c" y="236.697105"/>
     <use style="fill:#ff0000;stroke:#ff0000;" x="153.339963" xlink:href="#me48379623c" y="237.14199"/>
     <use style="fill:#ff0000;stroke:#ff0000;" x="159.965566" xlink:href="#me48379623c" y="238.225649"/>
     <use style="fill:#ff0000;stroke:#ff0000;" x="166.591169" xlink:href="#me48379623c" y="238.61123"/>
     <use style="fill:#ff0000;stroke:#ff0000;" x="173.216772" xlink:href="#me48379623c" y="239.866516"/>
     <use style="fill:#ff0000;stroke:#ff0000;" x="179.842375" xlink:href="#me48379623c" y="240.522483"/>
     <use style="fill:#ff0000;stroke:#ff0000;" x="186.467978" xlink:href="#me48379623c" y="241.281945"/>
     <use style="fill:#ff0000;stroke:#ff0000;" x="193.093581" xlink:href="#me48379623c" y="241.651595"/>
     <use style="fill:#ff0000;stroke:#ff0000;" x="199.719184" xlink:href="#me48379623c" y="242.79089"/>
     <use style="fill:#ff0000;stroke:#ff0000;" x="206.344787" xlink:href="#me48379623c" y="242.442818"/>
     <use style="fill:#ff0000;stroke:#ff0000;" x="212.97039" xlink:href="#me48379623c" y="243.854046"/>
     <use style="fill:#ff0000;stroke:#ff0000;" x="219.595993" xlink:href="#me48379623c" y="244.512878"/>
     <use style="fill:#ff0000;stroke:#ff0000;" x="226.221596" xlink:href="#me48379623c" y="245.746832"/>
     <use style="fill:#ff0000;stroke:#ff0000;" x="232.847199" xlink:href="#me48379623c" y="246.669425"/>
     <use style="fill:#ff0000;stroke:#ff0000;" x="239.472801" xlink:href="#me48379623c" y="247.435486"/>
     <use style="fill:#ff0000;stroke:#ff0000;" x="246.098404" xlink:href="#me48379623c" y="247.824437"/>
     <use style="fill:#ff0000;stroke:#ff0000;" x="252.724007" xlink:href="#me48379623c" y="248.543089"/>
     <use style="fill:#ff0000;stroke:#ff0000;" x="259.34961" xlink:href="#me48379623c" y="248.966933"/>
     <use style="fill:#ff0000;stroke:#ff0000;" x="265.975213" xlink:href="#me48379623c" y="249.16294"/>
     <use style="fill:#ff0000;stroke:#ff0000;" x="272.600816" xlink:href="#me48379623c" y="250.675782"/>
     <use style="fill:#ff0000;stroke:#ff0000;" x="279.226419" xlink:href="#me48379623c" y="250.913366"/>
     <use style="fill:#ff0000;stroke:#ff0000;" x="285.852022" xlink:href="#me48379623c" y="251.073614"/>
     <use style="fill:#ff0000;stroke:#ff0000;" x="292.477625" xlink:href="#me48379623c" y="252.045519"/>
     <use style="fill:#ff0000;stroke:#ff0000;" x="299.103228" xlink:href="#me48379623c" y="252.559364"/>
     <use style="fill:#ff0000;stroke:#ff0000;" x="305.728831" xlink:href="#me48379623c" y="252.532687"/>
     <use style="fill:#ff0000;stroke:#ff0000;" x="312.354434" xlink:href="#me48379623c" y="253.975463"/>
     <use style="fill:#ff0000;stroke:#ff0000;" x="318.980037" xlink:href="#me48379623c" y="254.090684"/>
     <use style="fill:#ff0000;stroke:#ff0000;" x="325.60564" xlink:href="#me48379623c" y="253.963153"/>
     <use style="fill:#ff0000;stroke:#ff0000;" x="332.231243" xlink:href="#me48379623c" y="254.368791"/>
     <use style="fill:#ff0000;stroke:#ff0000;" x="338.856846" xlink:href="#me48379623c" y="254.345219"/>
     <use style="fill:#ff0000;stroke:#ff0000;" x="345.482449" xlink:href="#me48379623c" y="254.841086"/>
     <use style="fill:#ff0000;stroke:#ff0000;" x="352.108052" xlink:href="#me48379623c" y="254.932788"/>
     <use style="fill:#ff0000;stroke:#ff0000;" x="358.733655" xlink:href="#me48379623c" y="255.180469"/>
     <use style="fill:#ff0000;stroke:#ff0000;" x="365.359258" xlink:href="#me48379623c" y="255.097955"/>
     <use style="fill:#ff0000;stroke:#ff0000;" x="371.984861" xlink:href="#me48379623c" y="255.426225"/>
     <use style="fill:#ff0000;stroke:#ff0000;" x="378.610464" xlink:href="#me48379623c" y="255.724708"/>
     <use style="fill:#ff0000;stroke:#ff0000;" x="385.236067" xlink:href="#me48379623c" y="255.627486"/>
     <use style="fill:#ff0000;stroke:#ff0000;" x="391.86167" xlink:href="#me48379623c" y="255.884135"/>
     <use style="fill:#ff0000;stroke:#ff0000;" x="398.487273" xlink:href="#me48379623c" y="256.207202"/>
    </g>
   </g>
   <g id="line2d_13">
    <path clip-path="url(#p2eebd0efc4)" d="M 73.832727 122.775463 
L 80.45833 207.487792 
L 87.083933 125.684836 
L 93.709536 172.771046 
L 100.335139 192.861263 
L 106.960742 171.538799 
L 113.586345 225.052594 
L 120.211948 213.415687 
L 126.837551 211.577042 
L 133.463154 228.080628 
L 140.088757 249.059067 
L 146.71436 239.571001 
L 153.339963 239.993967 
L 159.965566 237.847481 
L 166.591169 263.804603 
L 173.216772 238.093838 
L 179.842375 225.562153 
L 186.467978 235.968526 
L 193.093581 262.179353 
L 199.719184 237.049872 
L 206.344787 254.495258 
L 212.97039 241.087491 
L 219.595993 261.369213 
L 226.221596 261.603393 
L 232.847199 259.52763 
L 239.472801 252.543832 
L 246.098404 233.329443 
L 252.724007 251.497569 
L 259.34961 263.339598 
L 265.975213 245.076807 
L 272.600816 243.94912 
L 279.226419 255.592458 
L 285.852022 263.231765 
L 292.477625 258.328542 
L 299.103228 262.547684 
L 305.728831 243.30105 
L 312.354434 231.253002 
L 318.980037 251.962314 
L 325.60564 260.508001 
L 332.231243 260.060631 
L 338.856846 254.19434 
L 345.482449 261.218092 
L 352.108052 263.381929 
L 358.733655 252.846877 
L 365.359258 257.136316 
L 371.984861 262.895535 
L 378.610464 261.62771 
L 385.236067 267.495832 
L 391.86167 269.091933 
L 398.487273 255.65922 
" style="fill:none;stroke:#ff0000;stroke-linecap:square;stroke-width:1.5;"/>
   </g>
   <g id="line2d_14">
    <defs>
     <path d="M 0 3 
C 0.795609 3 1.55874 2.683901 2.12132 2.12132 
C 2.683901 1.55874 3 0.795609 3 0 
C 3 -0.795609 2.683901 -1.55874 2.12132 -2.12132 
C 1.55874 -2.683901 0.795609 -3 0 -3 
C -0.795609 -3 -1.55874 -2.683901 -2.12132 -2.12132 
C -2.683901 -1.55874 -3 -0.795609 -3 0 
C -3 0.795609 -2.683901 1.55874 -2.12132 2.12132 
C -1.55874 2.683901 -0.795609 3 0 3 
z
" id="m0543a59cf5" style="stroke:#0000ff;"/>
    </defs>
    <g clip-path="url(#p2eebd0efc4)">
     <use style="fill:#0000ff;stroke:#0000ff;" x="73.832727" xlink:href="#m0543a59cf5" y="273.469483"/>
     <use style="fill:#0000ff;stroke:#0000ff;" x="80.45833" xlink:href="#m0543a59cf5" y="288.700415"/>
     <use style="fill:#0000ff;stroke:#0000ff;" x="87.083933" xlink:href="#m0543a59cf5" y="290.998328"/>
     <use style="fill:#0000ff;stroke:#0000ff;" x="93.709536" xlink:href="#m0543a59cf5" y="291.939286"/>
     <use style="fill:#0000ff;stroke:#0000ff;" x="100.335139" xlink:href="#m0543a59cf5" y="292.758167"/>
     <use style="fill:#0000ff;stroke:#0000ff;" x="106.960742" xlink:href="#m0543a59cf5" y="293.281204"/>
     <use style="fill:#0000ff;stroke:#0000ff;" x="113.586345" xlink:href="#m0543a59cf5" y="293.610613"/>
     <use style="fill:#0000ff;stroke:#0000ff;" x="120.211948" xlink:href="#m0543a59cf5" y="293.899733"/>
     <use style="fill:#0000ff;stroke:#0000ff;" x="126.837551" xlink:href="#m0543a59cf5" y="294.051861"/>
     <use style="fill:#0000ff;stroke:#0000ff;" x="133.463154" xlink:href="#m0543a59cf5" y="294.245384"/>
     <use style="fill:#0000ff;stroke:#0000ff;" x="140.088757" xlink:href="#m0543a59cf5" y="294.419106"/>
     <use style="fill:#0000ff;stroke:#0000ff;" x="146.71436" xlink:href="#m0543a59cf5" y="294.424497"/>
     <use style="fill:#0000ff;stroke:#0000ff;" x="153.339963" xlink:href="#m0543a59cf5" y="294.481789"/>
     <use style="fill:#0000ff;stroke:#0000ff;" x="159.965566" xlink:href="#m0543a59cf5" y="294.563647"/>
     <use style="fill:#0000ff;stroke:#0000ff;" x="166.591169" xlink:href="#m0543a59cf5" y="294.665916"/>
     <use style="fill:#0000ff;stroke:#0000ff;" x="173.216772" xlink:href="#m0543a59cf5" y="294.741392"/>
     <use style="fill:#0000ff;stroke:#0000ff;" x="179.842375" xlink:href="#m0543a59cf5" y="294.714716"/>
     <use style="fill:#0000ff;stroke:#0000ff;" x="186.467978" xlink:href="#m0543a59cf5" y="294.746532"/>
     <use style="fill:#0000ff;stroke:#0000ff;" x="193.093581" xlink:href="#m0543a59cf5" y="294.790705"/>
     <use style="fill:#0000ff;stroke:#0000ff;" x="199.719184" xlink:href="#m0543a59cf5" y="294.802367"/>
     <use style="fill:#0000ff;stroke:#0000ff;" x="206.344787" xlink:href="#m0543a59cf5" y="294.797598"/>
     <use style="fill:#0000ff;stroke:#0000ff;" x="212.97039" xlink:href="#m0543a59cf5" y="294.841801"/>
     <use style="fill:#0000ff;stroke:#0000ff;" x="219.595993" xlink:href="#m0543a59cf5" y="294.90145"/>
     <use style="fill:#0000ff;stroke:#0000ff;" x="226.221596" xlink:href="#m0543a59cf5" y="294.962984"/>
     <use style="fill:#0000ff;stroke:#0000ff;" x="232.847199" xlink:href="#m0543a59cf5" y="294.946282"/>
     <use style="fill:#0000ff;stroke:#0000ff;" x="239.472801" xlink:href="#m0543a59cf5" y="294.936631"/>
     <use style="fill:#0000ff;stroke:#0000ff;" x="246.098404" xlink:href="#m0543a59cf5" y="295.001267"/>
     <use style="fill:#0000ff;stroke:#0000ff;" x="252.724007" xlink:href="#m0543a59cf5" y="295.006391"/>
     <use style="fill:#0000ff;stroke:#0000ff;" x="259.34961" xlink:href="#m0543a59cf5" y="295.081905"/>
     <use style="fill:#0000ff;stroke:#0000ff;" x="265.975213" xlink:href="#m0543a59cf5" y="295.010809"/>
     <use style="fill:#0000ff;stroke:#0000ff;" x="272.600816" xlink:href="#m0543a59cf5" y="295.07191"/>
     <use style="fill:#0000ff;stroke:#0000ff;" x="279.226419" xlink:href="#m0543a59cf5" y="295.12876"/>
     <use style="fill:#0000ff;stroke:#0000ff;" x="285.852022" xlink:href="#m0543a59cf5" y="295.096396"/>
     <use style="fill:#0000ff;stroke:#0000ff;" x="292.477625" xlink:href="#m0543a59cf5" y="295.066226"/>
     <use style="fill:#0000ff;stroke:#0000ff;" x="299.103228" xlink:href="#m0543a59cf5" y="295.184928"/>
     <use style="fill:#0000ff;stroke:#0000ff;" x="305.728831" xlink:href="#m0543a59cf5" y="295.122926"/>
     <use style="fill:#0000ff;stroke:#0000ff;" x="312.354434" xlink:href="#m0543a59cf5" y="295.18122"/>
     <use style="fill:#0000ff;stroke:#0000ff;" x="318.980037" xlink:href="#m0543a59cf5" y="295.195004"/>
     <use style="fill:#0000ff;stroke:#0000ff;" x="325.60564" xlink:href="#m0543a59cf5" y="295.211445"/>
     <use style="fill:#0000ff;stroke:#0000ff;" x="332.231243" xlink:href="#m0543a59cf5" y="295.227088"/>
     <use style="fill:#0000ff;stroke:#0000ff;" x="338.856846" xlink:href="#m0543a59cf5" y="295.208826"/>
     <use style="fill:#0000ff;stroke:#0000ff;" x="345.482449" xlink:href="#m0543a59cf5" y="295.24847"/>
     <use style="fill:#0000ff;stroke:#0000ff;" x="352.108052" xlink:href="#m0543a59cf5" y="295.223858"/>
     <use style="fill:#0000ff;stroke:#0000ff;" x="358.733655" xlink:href="#m0543a59cf5" y="295.280169"/>
     <use style="fill:#0000ff;stroke:#0000ff;" x="365.359258" xlink:href="#m0543a59cf5" y="295.194071"/>
     <use style="fill:#0000ff;stroke:#0000ff;" x="371.984861" xlink:href="#m0543a59cf5" y="295.284381"/>
     <use style="fill:#0000ff;stroke:#0000ff;" x="378.610464" xlink:href="#m0543a59cf5" y="295.280214"/>
     <use style="fill:#0000ff;stroke:#0000ff;" x="385.236067" xlink:href="#m0543a59cf5" y="295.26077"/>
     <use style="fill:#0000ff;stroke:#0000ff;" x="391.86167" xlink:href="#m0543a59cf5" y="295.25224"/>
     <use style="fill:#0000ff;stroke:#0000ff;" x="398.487273" xlink:href="#m0543a59cf5" y="295.275296"/>
    </g>
   </g>
   <g id="line2d_15">
    <path clip-path="url(#p2eebd0efc4)" d="M 73.832727 285.635208 
L 80.45833 291.845852 
L 87.083933 287.753457 
L 93.709536 290.667427 
L 100.335139 291.756747 
L 106.960742 292.262245 
L 113.586345 293.782238 
L 120.211948 293.200226 
L 126.837551 293.607132 
L 133.463154 294.094208 
L 140.088757 294.785164 
L 146.71436 294.476589 
L 153.339963 293.777387 
L 159.965566 294.315987 
L 166.591169 295.105831 
L 173.216772 294.802317 
L 179.842375 292.952142 
L 186.467978 294.166238 
L 193.093581 294.845264 
L 199.719184 294.774503 
L 206.344787 295.135401 
L 212.97039 294.660229 
L 219.595993 294.779862 
L 226.221596 295.143103 
L 232.847199 295.025132 
L 239.472801 294.788903 
L 246.098404 294.74435 
L 252.724007 294.680796 
L 259.34961 294.397406 
L 265.975213 294.194146 
L 272.600816 294.960184 
L 279.226419 295.101128 
L 285.852022 294.424516 
L 292.477625 295.150352 
L 299.103228 294.453558 
L 305.728831 293.812826 
L 312.354434 294.374584 
L 318.980037 295.202709 
L 325.60564 293.877182 
L 332.231243 294.711801 
L 338.856846 295.004708 
L 345.482449 294.759416 
L 352.108052 294.872549 
L 358.733655 294.767867 
L 365.359258 295.211506 
L 371.984861 295.170369 
L 378.610464 294.308669 
L 385.236067 295.488 
L 391.86167 294.997337 
L 398.487273 294.930408 
" style="fill:none;stroke:#0000ff;stroke-linecap:square;stroke-width:1.5;"/>
   </g>
   <g id="patch_3">
    <path d="M 57.6 307.584 
L 57.6 41.472 
" style="fill:none;stroke:#000000;stroke-linecap:square;stroke-linejoin:miter;stroke-width:0.8;"/>
   </g>
   <g id="patch_4">
    <path d="M 414.72 307.584 
L 414.72 41.472 
" style="fill:none;stroke:#000000;stroke-linecap:square;stroke-linejoin:miter;stroke-width:0.8;"/>
   </g>
   <g id="patch_5">
    <path d="M 57.6 307.584 
L 414.72 307.584 
" style="fill:none;stroke:#000000;stroke-linecap:square;stroke-linejoin:miter;stroke-width:0.8;"/>
   </g>
   <g id="patch_6">
    <path d="M 57.6 41.472 
L 414.72 41.472 
" style="fill:none;stroke:#000000;stroke-linecap:square;stroke-linejoin:miter;stroke-width:0.8;"/>
   </g>
  </g>
 </g>
 <defs>
  <clipPath id="p2eebd0efc4">
   <rect height="266.112" width="357.12" x="57.6" y="41.472"/>
  </clipPath>
 </defs>
</svg>
