<?xml version="1.0" encoding="utf-8" standalone="no"?>
<!DOCTYPE svg PUBLIC "-//W3C//DTD SVG 1.1//EN"
  "http://www.w3.org/Graphics/SVG/1.1/DTD/svg11.dtd">
<!-- Created with matplotlib (https://matplotlib.org/) -->
<svg height="345.6pt" version="1.1" viewBox="0 0 460.8 345.6" width="460.8pt" xmlns="http://www.w3.org/2000/svg" xmlns:xlink="http://www.w3.org/1999/xlink">
 <metadata>
  <rdf:RDF xmlns:cc="http://creativecommons.org/ns#" xmlns:dc="http://purl.org/dc/elements/1.1/" xmlns:rdf="http://www.w3.org/1999/02/22-rdf-syntax-ns#">
   <cc:Work>
    <dc:type rdf:resource="http://purl.org/dc/dcmitype/StillImage"/>
    <dc:date>2021-09-02T14:35:23.343103</dc:date>
    <dc:format>image/svg+xml</dc:format>
    <dc:creator>
     <cc:Agent>
      <dc:title>Matplotlib v3.3.4, https://matplotlib.org/</dc:title>
     </cc:Agent>
    </dc:creator>
   </cc:Work>
  </rdf:RDF>
 </metadata>
 <defs>
  <style type="text/css">*{stroke-linecap:butt;stroke-linejoin:round;}</style>
 </defs>
 <g id="figure_1">
  <g id="patch_1">
   <path d="M 0 345.6 
L 460.8 345.6 
L 460.8 0 
L 0 0 
z
" style="fill:#ffffff;"/>
  </g>
  <g id="axes_1">
   <g id="patch_2">
    <path d="M 57.6 307.584 
L 414.72 307.584 
L 414.72 41.472 
L 57.6 41.472 
z
" style="fill:#ffffff;"/>
   </g>
   <g id="matplotlib.axis_1">
    <g id="xtick_1">
     <g id="line2d_1">
      <defs>
       <path d="M 0 0 
L 0 3.5 
" id="m7ee47ff45a" style="stroke:#000000;stroke-width:0.8;"/>
      </defs>
      <g>
       <use style="stroke:#000000;stroke-width:0.8;" x="62.637743" xlink:href="#m7ee47ff45a" y="307.584"/>
      </g>
     </g>
     <g id="text_1">
      <!-- 0 -->
      <g transform="translate(59.456493 322.182437)scale(0.1 -0.1)">
       <defs>
        <path d="M 31.78125 66.40625 
Q 24.171875 66.40625 20.328125 58.90625 
Q 16.5 51.421875 16.5 36.375 
Q 16.5 21.390625 20.328125 13.890625 
Q 24.171875 6.390625 31.78125 6.390625 
Q 39.453125 6.390625 43.28125 13.890625 
Q 47.125 21.390625 47.125 36.375 
Q 47.125 51.421875 43.28125 58.90625 
Q 39.453125 66.40625 31.78125 66.40625 
z
M 31.78125 74.21875 
Q 44.046875 74.21875 50.515625 64.515625 
Q 56.984375 54.828125 56.984375 36.375 
Q 56.984375 17.96875 50.515625 8.265625 
Q 44.046875 -1.421875 31.78125 -1.421875 
Q 19.53125 -1.421875 13.0625 8.265625 
Q 6.59375 17.96875 6.59375 36.375 
Q 6.59375 54.828125 13.0625 64.515625 
Q 19.53125 74.21875 31.78125 74.21875 
z
" id="DejaVuSans-48"/>
       </defs>
       <use xlink:href="#DejaVuSans-48"/>
      </g>
     </g>
    </g>
    <g id="xtick_2">
     <g id="line2d_2">
      <g>
       <use style="stroke:#000000;stroke-width:0.8;" x="118.612665" xlink:href="#m7ee47ff45a" y="307.584"/>
      </g>
     </g>
     <g id="text_2">
      <!-- 5 -->
      <g transform="translate(115.431415 322.182437)scale(0.1 -0.1)">
       <defs>
        <path d="M 10.796875 72.90625 
L 49.515625 72.90625 
L 49.515625 64.59375 
L 19.828125 64.59375 
L 19.828125 46.734375 
Q 21.96875 47.46875 24.109375 47.828125 
Q 26.265625 48.1875 28.421875 48.1875 
Q 40.625 48.1875 47.75 41.5 
Q 54.890625 34.8125 54.890625 23.390625 
Q 54.890625 11.625 47.5625 5.09375 
Q 40.234375 -1.421875 26.90625 -1.421875 
Q 22.3125 -1.421875 17.546875 -0.640625 
Q 12.796875 0.140625 7.71875 1.703125 
L 7.71875 11.625 
Q 12.109375 9.234375 16.796875 8.0625 
Q 21.484375 6.890625 26.703125 6.890625 
Q 35.15625 6.890625 40.078125 11.328125 
Q 45.015625 15.765625 45.015625 23.390625 
Q 45.015625 31 40.078125 35.4375 
Q 35.15625 39.890625 26.703125 39.890625 
Q 22.75 39.890625 18.8125 39.015625 
Q 14.890625 38.140625 10.796875 36.28125 
z
" id="DejaVuSans-53"/>
       </defs>
       <use xlink:href="#DejaVuSans-53"/>
      </g>
     </g>
    </g>
    <g id="xtick_3">
     <g id="line2d_3">
      <g>
       <use style="stroke:#000000;stroke-width:0.8;" x="174.587586" xlink:href="#m7ee47ff45a" y="307.584"/>
      </g>
     </g>
     <g id="text_3">
      <!-- 10 -->
      <g transform="translate(168.225086 322.182437)scale(0.1 -0.1)">
       <defs>
        <path d="M 12.40625 8.296875 
L 28.515625 8.296875 
L 28.515625 63.921875 
L 10.984375 60.40625 
L 10.984375 69.390625 
L 28.421875 72.90625 
L 38.28125 72.90625 
L 38.28125 8.296875 
L 54.390625 8.296875 
L 54.390625 0 
L 12.40625 0 
z
" id="DejaVuSans-49"/>
       </defs>
       <use xlink:href="#DejaVuSans-49"/>
       <use x="63.623047" xlink:href="#DejaVuSans-48"/>
      </g>
     </g>
    </g>
    <g id="xtick_4">
     <g id="line2d_4">
      <g>
       <use style="stroke:#000000;stroke-width:0.8;" x="230.562508" xlink:href="#m7ee47ff45a" y="307.584"/>
      </g>
     </g>
     <g id="text_4">
      <!-- 15 -->
      <g transform="translate(224.200008 322.182437)scale(0.1 -0.1)">
       <use xlink:href="#DejaVuSans-49"/>
       <use x="63.623047" xlink:href="#DejaVuSans-53"/>
      </g>
     </g>
    </g>
    <g id="xtick_5">
     <g id="line2d_5">
      <g>
       <use style="stroke:#000000;stroke-width:0.8;" x="286.537429" xlink:href="#m7ee47ff45a" y="307.584"/>
      </g>
     </g>
     <g id="text_5">
      <!-- 20 -->
      <g transform="translate(280.174929 322.182437)scale(0.1 -0.1)">
       <defs>
        <path d="M 19.1875 8.296875 
L 53.609375 8.296875 
L 53.609375 0 
L 7.328125 0 
L 7.328125 8.296875 
Q 12.9375 14.109375 22.625 23.890625 
Q 32.328125 33.6875 34.8125 36.53125 
Q 39.546875 41.84375 41.421875 45.53125 
Q 43.3125 49.21875 43.3125 52.78125 
Q 43.3125 58.59375 39.234375 62.25 
Q 35.15625 65.921875 28.609375 65.921875 
Q 23.96875 65.921875 18.8125 64.3125 
Q 13.671875 62.703125 7.8125 59.421875 
L 7.8125 69.390625 
Q 13.765625 71.78125 18.9375 73 
Q 24.125 74.21875 28.421875 74.21875 
Q 39.75 74.21875 46.484375 68.546875 
Q 53.21875 62.890625 53.21875 53.421875 
Q 53.21875 48.921875 51.53125 44.890625 
Q 49.859375 40.875 45.40625 35.40625 
Q 44.1875 33.984375 37.640625 27.21875 
Q 31.109375 20.453125 19.1875 8.296875 
z
" id="DejaVuSans-50"/>
       </defs>
       <use xlink:href="#DejaVuSans-50"/>
       <use x="63.623047" xlink:href="#DejaVuSans-48"/>
      </g>
     </g>
    </g>
    <g id="xtick_6">
     <g id="line2d_6">
      <g>
       <use style="stroke:#000000;stroke-width:0.8;" x="342.512351" xlink:href="#m7ee47ff45a" y="307.584"/>
      </g>
     </g>
     <g id="text_6">
      <!-- 25 -->
      <g transform="translate(336.149851 322.182437)scale(0.1 -0.1)">
       <use xlink:href="#DejaVuSans-50"/>
       <use x="63.623047" xlink:href="#DejaVuSans-53"/>
      </g>
     </g>
    </g>
    <g id="xtick_7">
     <g id="line2d_7">
      <g>
       <use style="stroke:#000000;stroke-width:0.8;" x="398.487273" xlink:href="#m7ee47ff45a" y="307.584"/>
      </g>
     </g>
     <g id="text_7">
      <!-- 30 -->
      <g transform="translate(392.124773 322.182437)scale(0.1 -0.1)">
       <defs>
        <path d="M 40.578125 39.3125 
Q 47.65625 37.796875 51.625 33 
Q 55.609375 28.21875 55.609375 21.1875 
Q 55.609375 10.40625 48.1875 4.484375 
Q 40.765625 -1.421875 27.09375 -1.421875 
Q 22.515625 -1.421875 17.65625 -0.515625 
Q 12.796875 0.390625 7.625 2.203125 
L 7.625 11.71875 
Q 11.71875 9.328125 16.59375 8.109375 
Q 21.484375 6.890625 26.8125 6.890625 
Q 36.078125 6.890625 40.9375 10.546875 
Q 45.796875 14.203125 45.796875 21.1875 
Q 45.796875 27.640625 41.28125 31.265625 
Q 36.765625 34.90625 28.71875 34.90625 
L 20.21875 34.90625 
L 20.21875 43.015625 
L 29.109375 43.015625 
Q 36.375 43.015625 40.234375 45.921875 
Q 44.09375 48.828125 44.09375 54.296875 
Q 44.09375 59.90625 40.109375 62.90625 
Q 36.140625 65.921875 28.71875 65.921875 
Q 24.65625 65.921875 20.015625 65.03125 
Q 15.375 64.15625 9.8125 62.3125 
L 9.8125 71.09375 
Q 15.4375 72.65625 20.34375 73.4375 
Q 25.25 74.21875 29.59375 74.21875 
Q 40.828125 74.21875 47.359375 69.109375 
Q 53.90625 64.015625 53.90625 55.328125 
Q 53.90625 49.265625 50.4375 45.09375 
Q 46.96875 40.921875 40.578125 39.3125 
z
" id="DejaVuSans-51"/>
       </defs>
       <use xlink:href="#DejaVuSans-51"/>
       <use x="63.623047" xlink:href="#DejaVuSans-48"/>
      </g>
     </g>
    </g>
   </g>
   <g id="matplotlib.axis_2">
    <g id="ytick_1">
     <g id="line2d_8">
      <defs>
       <path d="M 0 0 
L -3.5 0 
" id="m52c5b664fe" style="stroke:#000000;stroke-width:0.8;"/>
      </defs>
      <g>
       <use style="stroke:#000000;stroke-width:0.8;" x="57.6" xlink:href="#m52c5b664fe" y="302.963385"/>
      </g>
     </g>
     <g id="text_8">
      <!-- 0.00 -->
      <g transform="translate(28.334375 306.762604)scale(0.1 -0.1)">
       <defs>
        <path d="M 10.6875 12.40625 
L 21 12.40625 
L 21 0 
L 10.6875 0 
z
" id="DejaVuSans-46"/>
       </defs>
       <use xlink:href="#DejaVuSans-48"/>
       <use x="63.623047" xlink:href="#DejaVuSans-46"/>
       <use x="95.410156" xlink:href="#DejaVuSans-48"/>
       <use x="159.033203" xlink:href="#DejaVuSans-48"/>
      </g>
     </g>
    </g>
    <g id="ytick_2">
     <g id="line2d_9">
      <g>
       <use style="stroke:#000000;stroke-width:0.8;" x="57.6" xlink:href="#m52c5b664fe" y="259.130172"/>
      </g>
     </g>
     <g id="text_9">
      <!-- 0.01 -->
      <g transform="translate(28.334375 262.92939)scale(0.1 -0.1)">
       <use xlink:href="#DejaVuSans-48"/>
       <use x="63.623047" xlink:href="#DejaVuSans-46"/>
       <use x="95.410156" xlink:href="#DejaVuSans-48"/>
       <use x="159.033203" xlink:href="#DejaVuSans-49"/>
      </g>
     </g>
    </g>
    <g id="ytick_3">
     <g id="line2d_10">
      <g>
       <use style="stroke:#000000;stroke-width:0.8;" x="57.6" xlink:href="#m52c5b664fe" y="215.296958"/>
      </g>
     </g>
     <g id="text_10">
      <!-- 0.02 -->
      <g transform="translate(28.334375 219.096176)scale(0.1 -0.1)">
       <use xlink:href="#DejaVuSans-48"/>
       <use x="63.623047" xlink:href="#DejaVuSans-46"/>
       <use x="95.410156" xlink:href="#DejaVuSans-48"/>
       <use x="159.033203" xlink:href="#DejaVuSans-50"/>
      </g>
     </g>
    </g>
    <g id="ytick_4">
     <g id="line2d_11">
      <g>
       <use style="stroke:#000000;stroke-width:0.8;" x="57.6" xlink:href="#m52c5b664fe" y="171.463744"/>
      </g>
     </g>
     <g id="text_11">
      <!-- 0.03 -->
      <g transform="translate(28.334375 175.262963)scale(0.1 -0.1)">
       <use xlink:href="#DejaVuSans-48"/>
       <use x="63.623047" xlink:href="#DejaVuSans-46"/>
       <use x="95.410156" xlink:href="#DejaVuSans-48"/>
       <use x="159.033203" xlink:href="#DejaVuSans-51"/>
      </g>
     </g>
    </g>
    <g id="ytick_5">
     <g id="line2d_12">
      <g>
       <use style="stroke:#000000;stroke-width:0.8;" x="57.6" xlink:href="#m52c5b664fe" y="127.63053"/>
      </g>
     </g>
     <g id="text_12">
      <!-- 0.04 -->
      <g transform="translate(28.334375 131.429749)scale(0.1 -0.1)">
       <defs>
        <path d="M 37.796875 64.3125 
L 12.890625 25.390625 
L 37.796875 25.390625 
z
M 35.203125 72.90625 
L 47.609375 72.90625 
L 47.609375 25.390625 
L 58.015625 25.390625 
L 58.015625 17.1875 
L 47.609375 17.1875 
L 47.609375 0 
L 37.796875 0 
L 37.796875 17.1875 
L 4.890625 17.1875 
L 4.890625 26.703125 
z
" id="DejaVuSans-52"/>
       </defs>
       <use xlink:href="#DejaVuSans-48"/>
       <use x="63.623047" xlink:href="#DejaVuSans-46"/>
       <use x="95.410156" xlink:href="#DejaVuSans-48"/>
       <use x="159.033203" xlink:href="#DejaVuSans-52"/>
      </g>
     </g>
    </g>
    <g id="ytick_6">
     <g id="line2d_13">
      <g>
       <use style="stroke:#000000;stroke-width:0.8;" x="57.6" xlink:href="#m52c5b664fe" y="83.797316"/>
      </g>
     </g>
     <g id="text_13">
      <!-- 0.05 -->
      <g transform="translate(28.334375 87.596535)scale(0.1 -0.1)">
       <use xlink:href="#DejaVuSans-48"/>
       <use x="63.623047" xlink:href="#DejaVuSans-46"/>
       <use x="95.410156" xlink:href="#DejaVuSans-48"/>
       <use x="159.033203" xlink:href="#DejaVuSans-53"/>
      </g>
     </g>
    </g>
   </g>
   <g id="line2d_14">
    <defs>
     <path d="M 0 3 
C 0.795609 3 1.55874 2.683901 2.12132 2.12132 
C 2.683901 1.55874 3 0.795609 3 0 
C 3 -0.795609 2.683901 -1.55874 2.12132 -2.12132 
C 1.55874 -2.683901 0.795609 -3 0 -3 
C -0.795609 -3 -1.55874 -2.683901 -2.12132 -2.12132 
C -2.683901 -1.55874 -3 -0.795609 -3 0 
C -3 0.795609 -2.683901 1.55874 -2.12132 2.12132 
C -1.55874 2.683901 -0.795609 3 0 3 
z
" id="mf3823de6ae" style="stroke:#ff0000;"/>
    </defs>
    <g clip-path="url(#pe6055739ae)">
     <use style="fill:#ff0000;stroke:#ff0000;" x="73.832727" xlink:href="#mf3823de6ae" y="104.456489"/>
     <use style="fill:#ff0000;stroke:#ff0000;" x="85.027712" xlink:href="#mf3823de6ae" y="105.240386"/>
     <use style="fill:#ff0000;stroke:#ff0000;" x="96.222696" xlink:href="#mf3823de6ae" y="105.491039"/>
     <use style="fill:#ff0000;stroke:#ff0000;" x="107.41768" xlink:href="#mf3823de6ae" y="106.17536"/>
     <use style="fill:#ff0000;stroke:#ff0000;" x="118.612665" xlink:href="#mf3823de6ae" y="106.322208"/>
     <use style="fill:#ff0000;stroke:#ff0000;" x="129.807649" xlink:href="#mf3823de6ae" y="106.793304"/>
     <use style="fill:#ff0000;stroke:#ff0000;" x="141.002633" xlink:href="#mf3823de6ae" y="107.158391"/>
     <use style="fill:#ff0000;stroke:#ff0000;" x="152.197618" xlink:href="#mf3823de6ae" y="107.194168"/>
     <use style="fill:#ff0000;stroke:#ff0000;" x="163.392602" xlink:href="#mf3823de6ae" y="107.790868"/>
     <use style="fill:#ff0000;stroke:#ff0000;" x="174.587586" xlink:href="#mf3823de6ae" y="108.017223"/>
     <use style="fill:#ff0000;stroke:#ff0000;" x="185.782571" xlink:href="#mf3823de6ae" y="108.149979"/>
     <use style="fill:#ff0000;stroke:#ff0000;" x="196.977555" xlink:href="#mf3823de6ae" y="108.8222"/>
     <use style="fill:#ff0000;stroke:#ff0000;" x="208.172539" xlink:href="#mf3823de6ae" y="108.79062"/>
     <use style="fill:#ff0000;stroke:#ff0000;" x="219.367524" xlink:href="#mf3823de6ae" y="109.089247"/>
     <use style="fill:#ff0000;stroke:#ff0000;" x="230.562508" xlink:href="#mf3823de6ae" y="109.111096"/>
     <use style="fill:#ff0000;stroke:#ff0000;" x="241.757492" xlink:href="#mf3823de6ae" y="109.398358"/>
     <use style="fill:#ff0000;stroke:#ff0000;" x="252.952476" xlink:href="#mf3823de6ae" y="109.753403"/>
     <use style="fill:#ff0000;stroke:#ff0000;" x="264.147461" xlink:href="#mf3823de6ae" y="109.967886"/>
     <use style="fill:#ff0000;stroke:#ff0000;" x="275.342445" xlink:href="#mf3823de6ae" y="110.225625"/>
     <use style="fill:#ff0000;stroke:#ff0000;" x="286.537429" xlink:href="#mf3823de6ae" y="110.249188"/>
     <use style="fill:#ff0000;stroke:#ff0000;" x="297.732414" xlink:href="#mf3823de6ae" y="110.72902"/>
     <use style="fill:#ff0000;stroke:#ff0000;" x="308.927398" xlink:href="#mf3823de6ae" y="110.782694"/>
     <use style="fill:#ff0000;stroke:#ff0000;" x="320.122382" xlink:href="#mf3823de6ae" y="110.797145"/>
     <use style="fill:#ff0000;stroke:#ff0000;" x="331.317367" xlink:href="#mf3823de6ae" y="111.070707"/>
     <use style="fill:#ff0000;stroke:#ff0000;" x="342.512351" xlink:href="#mf3823de6ae" y="111.116772"/>
     <use style="fill:#ff0000;stroke:#ff0000;" x="353.707335" xlink:href="#mf3823de6ae" y="111.432316"/>
     <use style="fill:#ff0000;stroke:#ff0000;" x="364.90232" xlink:href="#mf3823de6ae" y="111.587084"/>
     <use style="fill:#ff0000;stroke:#ff0000;" x="376.097304" xlink:href="#mf3823de6ae" y="111.947452"/>
     <use style="fill:#ff0000;stroke:#ff0000;" x="387.292288" xlink:href="#mf3823de6ae" y="111.751698"/>
     <use style="fill:#ff0000;stroke:#ff0000;" x="398.487273" xlink:href="#mf3823de6ae" y="111.847713"/>
    </g>
   </g>
   <g id="line2d_15">
    <path clip-path="url(#pe6055739ae)" d="M 73.832727 75.967047 
L 85.027712 109.800333 
L 96.222696 65.396522 
L 107.41768 132.358621 
L 118.612665 159.677068 
L 129.807649 117.411673 
L 141.002633 114.509119 
L 152.197618 110.221102 
L 163.392602 125.402896 
L 174.587586 95.883117 
L 185.782571 128.338468 
L 196.977555 106.191151 
L 208.172539 105.529053 
L 219.367524 142.06117 
L 230.562508 101.126552 
L 241.757492 53.568 
L 252.952476 123.325975 
L 264.147461 124.826166 
L 275.342445 105.026915 
L 286.537429 130.78023 
L 297.732414 78.221857 
L 308.927398 96.096865 
L 320.122382 103.036197 
L 331.317367 109.446513 
L 342.512351 125.161779 
L 353.707335 82.292027 
L 364.90232 126.994448 
L 376.097304 141.06439 
L 387.292288 135.190748 
L 398.487273 120.568358 
" style="fill:none;stroke:#ff0000;stroke-linecap:square;stroke-width:1.5;"/>
   </g>
   <g id="line2d_16">
    <defs>
     <path d="M 0 3 
C 0.795609 3 1.55874 2.683901 2.12132 2.12132 
C 2.683901 1.55874 3 0.795609 3 0 
C 3 -0.795609 2.683901 -1.55874 2.12132 -2.12132 
C 1.55874 -2.683901 0.795609 -3 0 -3 
C -0.795609 -3 -1.55874 -2.683901 -2.12132 -2.12132 
C -2.683901 -1.55874 -3 -0.795609 -3 0 
C -3 0.795609 -2.683901 1.55874 -2.12132 2.12132 
C -1.55874 2.683901 -0.795609 3 0 3 
z
" id="m202a531290" style="stroke:#0000ff;"/>
    </defs>
    <g clip-path="url(#pe6055739ae)">
     <use style="fill:#0000ff;stroke:#0000ff;" x="73.832727" xlink:href="#m202a531290" y="288.660355"/>
     <use style="fill:#0000ff;stroke:#0000ff;" x="85.027712" xlink:href="#m202a531290" y="288.753707"/>
     <use style="fill:#0000ff;stroke:#0000ff;" x="96.222696" xlink:href="#m202a531290" y="288.817093"/>
     <use style="fill:#0000ff;stroke:#0000ff;" x="107.41768" xlink:href="#m202a531290" y="288.890621"/>
     <use style="fill:#0000ff;stroke:#0000ff;" x="118.612665" xlink:href="#m202a531290" y="288.933386"/>
     <use style="fill:#0000ff;stroke:#0000ff;" x="129.807649" xlink:href="#m202a531290" y="289.012506"/>
     <use style="fill:#0000ff;stroke:#0000ff;" x="141.002633" xlink:href="#m202a531290" y="289.07064"/>
     <use style="fill:#0000ff;stroke:#0000ff;" x="152.197618" xlink:href="#m202a531290" y="289.096725"/>
     <use style="fill:#0000ff;stroke:#0000ff;" x="163.392602" xlink:href="#m202a531290" y="289.17101"/>
     <use style="fill:#0000ff;stroke:#0000ff;" x="174.587586" xlink:href="#m202a531290" y="289.210243"/>
     <use style="fill:#0000ff;stroke:#0000ff;" x="185.782571" xlink:href="#m202a531290" y="289.245512"/>
     <use style="fill:#0000ff;stroke:#0000ff;" x="196.977555" xlink:href="#m202a531290" y="289.307179"/>
     <use style="fill:#0000ff;stroke:#0000ff;" x="208.172539" xlink:href="#m202a531290" y="289.327679"/>
     <use style="fill:#0000ff;stroke:#0000ff;" x="219.367524" xlink:href="#m202a531290" y="289.366487"/>
     <use style="fill:#0000ff;stroke:#0000ff;" x="230.562508" xlink:href="#m202a531290" y="289.398264"/>
     <use style="fill:#0000ff;stroke:#0000ff;" x="241.757492" xlink:href="#m202a531290" y="289.432378"/>
     <use style="fill:#0000ff;stroke:#0000ff;" x="252.952476" xlink:href="#m202a531290" y="289.477232"/>
     <use style="fill:#0000ff;stroke:#0000ff;" x="264.147461" xlink:href="#m202a531290" y="289.498724"/>
     <use style="fill:#0000ff;stroke:#0000ff;" x="275.342445" xlink:href="#m202a531290" y="289.553093"/>
     <use style="fill:#0000ff;stroke:#0000ff;" x="286.537429" xlink:href="#m202a531290" y="289.55519"/>
     <use style="fill:#0000ff;stroke:#0000ff;" x="297.732414" xlink:href="#m202a531290" y="289.608632"/>
     <use style="fill:#0000ff;stroke:#0000ff;" x="308.927398" xlink:href="#m202a531290" y="289.616257"/>
     <use style="fill:#0000ff;stroke:#0000ff;" x="320.122382" xlink:href="#m202a531290" y="289.632327"/>
     <use style="fill:#0000ff;stroke:#0000ff;" x="331.317367" xlink:href="#m202a531290" y="289.657519"/>
     <use style="fill:#0000ff;stroke:#0000ff;" x="342.512351" xlink:href="#m202a531290" y="289.685051"/>
     <use style="fill:#0000ff;stroke:#0000ff;" x="353.707335" xlink:href="#m202a531290" y="289.707805"/>
     <use style="fill:#0000ff;stroke:#0000ff;" x="364.90232" xlink:href="#m202a531290" y="289.735182"/>
     <use style="fill:#0000ff;stroke:#0000ff;" x="376.097304" xlink:href="#m202a531290" y="289.77476"/>
     <use style="fill:#0000ff;stroke:#0000ff;" x="387.292288" xlink:href="#m202a531290" y="289.767252"/>
     <use style="fill:#0000ff;stroke:#0000ff;" x="398.487273" xlink:href="#m202a531290" y="289.777834"/>
    </g>
   </g>
   <g id="line2d_17">
    <path clip-path="url(#pe6055739ae)" d="M 73.832727 284.569131 
L 85.027712 289.775572 
L 96.222696 283.486198 
L 107.41768 292.514556 
L 118.612665 295.488 
L 129.807649 290.68961 
L 141.002633 290.287241 
L 152.197618 289.239052 
L 163.392602 291.495134 
L 174.587586 288.047537 
L 185.782571 292.045103 
L 196.977555 288.902295 
L 208.172539 289.109947 
L 219.367524 293.654666 
L 230.562508 287.806922 
L 241.757492 282.042163 
L 252.952476 291.466837 
L 264.147461 291.496201 
L 275.342445 289.315301 
L 286.537429 291.600811 
L 297.732414 284.265435 
L 308.927398 287.259882 
L 320.122382 288.606801 
L 331.317367 289.802652 
L 342.512351 291.137063 
L 353.707335 286.006724 
L 364.90232 291.895805 
L 376.097304 293.281474 
L 387.292288 292.599303 
L 398.487273 291.031275 
" style="fill:none;stroke:#0000ff;stroke-linecap:square;stroke-width:1.5;"/>
   </g>
   <g id="patch_3">
    <path d="M 57.6 307.584 
L 57.6 41.472 
" style="fill:none;stroke:#000000;stroke-linecap:square;stroke-linejoin:miter;stroke-width:0.8;"/>
   </g>
   <g id="patch_4">
    <path d="M 414.72 307.584 
L 414.72 41.472 
" style="fill:none;stroke:#000000;stroke-linecap:square;stroke-linejoin:miter;stroke-width:0.8;"/>
   </g>
   <g id="patch_5">
    <path d="M 57.6 307.584 
L 414.72 307.584 
" style="fill:none;stroke:#000000;stroke-linecap:square;stroke-linejoin:miter;stroke-width:0.8;"/>
   </g>
   <g id="patch_6">
    <path d="M 57.6 41.472 
L 414.72 41.472 
" style="fill:none;stroke:#000000;stroke-linecap:square;stroke-linejoin:miter;stroke-width:0.8;"/>
   </g>
  </g>
 </g>
 <defs>
  <clipPath id="pe6055739ae">
   <rect height="266.112" width="357.12" x="57.6" y="41.472"/>
  </clipPath>
 </defs>
</svg>
