<?xml version="1.0" encoding="utf-8" standalone="no"?>
<!DOCTYPE svg PUBLIC "-//W3C//DTD SVG 1.1//EN"
  "http://www.w3.org/Graphics/SVG/1.1/DTD/svg11.dtd">
<!-- Created with matplotlib (https://matplotlib.org/) -->
<svg height="432pt" version="1.1" viewBox="0 0 648 432" width="648pt" xmlns="http://www.w3.org/2000/svg" xmlns:xlink="http://www.w3.org/1999/xlink">
 <metadata>
  <rdf:RDF xmlns:cc="http://creativecommons.org/ns#" xmlns:dc="http://purl.org/dc/elements/1.1/" xmlns:rdf="http://www.w3.org/1999/02/22-rdf-syntax-ns#">
   <cc:Work>
    <dc:type rdf:resource="http://purl.org/dc/dcmitype/StillImage"/>
    <dc:date>2021-09-16T10:09:48.508796</dc:date>
    <dc:format>image/svg+xml</dc:format>
    <dc:creator>
     <cc:Agent>
      <dc:title>Matplotlib v3.3.4, https://matplotlib.org/</dc:title>
     </cc:Agent>
    </dc:creator>
   </cc:Work>
  </rdf:RDF>
 </metadata>
 <defs>
  <style type="text/css">*{stroke-linecap:butt;stroke-linejoin:round;}</style>
 </defs>
 <g id="figure_1">
  <g id="patch_1">
   <path d="M 0 432 
L 648 432 
L 648 0 
L 0 0 
z
" style="fill:#ffffff;"/>
  </g>
  <g id="axes_1">
   <g id="patch_2">
    <path d="M 81 384.48 
L 583.2 384.48 
L 583.2 51.84 
L 81 51.84 
z
" style="fill:#ffffff;"/>
   </g>
   <g id="matplotlib.axis_1">
    <g id="xtick_1">
     <g id="line2d_1">
      <defs>
       <path d="M 0 0 
L 0 3.5 
" id="m197e6e4b3f" style="stroke:#000000;stroke-width:0.8;"/>
      </defs>
      <g>
       <use style="stroke:#000000;stroke-width:0.8;" x="94.510019" xlink:href="#m197e6e4b3f" y="384.48"/>
      </g>
     </g>
     <g id="text_1">
      <!-- 0 -->
      <g transform="translate(89.505175 404.364062)scale(0.18 -0.18)">
       <defs>
        <path d="M 4.15625 35.296875 
Q 4.15625 48 6.765625 55.734375 
Q 9.375 63.484375 14.515625 67.671875 
Q 19.671875 71.875 27.484375 71.875 
Q 33.25 71.875 37.59375 69.546875 
Q 41.9375 67.234375 44.765625 62.859375 
Q 47.609375 58.5 49.21875 52.21875 
Q 50.828125 45.953125 50.828125 35.296875 
Q 50.828125 22.703125 48.234375 14.96875 
Q 45.65625 7.234375 40.5 3 
Q 35.359375 -1.21875 27.484375 -1.21875 
Q 17.140625 -1.21875 11.234375 6.203125 
Q 4.15625 15.140625 4.15625 35.296875 
z
M 13.1875 35.296875 
Q 13.1875 17.671875 17.3125 11.828125 
Q 21.4375 6 27.484375 6 
Q 33.546875 6 37.671875 11.859375 
Q 41.796875 17.71875 41.796875 35.296875 
Q 41.796875 52.984375 37.671875 58.78125 
Q 33.546875 64.59375 27.390625 64.59375 
Q 21.34375 64.59375 17.71875 59.46875 
Q 13.1875 52.9375 13.1875 35.296875 
z
" id="ArialMT-48"/>
       </defs>
       <use xlink:href="#ArialMT-48"/>
      </g>
     </g>
    </g>
    <g id="xtick_2">
     <g id="line2d_2">
      <g>
       <use style="stroke:#000000;stroke-width:0.8;" x="187.68256" xlink:href="#m197e6e4b3f" y="384.48"/>
      </g>
     </g>
     <g id="text_2">
      <!-- 10 -->
      <g transform="translate(177.672873 404.364062)scale(0.18 -0.18)">
       <defs>
        <path d="M 37.25 0 
L 28.46875 0 
L 28.46875 56 
Q 25.296875 52.984375 20.140625 49.953125 
Q 14.984375 46.921875 10.890625 45.40625 
L 10.890625 53.90625 
Q 18.265625 57.375 23.78125 62.296875 
Q 29.296875 67.234375 31.59375 71.875 
L 37.25 71.875 
z
" id="ArialMT-49"/>
       </defs>
       <use xlink:href="#ArialMT-49"/>
       <use x="55.615234" xlink:href="#ArialMT-48"/>
      </g>
     </g>
    </g>
    <g id="xtick_3">
     <g id="line2d_3">
      <g>
       <use style="stroke:#000000;stroke-width:0.8;" x="280.855102" xlink:href="#m197e6e4b3f" y="384.48"/>
      </g>
     </g>
     <g id="text_3">
      <!-- 20 -->
      <g transform="translate(270.845415 404.364062)scale(0.18 -0.18)">
       <defs>
        <path d="M 50.34375 8.453125 
L 50.34375 0 
L 3.03125 0 
Q 2.9375 3.171875 4.046875 6.109375 
Q 5.859375 10.9375 9.828125 15.625 
Q 13.8125 20.3125 21.34375 26.46875 
Q 33.015625 36.03125 37.109375 41.625 
Q 41.21875 47.21875 41.21875 52.203125 
Q 41.21875 57.421875 37.46875 61 
Q 33.734375 64.59375 27.734375 64.59375 
Q 21.390625 64.59375 17.578125 60.78125 
Q 13.765625 56.984375 13.71875 50.25 
L 4.6875 51.171875 
Q 5.609375 61.28125 11.65625 66.578125 
Q 17.71875 71.875 27.9375 71.875 
Q 38.234375 71.875 44.234375 66.15625 
Q 50.25 60.453125 50.25 52 
Q 50.25 47.703125 48.484375 43.546875 
Q 46.734375 39.40625 42.65625 34.8125 
Q 38.578125 30.21875 29.109375 22.21875 
Q 21.1875 15.578125 18.9375 13.203125 
Q 16.703125 10.84375 15.234375 8.453125 
z
" id="ArialMT-50"/>
       </defs>
       <use xlink:href="#ArialMT-50"/>
       <use x="55.615234" xlink:href="#ArialMT-48"/>
      </g>
     </g>
    </g>
    <g id="xtick_4">
     <g id="line2d_4">
      <g>
       <use style="stroke:#000000;stroke-width:0.8;" x="374.027644" xlink:href="#m197e6e4b3f" y="384.48"/>
      </g>
     </g>
     <g id="text_4">
      <!-- 30 -->
      <g transform="translate(364.017956 404.364062)scale(0.18 -0.18)">
       <defs>
        <path d="M 4.203125 18.890625 
L 12.984375 20.0625 
Q 14.5 12.59375 18.140625 9.296875 
Q 21.78125 6 27 6 
Q 33.203125 6 37.46875 10.296875 
Q 41.75 14.59375 41.75 20.953125 
Q 41.75 27 37.796875 30.921875 
Q 33.84375 34.859375 27.734375 34.859375 
Q 25.25 34.859375 21.53125 33.890625 
L 22.515625 41.609375 
Q 23.390625 41.5 23.921875 41.5 
Q 29.546875 41.5 34.03125 44.421875 
Q 38.53125 47.359375 38.53125 53.46875 
Q 38.53125 58.296875 35.25 61.46875 
Q 31.984375 64.65625 26.8125 64.65625 
Q 21.6875 64.65625 18.265625 61.421875 
Q 14.84375 58.203125 13.875 51.765625 
L 5.078125 53.328125 
Q 6.6875 62.15625 12.390625 67.015625 
Q 18.109375 71.875 26.609375 71.875 
Q 32.46875 71.875 37.390625 69.359375 
Q 42.328125 66.84375 44.9375 62.5 
Q 47.5625 58.15625 47.5625 53.265625 
Q 47.5625 48.640625 45.0625 44.828125 
Q 42.578125 41.015625 37.703125 38.765625 
Q 44.046875 37.3125 47.5625 32.6875 
Q 51.078125 28.078125 51.078125 21.140625 
Q 51.078125 11.765625 44.234375 5.25 
Q 37.40625 -1.265625 26.953125 -1.265625 
Q 17.53125 -1.265625 11.296875 4.34375 
Q 5.078125 9.96875 4.203125 18.890625 
z
" id="ArialMT-51"/>
       </defs>
       <use xlink:href="#ArialMT-51"/>
       <use x="55.615234" xlink:href="#ArialMT-48"/>
      </g>
     </g>
    </g>
    <g id="xtick_5">
     <g id="line2d_5">
      <g>
       <use style="stroke:#000000;stroke-width:0.8;" x="467.200186" xlink:href="#m197e6e4b3f" y="384.48"/>
      </g>
     </g>
     <g id="text_5">
      <!-- 40 -->
      <g transform="translate(457.190498 404.364062)scale(0.18 -0.18)">
       <defs>
        <path d="M 32.328125 0 
L 32.328125 17.140625 
L 1.265625 17.140625 
L 1.265625 25.203125 
L 33.9375 71.578125 
L 41.109375 71.578125 
L 41.109375 25.203125 
L 50.78125 25.203125 
L 50.78125 17.140625 
L 41.109375 17.140625 
L 41.109375 0 
z
M 32.328125 25.203125 
L 32.328125 57.46875 
L 9.90625 25.203125 
z
" id="ArialMT-52"/>
       </defs>
       <use xlink:href="#ArialMT-52"/>
       <use x="55.615234" xlink:href="#ArialMT-48"/>
      </g>
     </g>
    </g>
    <g id="xtick_6">
     <g id="line2d_6">
      <g>
       <use style="stroke:#000000;stroke-width:0.8;" x="560.372727" xlink:href="#m197e6e4b3f" y="384.48"/>
      </g>
     </g>
     <g id="text_6">
      <!-- 50 -->
      <g transform="translate(550.36304 404.364062)scale(0.18 -0.18)">
       <defs>
        <path d="M 4.15625 18.75 
L 13.375 19.53125 
Q 14.40625 12.796875 18.140625 9.390625 
Q 21.875 6 27.15625 6 
Q 33.5 6 37.890625 10.78125 
Q 42.28125 15.578125 42.28125 23.484375 
Q 42.28125 31 38.0625 35.34375 
Q 33.84375 39.703125 27 39.703125 
Q 22.75 39.703125 19.328125 37.765625 
Q 15.921875 35.84375 13.96875 32.765625 
L 5.71875 33.84375 
L 12.640625 70.609375 
L 48.25 70.609375 
L 48.25 62.203125 
L 19.671875 62.203125 
L 15.828125 42.96875 
Q 22.265625 47.46875 29.34375 47.46875 
Q 38.71875 47.46875 45.15625 40.96875 
Q 51.609375 34.46875 51.609375 24.265625 
Q 51.609375 14.546875 45.953125 7.46875 
Q 39.0625 -1.21875 27.15625 -1.21875 
Q 17.390625 -1.21875 11.203125 4.25 
Q 5.03125 9.71875 4.15625 18.75 
z
" id="ArialMT-53"/>
       </defs>
       <use xlink:href="#ArialMT-53"/>
       <use x="55.615234" xlink:href="#ArialMT-48"/>
      </g>
     </g>
    </g>
    <g id="text_7">
     <!-- epochs -->
     <g transform="translate(296.631875 427.68875)scale(0.22 -0.22)">
      <defs>
       <path d="M 42.09375 16.703125 
L 51.171875 15.578125 
Q 49.03125 7.625 43.21875 3.21875 
Q 37.40625 -1.171875 28.375 -1.171875 
Q 17 -1.171875 10.328125 5.828125 
Q 3.65625 12.84375 3.65625 25.484375 
Q 3.65625 38.578125 10.390625 45.796875 
Q 17.140625 53.03125 27.875 53.03125 
Q 38.28125 53.03125 44.875 45.953125 
Q 51.46875 38.875 51.46875 26.03125 
Q 51.46875 25.25 51.421875 23.6875 
L 12.75 23.6875 
Q 13.234375 15.140625 17.578125 10.59375 
Q 21.921875 6.0625 28.421875 6.0625 
Q 33.25 6.0625 36.671875 8.59375 
Q 40.09375 11.140625 42.09375 16.703125 
z
M 13.234375 30.90625 
L 42.1875 30.90625 
Q 41.609375 37.453125 38.875 40.71875 
Q 34.671875 45.796875 27.984375 45.796875 
Q 21.921875 45.796875 17.796875 41.75 
Q 13.671875 37.703125 13.234375 30.90625 
z
" id="ArialMT-101"/>
       <path d="M 6.59375 -19.875 
L 6.59375 51.859375 
L 14.59375 51.859375 
L 14.59375 45.125 
Q 17.4375 49.078125 21 51.046875 
Q 24.5625 53.03125 29.640625 53.03125 
Q 36.28125 53.03125 41.359375 49.609375 
Q 46.4375 46.1875 49.015625 39.953125 
Q 51.609375 33.734375 51.609375 26.3125 
Q 51.609375 18.359375 48.75 11.984375 
Q 45.90625 5.609375 40.453125 2.21875 
Q 35.015625 -1.171875 29 -1.171875 
Q 24.609375 -1.171875 21.109375 0.6875 
Q 17.625 2.546875 15.375 5.375 
L 15.375 -19.875 
z
M 14.546875 25.640625 
Q 14.546875 15.625 18.59375 10.84375 
Q 22.65625 6.0625 28.421875 6.0625 
Q 34.28125 6.0625 38.453125 11.015625 
Q 42.625 15.96875 42.625 26.375 
Q 42.625 36.28125 38.546875 41.203125 
Q 34.46875 46.140625 28.8125 46.140625 
Q 23.1875 46.140625 18.859375 40.890625 
Q 14.546875 35.640625 14.546875 25.640625 
z
" id="ArialMT-112"/>
       <path d="M 3.328125 25.921875 
Q 3.328125 40.328125 11.328125 47.265625 
Q 18.015625 53.03125 27.640625 53.03125 
Q 38.328125 53.03125 45.109375 46.015625 
Q 51.90625 39.015625 51.90625 26.65625 
Q 51.90625 16.65625 48.90625 10.90625 
Q 45.90625 5.171875 40.15625 2 
Q 34.421875 -1.171875 27.640625 -1.171875 
Q 16.75 -1.171875 10.03125 5.8125 
Q 3.328125 12.796875 3.328125 25.921875 
z
M 12.359375 25.921875 
Q 12.359375 15.96875 16.703125 11.015625 
Q 21.046875 6.0625 27.640625 6.0625 
Q 34.1875 6.0625 38.53125 11.03125 
Q 42.875 16.015625 42.875 26.21875 
Q 42.875 35.84375 38.5 40.796875 
Q 34.125 45.75 27.640625 45.75 
Q 21.046875 45.75 16.703125 40.8125 
Q 12.359375 35.890625 12.359375 25.921875 
z
" id="ArialMT-111"/>
       <path d="M 40.4375 19 
L 49.078125 17.875 
Q 47.65625 8.9375 41.8125 3.875 
Q 35.984375 -1.171875 27.484375 -1.171875 
Q 16.84375 -1.171875 10.375 5.78125 
Q 3.90625 12.75 3.90625 25.734375 
Q 3.90625 34.125 6.6875 40.421875 
Q 9.46875 46.734375 15.15625 49.875 
Q 20.84375 53.03125 27.546875 53.03125 
Q 35.984375 53.03125 41.359375 48.75 
Q 46.734375 44.484375 48.25 36.625 
L 39.703125 35.296875 
Q 38.484375 40.53125 35.375 43.15625 
Q 32.28125 45.796875 27.875 45.796875 
Q 21.234375 45.796875 17.078125 41.03125 
Q 12.9375 36.28125 12.9375 25.984375 
Q 12.9375 15.53125 16.9375 10.796875 
Q 20.953125 6.0625 27.390625 6.0625 
Q 32.5625 6.0625 36.03125 9.234375 
Q 39.5 12.40625 40.4375 19 
z
" id="ArialMT-99"/>
       <path d="M 6.59375 0 
L 6.59375 71.578125 
L 15.375 71.578125 
L 15.375 45.90625 
Q 21.53125 53.03125 30.90625 53.03125 
Q 36.671875 53.03125 40.921875 50.75 
Q 45.171875 48.484375 47 44.484375 
Q 48.828125 40.484375 48.828125 32.859375 
L 48.828125 0 
L 40.046875 0 
L 40.046875 32.859375 
Q 40.046875 39.453125 37.1875 42.453125 
Q 34.328125 45.453125 29.109375 45.453125 
Q 25.203125 45.453125 21.75 43.421875 
Q 18.3125 41.40625 16.84375 37.9375 
Q 15.375 34.46875 15.375 28.375 
L 15.375 0 
z
" id="ArialMT-104"/>
       <path d="M 3.078125 15.484375 
L 11.765625 16.84375 
Q 12.5 11.625 15.84375 8.84375 
Q 19.1875 6.0625 25.203125 6.0625 
Q 31.25 6.0625 34.171875 8.515625 
Q 37.109375 10.984375 37.109375 14.3125 
Q 37.109375 17.28125 34.515625 19 
Q 32.71875 20.171875 25.53125 21.96875 
Q 15.875 24.421875 12.140625 26.203125 
Q 8.40625 27.984375 6.46875 31.125 
Q 4.546875 34.28125 4.546875 38.09375 
Q 4.546875 41.546875 6.125 44.5 
Q 7.71875 47.46875 10.453125 49.421875 
Q 12.5 50.921875 16.03125 51.96875 
Q 19.578125 53.03125 23.640625 53.03125 
Q 29.734375 53.03125 34.34375 51.265625 
Q 38.96875 49.515625 41.15625 46.5 
Q 43.359375 43.5 44.1875 38.484375 
L 35.59375 37.3125 
Q 35.015625 41.3125 32.203125 43.546875 
Q 29.390625 45.796875 24.265625 45.796875 
Q 18.21875 45.796875 15.625 43.796875 
Q 13.03125 41.796875 13.03125 39.109375 
Q 13.03125 37.40625 14.109375 36.03125 
Q 15.1875 34.625 17.484375 33.6875 
Q 18.796875 33.203125 25.25 31.453125 
Q 34.578125 28.953125 38.25 27.359375 
Q 41.9375 25.78125 44.03125 22.75 
Q 46.140625 19.734375 46.140625 15.234375 
Q 46.140625 10.84375 43.578125 6.953125 
Q 41.015625 3.078125 36.171875 0.953125 
Q 31.34375 -1.171875 25.25 -1.171875 
Q 15.140625 -1.171875 9.84375 3.03125 
Q 4.546875 7.234375 3.078125 15.484375 
z
" id="ArialMT-115"/>
      </defs>
      <use xlink:href="#ArialMT-101"/>
      <use x="55.615234" xlink:href="#ArialMT-112"/>
      <use x="111.230469" xlink:href="#ArialMT-111"/>
      <use x="166.845703" xlink:href="#ArialMT-99"/>
      <use x="216.845703" xlink:href="#ArialMT-104"/>
      <use x="272.460938" xlink:href="#ArialMT-115"/>
     </g>
    </g>
   </g>
   <g id="matplotlib.axis_2">
    <g id="ytick_1">
     <g id="line2d_7">
      <defs>
       <path d="M 0 0 
L -3.5 0 
" id="mb7152e6bd5" style="stroke:#000000;stroke-width:0.8;"/>
      </defs>
      <g>
       <use style="stroke:#000000;stroke-width:0.8;" x="81" xlink:href="#mb7152e6bd5" y="379.49581"/>
      </g>
     </g>
     <g id="text_8">
      <!-- 0.00 -->
      <g transform="translate(38.970312 385.937841)scale(0.18 -0.18)">
       <defs>
        <path d="M 9.078125 0 
L 9.078125 10.015625 
L 19.09375 10.015625 
L 19.09375 0 
z
" id="ArialMT-46"/>
       </defs>
       <use xlink:href="#ArialMT-48"/>
       <use x="55.615234" xlink:href="#ArialMT-46"/>
       <use x="83.398438" xlink:href="#ArialMT-48"/>
       <use x="139.013672" xlink:href="#ArialMT-48"/>
      </g>
     </g>
    </g>
    <g id="ytick_2">
     <g id="line2d_8">
      <g>
       <use style="stroke:#000000;stroke-width:0.8;" x="81" xlink:href="#mb7152e6bd5" y="306.089645"/>
      </g>
     </g>
     <g id="text_9">
      <!-- 0.01 -->
      <g transform="translate(38.970312 312.531676)scale(0.18 -0.18)">
       <use xlink:href="#ArialMT-48"/>
       <use x="55.615234" xlink:href="#ArialMT-46"/>
       <use x="83.398438" xlink:href="#ArialMT-48"/>
       <use x="139.013672" xlink:href="#ArialMT-49"/>
      </g>
     </g>
    </g>
    <g id="ytick_3">
     <g id="line2d_9">
      <g>
       <use style="stroke:#000000;stroke-width:0.8;" x="81" xlink:href="#mb7152e6bd5" y="232.683481"/>
      </g>
     </g>
     <g id="text_10">
      <!-- 0.02 -->
      <g transform="translate(38.970312 239.125512)scale(0.18 -0.18)">
       <use xlink:href="#ArialMT-48"/>
       <use x="55.615234" xlink:href="#ArialMT-46"/>
       <use x="83.398438" xlink:href="#ArialMT-48"/>
       <use x="139.013672" xlink:href="#ArialMT-50"/>
      </g>
     </g>
    </g>
    <g id="ytick_4">
     <g id="line2d_10">
      <g>
       <use style="stroke:#000000;stroke-width:0.8;" x="81" xlink:href="#mb7152e6bd5" y="159.277316"/>
      </g>
     </g>
     <g id="text_11">
      <!-- 0.03 -->
      <g transform="translate(38.970312 165.719347)scale(0.18 -0.18)">
       <use xlink:href="#ArialMT-48"/>
       <use x="55.615234" xlink:href="#ArialMT-46"/>
       <use x="83.398438" xlink:href="#ArialMT-48"/>
       <use x="139.013672" xlink:href="#ArialMT-51"/>
      </g>
     </g>
    </g>
    <g id="ytick_5">
     <g id="line2d_11">
      <g>
       <use style="stroke:#000000;stroke-width:0.8;" x="81" xlink:href="#mb7152e6bd5" y="85.871151"/>
      </g>
     </g>
     <g id="text_12">
      <!-- 0.04 -->
      <g transform="translate(38.970312 92.313183)scale(0.18 -0.18)">
       <use xlink:href="#ArialMT-48"/>
       <use x="55.615234" xlink:href="#ArialMT-46"/>
       <use x="83.398438" xlink:href="#ArialMT-48"/>
       <use x="139.013672" xlink:href="#ArialMT-52"/>
      </g>
     </g>
    </g>
   </g>
   <g id="line2d_12">
    <defs>
     <path d="M 0 3 
C 0.795609 3 1.55874 2.683901 2.12132 2.12132 
C 2.683901 1.55874 3 0.795609 3 0 
C 3 -0.795609 2.683901 -1.55874 2.12132 -2.12132 
C 1.55874 -2.683901 0.795609 -3 0 -3 
C -0.795609 -3 -1.55874 -2.683901 -2.12132 -2.12132 
C -2.683901 -1.55874 -3 -0.795609 -3 0 
C -3 0.795609 -2.683901 1.55874 -2.12132 2.12132 
C -1.55874 2.683901 -0.795609 3 0 3 
z
" id="m3334369978" style="stroke:#ff0000;"/>
    </defs>
    <g clip-path="url(#p700058dd0e)">
     <use style="fill:#ff0000;stroke:#ff0000;" x="103.827273" xlink:href="#m3334369978" y="66.96"/>
     <use style="fill:#ff0000;stroke:#ff0000;" x="113.144527" xlink:href="#m3334369978" y="187.213018"/>
     <use style="fill:#ff0000;stroke:#ff0000;" x="122.461781" xlink:href="#m3334369978" y="222.416592"/>
     <use style="fill:#ff0000;stroke:#ff0000;" x="131.779035" xlink:href="#m3334369978" y="241.160612"/>
     <use style="fill:#ff0000;stroke:#ff0000;" x="141.096289" xlink:href="#m3334369978" y="251.8541"/>
     <use style="fill:#ff0000;stroke:#ff0000;" x="150.413544" xlink:href="#m3334369978" y="260.932374"/>
     <use style="fill:#ff0000;stroke:#ff0000;" x="159.730798" xlink:href="#m3334369978" y="270.190686"/>
     <use style="fill:#ff0000;stroke:#ff0000;" x="169.048052" xlink:href="#m3334369978" y="276.288732"/>
     <use style="fill:#ff0000;stroke:#ff0000;" x="178.365306" xlink:href="#m3334369978" y="280.562709"/>
     <use style="fill:#ff0000;stroke:#ff0000;" x="187.68256" xlink:href="#m3334369978" y="285.679474"/>
     <use style="fill:#ff0000;stroke:#ff0000;" x="196.999814" xlink:href="#m3334369978" y="288.878968"/>
     <use style="fill:#ff0000;stroke:#ff0000;" x="206.317069" xlink:href="#m3334369978" y="289.614539"/>
     <use style="fill:#ff0000;stroke:#ff0000;" x="215.634323" xlink:href="#m3334369978" y="289.472778"/>
     <use style="fill:#ff0000;stroke:#ff0000;" x="224.951577" xlink:href="#m3334369978" y="291.764654"/>
     <use style="fill:#ff0000;stroke:#ff0000;" x="234.268831" xlink:href="#m3334369978" y="293.82895"/>
     <use style="fill:#ff0000;stroke:#ff0000;" x="243.586085" xlink:href="#m3334369978" y="295.047327"/>
     <use style="fill:#ff0000;stroke:#ff0000;" x="252.90334" xlink:href="#m3334369978" y="296.157989"/>
     <use style="fill:#ff0000;stroke:#ff0000;" x="262.220594" xlink:href="#m3334369978" y="296.670705"/>
     <use style="fill:#ff0000;stroke:#ff0000;" x="271.537848" xlink:href="#m3334369978" y="299.283389"/>
     <use style="fill:#ff0000;stroke:#ff0000;" x="280.855102" xlink:href="#m3334369978" y="301.566364"/>
     <use style="fill:#ff0000;stroke:#ff0000;" x="290.172356" xlink:href="#m3334369978" y="304.889742"/>
     <use style="fill:#ff0000;stroke:#ff0000;" x="299.48961" xlink:href="#m3334369978" y="307.070962"/>
     <use style="fill:#ff0000;stroke:#ff0000;" x="308.806865" xlink:href="#m3334369978" y="306.755787"/>
     <use style="fill:#ff0000;stroke:#ff0000;" x="318.124119" xlink:href="#m3334369978" y="307.981869"/>
     <use style="fill:#ff0000;stroke:#ff0000;" x="327.441373" xlink:href="#m3334369978" y="307.682349"/>
     <use style="fill:#ff0000;stroke:#ff0000;" x="336.758627" xlink:href="#m3334369978" y="307.413757"/>
     <use style="fill:#ff0000;stroke:#ff0000;" x="346.075881" xlink:href="#m3334369978" y="307.512093"/>
     <use style="fill:#ff0000;stroke:#ff0000;" x="355.393135" xlink:href="#m3334369978" y="308.149834"/>
     <use style="fill:#ff0000;stroke:#ff0000;" x="364.71039" xlink:href="#m3334369978" y="308.38732"/>
     <use style="fill:#ff0000;stroke:#ff0000;" x="374.027644" xlink:href="#m3334369978" y="307.992636"/>
     <use style="fill:#ff0000;stroke:#ff0000;" x="383.344898" xlink:href="#m3334369978" y="308.062047"/>
     <use style="fill:#ff0000;stroke:#ff0000;" x="392.662152" xlink:href="#m3334369978" y="308.393234"/>
     <use style="fill:#ff0000;stroke:#ff0000;" x="401.979406" xlink:href="#m3334369978" y="308.976433"/>
     <use style="fill:#ff0000;stroke:#ff0000;" x="411.29666" xlink:href="#m3334369978" y="308.903057"/>
     <use style="fill:#ff0000;stroke:#ff0000;" x="420.613915" xlink:href="#m3334369978" y="309.264256"/>
     <use style="fill:#ff0000;stroke:#ff0000;" x="429.931169" xlink:href="#m3334369978" y="310.680317"/>
     <use style="fill:#ff0000;stroke:#ff0000;" x="439.248423" xlink:href="#m3334369978" y="310.315085"/>
     <use style="fill:#ff0000;stroke:#ff0000;" x="448.565677" xlink:href="#m3334369978" y="311.426006"/>
     <use style="fill:#ff0000;stroke:#ff0000;" x="457.882931" xlink:href="#m3334369978" y="312.337596"/>
     <use style="fill:#ff0000;stroke:#ff0000;" x="467.200186" xlink:href="#m3334369978" y="312.599557"/>
     <use style="fill:#ff0000;stroke:#ff0000;" x="476.51744" xlink:href="#m3334369978" y="313.670102"/>
     <use style="fill:#ff0000;stroke:#ff0000;" x="485.834694" xlink:href="#m3334369978" y="313.174566"/>
     <use style="fill:#ff0000;stroke:#ff0000;" x="495.151948" xlink:href="#m3334369978" y="313.245789"/>
     <use style="fill:#ff0000;stroke:#ff0000;" x="504.469202" xlink:href="#m3334369978" y="313.615157"/>
     <use style="fill:#ff0000;stroke:#ff0000;" x="513.786456" xlink:href="#m3334369978" y="313.870493"/>
     <use style="fill:#ff0000;stroke:#ff0000;" x="523.103711" xlink:href="#m3334369978" y="313.928022"/>
     <use style="fill:#ff0000;stroke:#ff0000;" x="532.420965" xlink:href="#m3334369978" y="314.330588"/>
     <use style="fill:#ff0000;stroke:#ff0000;" x="541.738219" xlink:href="#m3334369978" y="314.400129"/>
     <use style="fill:#ff0000;stroke:#ff0000;" x="551.055473" xlink:href="#m3334369978" y="314.04617"/>
     <use style="fill:#ff0000;stroke:#ff0000;" x="560.372727" xlink:href="#m3334369978" y="314.181314"/>
    </g>
   </g>
   <g id="line2d_13">
    <defs>
     <path d="M 0 3 
C 0.795609 3 1.55874 2.683901 2.12132 2.12132 
C 2.683901 1.55874 3 0.795609 3 0 
C 3 -0.795609 2.683901 -1.55874 2.12132 -2.12132 
C 1.55874 -2.683901 0.795609 -3 0 -3 
C -0.795609 -3 -1.55874 -2.683901 -2.12132 -2.12132 
C -2.683901 -1.55874 -3 -0.795609 -3 0 
C -3 0.795609 -2.683901 1.55874 -2.12132 2.12132 
C -1.55874 2.683901 -0.795609 3 0 3 
z
" id="m90b417b349" style="stroke:#0000ff;"/>
    </defs>
    <g clip-path="url(#p700058dd0e)">
     <use style="fill:#0000ff;stroke:#0000ff;" x="103.827273" xlink:href="#m90b417b349" y="343.166168"/>
     <use style="fill:#0000ff;stroke:#0000ff;" x="113.144527" xlink:href="#m90b417b349" y="359.881608"/>
     <use style="fill:#0000ff;stroke:#0000ff;" x="122.461781" xlink:href="#m90b417b349" y="362.375803"/>
     <use style="fill:#0000ff;stroke:#0000ff;" x="131.779035" xlink:href="#m90b417b349" y="363.654965"/>
     <use style="fill:#0000ff;stroke:#0000ff;" x="141.096289" xlink:href="#m90b417b349" y="364.467902"/>
     <use style="fill:#0000ff;stroke:#0000ff;" x="150.413544" xlink:href="#m90b417b349" y="365.252541"/>
     <use style="fill:#0000ff;stroke:#0000ff;" x="159.730798" xlink:href="#m90b417b349" y="365.781454"/>
     <use style="fill:#0000ff;stroke:#0000ff;" x="169.048052" xlink:href="#m90b417b349" y="366.107438"/>
     <use style="fill:#0000ff;stroke:#0000ff;" x="178.365306" xlink:href="#m90b417b349" y="366.397059"/>
     <use style="fill:#0000ff;stroke:#0000ff;" x="187.68256" xlink:href="#m90b417b349" y="366.731961"/>
     <use style="fill:#0000ff;stroke:#0000ff;" x="196.999814" xlink:href="#m90b417b349" y="366.865398"/>
     <use style="fill:#0000ff;stroke:#0000ff;" x="206.317069" xlink:href="#m90b417b349" y="367.009256"/>
     <use style="fill:#0000ff;stroke:#0000ff;" x="215.634323" xlink:href="#m90b417b349" y="366.976191"/>
     <use style="fill:#0000ff;stroke:#0000ff;" x="224.951577" xlink:href="#m90b417b349" y="367.088758"/>
     <use style="fill:#0000ff;stroke:#0000ff;" x="234.268831" xlink:href="#m90b417b349" y="367.148328"/>
     <use style="fill:#0000ff;stroke:#0000ff;" x="243.586085" xlink:href="#m90b417b349" y="367.179102"/>
     <use style="fill:#0000ff;stroke:#0000ff;" x="252.90334" xlink:href="#m90b417b349" y="367.221167"/>
     <use style="fill:#0000ff;stroke:#0000ff;" x="262.220594" xlink:href="#m90b417b349" y="367.270082"/>
     <use style="fill:#0000ff;stroke:#0000ff;" x="271.537848" xlink:href="#m90b417b349" y="367.29637"/>
     <use style="fill:#0000ff;stroke:#0000ff;" x="280.855102" xlink:href="#m90b417b349" y="367.428423"/>
     <use style="fill:#0000ff;stroke:#0000ff;" x="290.172356" xlink:href="#m90b417b349" y="367.556062"/>
     <use style="fill:#0000ff;stroke:#0000ff;" x="299.48961" xlink:href="#m90b417b349" y="367.574131"/>
     <use style="fill:#0000ff;stroke:#0000ff;" x="308.806865" xlink:href="#m90b417b349" y="367.726535"/>
     <use style="fill:#0000ff;stroke:#0000ff;" x="318.124119" xlink:href="#m90b417b349" y="367.734697"/>
     <use style="fill:#0000ff;stroke:#0000ff;" x="327.441373" xlink:href="#m90b417b349" y="367.740245"/>
     <use style="fill:#0000ff;stroke:#0000ff;" x="336.758627" xlink:href="#m90b417b349" y="367.738863"/>
     <use style="fill:#0000ff;stroke:#0000ff;" x="346.075881" xlink:href="#m90b417b349" y="367.745593"/>
     <use style="fill:#0000ff;stroke:#0000ff;" x="355.393135" xlink:href="#m90b417b349" y="367.75377"/>
     <use style="fill:#0000ff;stroke:#0000ff;" x="364.71039" xlink:href="#m90b417b349" y="367.781609"/>
     <use style="fill:#0000ff;stroke:#0000ff;" x="374.027644" xlink:href="#m90b417b349" y="367.836831"/>
     <use style="fill:#0000ff;stroke:#0000ff;" x="383.344898" xlink:href="#m90b417b349" y="367.804829"/>
     <use style="fill:#0000ff;stroke:#0000ff;" x="392.662152" xlink:href="#m90b417b349" y="367.796555"/>
     <use style="fill:#0000ff;stroke:#0000ff;" x="401.979406" xlink:href="#m90b417b349" y="367.814618"/>
     <use style="fill:#0000ff;stroke:#0000ff;" x="411.29666" xlink:href="#m90b417b349" y="367.801542"/>
     <use style="fill:#0000ff;stroke:#0000ff;" x="420.613915" xlink:href="#m90b417b349" y="367.877287"/>
     <use style="fill:#0000ff;stroke:#0000ff;" x="429.931169" xlink:href="#m90b417b349" y="367.855765"/>
     <use style="fill:#0000ff;stroke:#0000ff;" x="439.248423" xlink:href="#m90b417b349" y="367.821987"/>
     <use style="fill:#0000ff;stroke:#0000ff;" x="448.565677" xlink:href="#m90b417b349" y="367.885194"/>
     <use style="fill:#0000ff;stroke:#0000ff;" x="457.882931" xlink:href="#m90b417b349" y="367.842204"/>
     <use style="fill:#0000ff;stroke:#0000ff;" x="467.200186" xlink:href="#m90b417b349" y="367.906367"/>
     <use style="fill:#0000ff;stroke:#0000ff;" x="476.51744" xlink:href="#m90b417b349" y="367.847344"/>
     <use style="fill:#0000ff;stroke:#0000ff;" x="485.834694" xlink:href="#m90b417b349" y="367.872187"/>
     <use style="fill:#0000ff;stroke:#0000ff;" x="495.151948" xlink:href="#m90b417b349" y="367.938125"/>
     <use style="fill:#0000ff;stroke:#0000ff;" x="504.469202" xlink:href="#m90b417b349" y="367.932486"/>
     <use style="fill:#0000ff;stroke:#0000ff;" x="513.786456" xlink:href="#m90b417b349" y="367.932394"/>
     <use style="fill:#0000ff;stroke:#0000ff;" x="523.103711" xlink:href="#m90b417b349" y="367.933013"/>
     <use style="fill:#0000ff;stroke:#0000ff;" x="532.420965" xlink:href="#m90b417b349" y="367.984796"/>
     <use style="fill:#0000ff;stroke:#0000ff;" x="541.738219" xlink:href="#m90b417b349" y="368.006654"/>
     <use style="fill:#0000ff;stroke:#0000ff;" x="551.055473" xlink:href="#m90b417b349" y="367.990049"/>
     <use style="fill:#0000ff;stroke:#0000ff;" x="560.372727" xlink:href="#m90b417b349" y="367.94833"/>
    </g>
   </g>
   <g id="line2d_14">
    <path clip-path="url(#p700058dd0e)" d="M 103.827273 238.529018 
L 113.144527 220.100132 
L 122.461781 272.014208 
L 131.779035 277.036356 
L 141.096289 291.902744 
L 150.413544 252.052016 
L 159.730798 299.662458 
L 169.048052 279.074161 
L 178.365306 299.979152 
L 187.68256 275.578237 
L 196.999814 315.179023 
L 206.317069 285.622936 
L 215.634323 254.664086 
L 224.951577 293.030538 
L 234.268831 290.489896 
L 243.586085 264.675101 
L 252.90334 238.778782 
L 262.220594 315.042683 
L 271.537848 316.531094 
L 280.855102 316.726502 
L 290.172356 301.996932 
L 299.48961 320.263226 
L 308.806865 328.442423 
L 318.124119 285.432151 
L 327.441373 273.166278 
L 336.758627 318.260184 
L 346.075881 314.060636 
L 355.393135 313.229812 
L 364.71039 299.642373 
L 374.027644 294.16 
L 383.344898 285.833138 
L 392.662152 319.842556 
L 401.979406 287.035641 
L 411.29666 313.932302 
L 420.613915 320.522957 
L 429.931169 308.375705 
L 439.248423 308.000915 
L 448.565677 326.25748 
L 457.882931 292.081702 
L 467.200186 320.944919 
L 476.51744 323.824814 
L 485.834694 319.667248 
L 495.151948 323.551016 
L 504.469202 316.421724 
L 513.786456 315.814576 
L 523.103711 329.946709 
L 532.420965 314.501794 
L 541.738219 323.033645 
L 551.055473 317.190131 
L 560.372727 317.678885 
" style="fill:none;stroke:#ff0000;stroke-linecap:square;stroke-width:1.5;"/>
   </g>
   <g id="line2d_15">
    <path clip-path="url(#p700058dd0e)" d="M 103.827273 361.319266 
L 113.144527 364.338208 
L 122.461781 365.466038 
L 131.779035 366.00231 
L 141.096289 366.884371 
L 150.413544 366.268712 
L 159.730798 367.969927 
L 169.048052 366.995584 
L 178.365306 367.88718 
L 187.68256 367.247651 
L 196.999814 368.816549 
L 206.317069 368.114958 
L 215.634323 366.631405 
L 224.951577 368.270914 
L 234.268831 368.08915 
L 243.586085 366.463853 
L 252.90334 365.671194 
L 262.220594 368.828016 
L 271.537848 368.282626 
L 280.855102 368.822955 
L 290.172356 368.198816 
L 299.48961 368.539342 
L 308.806865 368.68979 
L 318.124119 367.899921 
L 327.441373 367.823638 
L 336.758627 368.563997 
L 346.075881 368.989081 
L 355.393135 368.703568 
L 364.71039 368.286313 
L 374.027644 367.452901 
L 383.344898 367.268393 
L 392.662152 368.142691 
L 401.979406 368.401483 
L 411.29666 368.698396 
L 420.613915 368.478911 
L 429.931169 367.908002 
L 439.248423 368.001232 
L 448.565677 369.041699 
L 457.882931 368.228124 
L 467.200186 367.8513 
L 476.51744 369.159836 
L 485.834694 369.219225 
L 495.151948 368.736572 
L 504.469202 368.708256 
L 513.786456 368.322088 
L 523.103711 368.641909 
L 532.420965 368.700979 
L 541.738219 369.36 
L 551.055473 368.98833 
L 560.372727 368.765815 
" style="fill:none;stroke:#0000ff;stroke-linecap:square;stroke-width:1.5;"/>
   </g>
   <g id="patch_3">
    <path d="M 81 384.48 
L 81 51.84 
" style="fill:none;stroke:#000000;stroke-linecap:square;stroke-linejoin:miter;stroke-width:0.8;"/>
   </g>
   <g id="patch_4">
    <path d="M 583.2 384.48 
L 583.2 51.84 
" style="fill:none;stroke:#000000;stroke-linecap:square;stroke-linejoin:miter;stroke-width:0.8;"/>
   </g>
   <g id="patch_5">
    <path d="M 81 384.48 
L 583.2 384.48 
" style="fill:none;stroke:#000000;stroke-linecap:square;stroke-linejoin:miter;stroke-width:0.8;"/>
   </g>
   <g id="patch_6">
    <path d="M 81 51.84 
L 583.2 51.84 
" style="fill:none;stroke:#000000;stroke-linecap:square;stroke-linejoin:miter;stroke-width:0.8;"/>
   </g>
   <g id="legend_1">
    <g id="patch_7">
     <path d="M 478.022813 142.25375 
L 573.4 142.25375 
Q 576.2 142.25375 576.2 139.45375 
L 576.2 61.64 
Q 576.2 58.84 573.4 58.84 
L 478.022813 58.84 
Q 475.222813 58.84 475.222813 61.64 
L 475.222813 139.45375 
Q 475.222813 142.25375 478.022813 142.25375 
z
" style="fill:#ffffff;opacity:0.8;stroke:#cccccc;stroke-linejoin:miter;"/>
    </g>
    <g id="line2d_16"/>
    <g id="line2d_17">
     <g>
      <use style="fill:#ff0000;stroke:#ff0000;" x="494.822813" xlink:href="#m3334369978" y="69.560937"/>
     </g>
    </g>
    <g id="text_13">
     <!-- acc -->
     <g transform="translate(520.022813 74.460938)scale(0.14 -0.14)">
      <defs>
       <path d="M 40.4375 6.390625 
Q 35.546875 2.25 31.03125 0.53125 
Q 26.515625 -1.171875 21.34375 -1.171875 
Q 12.796875 -1.171875 8.203125 3 
Q 3.609375 7.171875 3.609375 13.671875 
Q 3.609375 17.484375 5.34375 20.625 
Q 7.078125 23.78125 9.890625 25.6875 
Q 12.703125 27.59375 16.21875 28.5625 
Q 18.796875 29.25 24.03125 29.890625 
Q 34.671875 31.15625 39.703125 32.90625 
Q 39.75 34.71875 39.75 35.203125 
Q 39.75 40.578125 37.25 42.78125 
Q 33.890625 45.75 27.25 45.75 
Q 21.046875 45.75 18.09375 43.578125 
Q 15.140625 41.40625 13.71875 35.890625 
L 5.125 37.0625 
Q 6.296875 42.578125 8.984375 45.96875 
Q 11.671875 49.359375 16.75 51.1875 
Q 21.828125 53.03125 28.515625 53.03125 
Q 35.15625 53.03125 39.296875 51.46875 
Q 43.453125 49.90625 45.40625 47.53125 
Q 47.359375 45.171875 48.140625 41.546875 
Q 48.578125 39.3125 48.578125 33.453125 
L 48.578125 21.734375 
Q 48.578125 9.46875 49.140625 6.21875 
Q 49.703125 2.984375 51.375 0 
L 42.1875 0 
Q 40.828125 2.734375 40.4375 6.390625 
z
M 39.703125 26.03125 
Q 34.90625 24.078125 25.34375 22.703125 
Q 19.921875 21.921875 17.671875 20.9375 
Q 15.4375 19.96875 14.203125 18.09375 
Q 12.984375 16.21875 12.984375 13.921875 
Q 12.984375 10.40625 15.640625 8.0625 
Q 18.3125 5.71875 23.4375 5.71875 
Q 28.515625 5.71875 32.46875 7.9375 
Q 36.421875 10.15625 38.28125 14.015625 
Q 39.703125 17 39.703125 22.796875 
z
" id="ArialMT-97"/>
      </defs>
      <use xlink:href="#ArialMT-97"/>
      <use x="55.615234" xlink:href="#ArialMT-99"/>
      <use x="105.615234" xlink:href="#ArialMT-99"/>
     </g>
    </g>
    <g id="line2d_18"/>
    <g id="line2d_19">
     <g>
      <use style="fill:#0000ff;stroke:#0000ff;" x="494.822813" xlink:href="#m90b417b349" y="89.364375"/>
     </g>
    </g>
    <g id="text_14">
     <!-- loss -->
     <g transform="translate(520.022813 94.264375)scale(0.14 -0.14)">
      <defs>
       <path d="M 6.390625 0 
L 6.390625 71.578125 
L 15.1875 71.578125 
L 15.1875 0 
z
" id="ArialMT-108"/>
      </defs>
      <use xlink:href="#ArialMT-108"/>
      <use x="22.216797" xlink:href="#ArialMT-111"/>
      <use x="77.832031" xlink:href="#ArialMT-115"/>
      <use x="127.832031" xlink:href="#ArialMT-115"/>
     </g>
    </g>
    <g id="line2d_20">
     <path d="M 480.822813 109.167812 
L 508.822813 109.167812 
" style="fill:none;stroke:#ff0000;stroke-linecap:square;stroke-width:1.5;"/>
    </g>
    <g id="line2d_21"/>
    <g id="text_15">
     <!-- val_acc -->
     <g transform="translate(520.022813 114.067813)scale(0.14 -0.14)">
      <defs>
       <path d="M 21 0 
L 1.265625 51.859375 
L 10.546875 51.859375 
L 21.6875 20.796875 
Q 23.484375 15.765625 25 10.359375 
Q 26.171875 14.453125 28.265625 20.21875 
L 39.796875 51.859375 
L 48.828125 51.859375 
L 29.203125 0 
z
" id="ArialMT-118"/>
       <path d="M -1.515625 -19.875 
L -1.515625 -13.53125 
L 56.734375 -13.53125 
L 56.734375 -19.875 
z
" id="ArialMT-95"/>
      </defs>
      <use xlink:href="#ArialMT-118"/>
      <use x="50" xlink:href="#ArialMT-97"/>
      <use x="105.615234" xlink:href="#ArialMT-108"/>
      <use x="127.832031" xlink:href="#ArialMT-95"/>
      <use x="183.447266" xlink:href="#ArialMT-97"/>
      <use x="239.0625" xlink:href="#ArialMT-99"/>
      <use x="289.0625" xlink:href="#ArialMT-99"/>
     </g>
    </g>
    <g id="line2d_22">
     <path d="M 480.822813 128.97125 
L 508.822813 128.97125 
" style="fill:none;stroke:#0000ff;stroke-linecap:square;stroke-width:1.5;"/>
    </g>
    <g id="line2d_23"/>
    <g id="text_16">
     <!-- val_loss -->
     <g transform="translate(520.022813 133.87125)scale(0.14 -0.14)">
      <use xlink:href="#ArialMT-118"/>
      <use x="50" xlink:href="#ArialMT-97"/>
      <use x="105.615234" xlink:href="#ArialMT-108"/>
      <use x="127.832031" xlink:href="#ArialMT-95"/>
      <use x="183.447266" xlink:href="#ArialMT-108"/>
      <use x="205.664062" xlink:href="#ArialMT-111"/>
      <use x="261.279297" xlink:href="#ArialMT-115"/>
      <use x="311.279297" xlink:href="#ArialMT-115"/>
     </g>
    </g>
   </g>
  </g>
 </g>
 <defs>
  <clipPath id="p700058dd0e">
   <rect height="332.64" width="502.2" x="81" y="51.84"/>
  </clipPath>
 </defs>
</svg>
