<?xml version="1.0" encoding="utf-8" standalone="no"?>
<!DOCTYPE svg PUBLIC "-//W3C//DTD SVG 1.1//EN"
  "http://www.w3.org/Graphics/SVG/1.1/DTD/svg11.dtd">
<!-- Created with matplotlib (https://matplotlib.org/) -->
<svg height="345.6pt" version="1.1" viewBox="0 0 460.8 345.6" width="460.8pt" xmlns="http://www.w3.org/2000/svg" xmlns:xlink="http://www.w3.org/1999/xlink">
 <metadata>
  <rdf:RDF xmlns:cc="http://creativecommons.org/ns#" xmlns:dc="http://purl.org/dc/elements/1.1/" xmlns:rdf="http://www.w3.org/1999/02/22-rdf-syntax-ns#">
   <cc:Work>
    <dc:type rdf:resource="http://purl.org/dc/dcmitype/StillImage"/>
    <dc:date>2021-09-04T11:34:33.674315</dc:date>
    <dc:format>image/svg+xml</dc:format>
    <dc:creator>
     <cc:Agent>
      <dc:title>Matplotlib v3.3.4, https://matplotlib.org/</dc:title>
     </cc:Agent>
    </dc:creator>
   </cc:Work>
  </rdf:RDF>
 </metadata>
 <defs>
  <style type="text/css">*{stroke-linecap:butt;stroke-linejoin:round;}</style>
 </defs>
 <g id="figure_1">
  <g id="patch_1">
   <path d="M 0 345.6 
L 460.8 345.6 
L 460.8 0 
L 0 0 
z
" style="fill:#ffffff;"/>
  </g>
  <g id="axes_1">
   <g id="patch_2">
    <path d="M 57.6 307.584 
L 414.72 307.584 
L 414.72 41.472 
L 57.6 41.472 
z
" style="fill:#ffffff;"/>
   </g>
   <g id="matplotlib.axis_1">
    <g id="xtick_1">
     <g id="line2d_1">
      <defs>
       <path d="M 0 0 
L 0 3.5 
" id="me7e43f741d" style="stroke:#000000;stroke-width:0.8;"/>
      </defs>
      <g>
       <use style="stroke:#000000;stroke-width:0.8;" x="67.207124" xlink:href="#me7e43f741d" y="307.584"/>
      </g>
     </g>
     <g id="text_1">
      <!-- 0 -->
      <g transform="translate(64.025874 322.182437)scale(0.1 -0.1)">
       <defs>
        <path d="M 31.78125 66.40625 
Q 24.171875 66.40625 20.328125 58.90625 
Q 16.5 51.421875 16.5 36.375 
Q 16.5 21.390625 20.328125 13.890625 
Q 24.171875 6.390625 31.78125 6.390625 
Q 39.453125 6.390625 43.28125 13.890625 
Q 47.125 21.390625 47.125 36.375 
Q 47.125 51.421875 43.28125 58.90625 
Q 39.453125 66.40625 31.78125 66.40625 
z
M 31.78125 74.21875 
Q 44.046875 74.21875 50.515625 64.515625 
Q 56.984375 54.828125 56.984375 36.375 
Q 56.984375 17.96875 50.515625 8.265625 
Q 44.046875 -1.421875 31.78125 -1.421875 
Q 19.53125 -1.421875 13.0625 8.265625 
Q 6.59375 17.96875 6.59375 36.375 
Q 6.59375 54.828125 13.0625 64.515625 
Q 19.53125 74.21875 31.78125 74.21875 
z
" id="DejaVuSans-48"/>
       </defs>
       <use xlink:href="#DejaVuSans-48"/>
      </g>
     </g>
    </g>
    <g id="xtick_2">
     <g id="line2d_2">
      <g>
       <use style="stroke:#000000;stroke-width:0.8;" x="133.463154" xlink:href="#me7e43f741d" y="307.584"/>
      </g>
     </g>
     <g id="text_2">
      <!-- 10 -->
      <g transform="translate(127.100654 322.182437)scale(0.1 -0.1)">
       <defs>
        <path d="M 12.40625 8.296875 
L 28.515625 8.296875 
L 28.515625 63.921875 
L 10.984375 60.40625 
L 10.984375 69.390625 
L 28.421875 72.90625 
L 38.28125 72.90625 
L 38.28125 8.296875 
L 54.390625 8.296875 
L 54.390625 0 
L 12.40625 0 
z
" id="DejaVuSans-49"/>
       </defs>
       <use xlink:href="#DejaVuSans-49"/>
       <use x="63.623047" xlink:href="#DejaVuSans-48"/>
      </g>
     </g>
    </g>
    <g id="xtick_3">
     <g id="line2d_3">
      <g>
       <use style="stroke:#000000;stroke-width:0.8;" x="199.719184" xlink:href="#me7e43f741d" y="307.584"/>
      </g>
     </g>
     <g id="text_3">
      <!-- 20 -->
      <g transform="translate(193.356684 322.182437)scale(0.1 -0.1)">
       <defs>
        <path d="M 19.1875 8.296875 
L 53.609375 8.296875 
L 53.609375 0 
L 7.328125 0 
L 7.328125 8.296875 
Q 12.9375 14.109375 22.625 23.890625 
Q 32.328125 33.6875 34.8125 36.53125 
Q 39.546875 41.84375 41.421875 45.53125 
Q 43.3125 49.21875 43.3125 52.78125 
Q 43.3125 58.59375 39.234375 62.25 
Q 35.15625 65.921875 28.609375 65.921875 
Q 23.96875 65.921875 18.8125 64.3125 
Q 13.671875 62.703125 7.8125 59.421875 
L 7.8125 69.390625 
Q 13.765625 71.78125 18.9375 73 
Q 24.125 74.21875 28.421875 74.21875 
Q 39.75 74.21875 46.484375 68.546875 
Q 53.21875 62.890625 53.21875 53.421875 
Q 53.21875 48.921875 51.53125 44.890625 
Q 49.859375 40.875 45.40625 35.40625 
Q 44.1875 33.984375 37.640625 27.21875 
Q 31.109375 20.453125 19.1875 8.296875 
z
" id="DejaVuSans-50"/>
       </defs>
       <use xlink:href="#DejaVuSans-50"/>
       <use x="63.623047" xlink:href="#DejaVuSans-48"/>
      </g>
     </g>
    </g>
    <g id="xtick_4">
     <g id="line2d_4">
      <g>
       <use style="stroke:#000000;stroke-width:0.8;" x="265.975213" xlink:href="#me7e43f741d" y="307.584"/>
      </g>
     </g>
     <g id="text_4">
      <!-- 30 -->
      <g transform="translate(259.612713 322.182437)scale(0.1 -0.1)">
       <defs>
        <path d="M 40.578125 39.3125 
Q 47.65625 37.796875 51.625 33 
Q 55.609375 28.21875 55.609375 21.1875 
Q 55.609375 10.40625 48.1875 4.484375 
Q 40.765625 -1.421875 27.09375 -1.421875 
Q 22.515625 -1.421875 17.65625 -0.515625 
Q 12.796875 0.390625 7.625 2.203125 
L 7.625 11.71875 
Q 11.71875 9.328125 16.59375 8.109375 
Q 21.484375 6.890625 26.8125 6.890625 
Q 36.078125 6.890625 40.9375 10.546875 
Q 45.796875 14.203125 45.796875 21.1875 
Q 45.796875 27.640625 41.28125 31.265625 
Q 36.765625 34.90625 28.71875 34.90625 
L 20.21875 34.90625 
L 20.21875 43.015625 
L 29.109375 43.015625 
Q 36.375 43.015625 40.234375 45.921875 
Q 44.09375 48.828125 44.09375 54.296875 
Q 44.09375 59.90625 40.109375 62.90625 
Q 36.140625 65.921875 28.71875 65.921875 
Q 24.65625 65.921875 20.015625 65.03125 
Q 15.375 64.15625 9.8125 62.3125 
L 9.8125 71.09375 
Q 15.4375 72.65625 20.34375 73.4375 
Q 25.25 74.21875 29.59375 74.21875 
Q 40.828125 74.21875 47.359375 69.109375 
Q 53.90625 64.015625 53.90625 55.328125 
Q 53.90625 49.265625 50.4375 45.09375 
Q 46.96875 40.921875 40.578125 39.3125 
z
" id="DejaVuSans-51"/>
       </defs>
       <use xlink:href="#DejaVuSans-51"/>
       <use x="63.623047" xlink:href="#DejaVuSans-48"/>
      </g>
     </g>
    </g>
    <g id="xtick_5">
     <g id="line2d_5">
      <g>
       <use style="stroke:#000000;stroke-width:0.8;" x="332.231243" xlink:href="#me7e43f741d" y="307.584"/>
      </g>
     </g>
     <g id="text_5">
      <!-- 40 -->
      <g transform="translate(325.868743 322.182437)scale(0.1 -0.1)">
       <defs>
        <path d="M 37.796875 64.3125 
L 12.890625 25.390625 
L 37.796875 25.390625 
z
M 35.203125 72.90625 
L 47.609375 72.90625 
L 47.609375 25.390625 
L 58.015625 25.390625 
L 58.015625 17.1875 
L 47.609375 17.1875 
L 47.609375 0 
L 37.796875 0 
L 37.796875 17.1875 
L 4.890625 17.1875 
L 4.890625 26.703125 
z
" id="DejaVuSans-52"/>
       </defs>
       <use xlink:href="#DejaVuSans-52"/>
       <use x="63.623047" xlink:href="#DejaVuSans-48"/>
      </g>
     </g>
    </g>
    <g id="xtick_6">
     <g id="line2d_6">
      <g>
       <use style="stroke:#000000;stroke-width:0.8;" x="398.487273" xlink:href="#me7e43f741d" y="307.584"/>
      </g>
     </g>
     <g id="text_6">
      <!-- 50 -->
      <g transform="translate(392.124773 322.182437)scale(0.1 -0.1)">
       <defs>
        <path d="M 10.796875 72.90625 
L 49.515625 72.90625 
L 49.515625 64.59375 
L 19.828125 64.59375 
L 19.828125 46.734375 
Q 21.96875 47.46875 24.109375 47.828125 
Q 26.265625 48.1875 28.421875 48.1875 
Q 40.625 48.1875 47.75 41.5 
Q 54.890625 34.8125 54.890625 23.390625 
Q 54.890625 11.625 47.5625 5.09375 
Q 40.234375 -1.421875 26.90625 -1.421875 
Q 22.3125 -1.421875 17.546875 -0.640625 
Q 12.796875 0.140625 7.71875 1.703125 
L 7.71875 11.625 
Q 12.109375 9.234375 16.796875 8.0625 
Q 21.484375 6.890625 26.703125 6.890625 
Q 35.15625 6.890625 40.078125 11.328125 
Q 45.015625 15.765625 45.015625 23.390625 
Q 45.015625 31 40.078125 35.4375 
Q 35.15625 39.890625 26.703125 39.890625 
Q 22.75 39.890625 18.8125 39.015625 
Q 14.890625 38.140625 10.796875 36.28125 
z
" id="DejaVuSans-53"/>
       </defs>
       <use xlink:href="#DejaVuSans-53"/>
       <use x="63.623047" xlink:href="#DejaVuSans-48"/>
      </g>
     </g>
    </g>
   </g>
   <g id="matplotlib.axis_2">
    <g id="ytick_1">
     <g id="line2d_7">
      <defs>
       <path d="M 0 0 
L -3.5 0 
" id="m188756b8ae" style="stroke:#000000;stroke-width:0.8;"/>
      </defs>
      <g>
       <use style="stroke:#000000;stroke-width:0.8;" x="57.6" xlink:href="#m188756b8ae" y="296.664755"/>
      </g>
     </g>
     <g id="text_7">
      <!-- 0.00 -->
      <g transform="translate(28.334375 300.463974)scale(0.1 -0.1)">
       <defs>
        <path d="M 10.6875 12.40625 
L 21 12.40625 
L 21 0 
L 10.6875 0 
z
" id="DejaVuSans-46"/>
       </defs>
       <use xlink:href="#DejaVuSans-48"/>
       <use x="63.623047" xlink:href="#DejaVuSans-46"/>
       <use x="95.410156" xlink:href="#DejaVuSans-48"/>
       <use x="159.033203" xlink:href="#DejaVuSans-48"/>
      </g>
     </g>
    </g>
    <g id="ytick_2">
     <g id="line2d_8">
      <g>
       <use style="stroke:#000000;stroke-width:0.8;" x="57.6" xlink:href="#m188756b8ae" y="246.37909"/>
      </g>
     </g>
     <g id="text_8">
      <!-- 0.01 -->
      <g transform="translate(28.334375 250.178309)scale(0.1 -0.1)">
       <use xlink:href="#DejaVuSans-48"/>
       <use x="63.623047" xlink:href="#DejaVuSans-46"/>
       <use x="95.410156" xlink:href="#DejaVuSans-48"/>
       <use x="159.033203" xlink:href="#DejaVuSans-49"/>
      </g>
     </g>
    </g>
    <g id="ytick_3">
     <g id="line2d_9">
      <g>
       <use style="stroke:#000000;stroke-width:0.8;" x="57.6" xlink:href="#m188756b8ae" y="196.093424"/>
      </g>
     </g>
     <g id="text_9">
      <!-- 0.02 -->
      <g transform="translate(28.334375 199.892643)scale(0.1 -0.1)">
       <use xlink:href="#DejaVuSans-48"/>
       <use x="63.623047" xlink:href="#DejaVuSans-46"/>
       <use x="95.410156" xlink:href="#DejaVuSans-48"/>
       <use x="159.033203" xlink:href="#DejaVuSans-50"/>
      </g>
     </g>
    </g>
    <g id="ytick_4">
     <g id="line2d_10">
      <g>
       <use style="stroke:#000000;stroke-width:0.8;" x="57.6" xlink:href="#m188756b8ae" y="145.807759"/>
      </g>
     </g>
     <g id="text_10">
      <!-- 0.03 -->
      <g transform="translate(28.334375 149.606978)scale(0.1 -0.1)">
       <use xlink:href="#DejaVuSans-48"/>
       <use x="63.623047" xlink:href="#DejaVuSans-46"/>
       <use x="95.410156" xlink:href="#DejaVuSans-48"/>
       <use x="159.033203" xlink:href="#DejaVuSans-51"/>
      </g>
     </g>
    </g>
    <g id="ytick_5">
     <g id="line2d_11">
      <g>
       <use style="stroke:#000000;stroke-width:0.8;" x="57.6" xlink:href="#m188756b8ae" y="95.522094"/>
      </g>
     </g>
     <g id="text_11">
      <!-- 0.04 -->
      <g transform="translate(28.334375 99.321313)scale(0.1 -0.1)">
       <use xlink:href="#DejaVuSans-48"/>
       <use x="63.623047" xlink:href="#DejaVuSans-46"/>
       <use x="95.410156" xlink:href="#DejaVuSans-48"/>
       <use x="159.033203" xlink:href="#DejaVuSans-52"/>
      </g>
     </g>
    </g>
    <g id="ytick_6">
     <g id="line2d_12">
      <g>
       <use style="stroke:#000000;stroke-width:0.8;" x="57.6" xlink:href="#m188756b8ae" y="45.236429"/>
      </g>
     </g>
     <g id="text_12">
      <!-- 0.05 -->
      <g transform="translate(28.334375 49.035647)scale(0.1 -0.1)">
       <use xlink:href="#DejaVuSans-48"/>
       <use x="63.623047" xlink:href="#DejaVuSans-46"/>
       <use x="95.410156" xlink:href="#DejaVuSans-48"/>
       <use x="159.033203" xlink:href="#DejaVuSans-53"/>
      </g>
     </g>
    </g>
   </g>
   <g id="line2d_13">
    <defs>
     <path d="M 0 3 
C 0.795609 3 1.55874 2.683901 2.12132 2.12132 
C 2.683901 1.55874 3 0.795609 3 0 
C 3 -0.795609 2.683901 -1.55874 2.12132 -2.12132 
C 1.55874 -2.683901 0.795609 -3 0 -3 
C -0.795609 -3 -1.55874 -2.683901 -2.12132 -2.12132 
C -2.683901 -1.55874 -3 -0.795609 -3 0 
C -3 0.795609 -2.683901 1.55874 -2.12132 2.12132 
C -1.55874 2.683901 -0.795609 3 0 3 
z
" id="mca52f6b8e9" style="stroke:#ff0000;"/>
    </defs>
    <g clip-path="url(#pa44994d650)">
     <use style="fill:#ff0000;stroke:#ff0000;" x="73.832727" xlink:href="#mca52f6b8e9" y="53.568"/>
     <use style="fill:#ff0000;stroke:#ff0000;" x="80.45833" xlink:href="#mca52f6b8e9" y="149.563394"/>
     <use style="fill:#ff0000;stroke:#ff0000;" x="87.083933" xlink:href="#mca52f6b8e9" y="173.625972"/>
     <use style="fill:#ff0000;stroke:#ff0000;" x="93.709536" xlink:href="#mca52f6b8e9" y="185.216766"/>
     <use style="fill:#ff0000;stroke:#ff0000;" x="100.335139" xlink:href="#mca52f6b8e9" y="195.707726"/>
     <use style="fill:#ff0000;stroke:#ff0000;" x="106.960742" xlink:href="#mca52f6b8e9" y="201.038586"/>
     <use style="fill:#ff0000;stroke:#ff0000;" x="113.586345" xlink:href="#mca52f6b8e9" y="205.541715"/>
     <use style="fill:#ff0000;stroke:#ff0000;" x="120.211948" xlink:href="#mca52f6b8e9" y="210.474089"/>
     <use style="fill:#ff0000;stroke:#ff0000;" x="126.837551" xlink:href="#mca52f6b8e9" y="215.402061"/>
     <use style="fill:#ff0000;stroke:#ff0000;" x="133.463154" xlink:href="#mca52f6b8e9" y="219.259421"/>
     <use style="fill:#ff0000;stroke:#ff0000;" x="140.088757" xlink:href="#mca52f6b8e9" y="222.308987"/>
     <use style="fill:#ff0000;stroke:#ff0000;" x="146.71436" xlink:href="#mca52f6b8e9" y="225.127924"/>
     <use style="fill:#ff0000;stroke:#ff0000;" x="153.339963" xlink:href="#mca52f6b8e9" y="227.553741"/>
     <use style="fill:#ff0000;stroke:#ff0000;" x="159.965566" xlink:href="#mca52f6b8e9" y="229.052315"/>
     <use style="fill:#ff0000;stroke:#ff0000;" x="166.591169" xlink:href="#mca52f6b8e9" y="230.325157"/>
     <use style="fill:#ff0000;stroke:#ff0000;" x="173.216772" xlink:href="#mca52f6b8e9" y="231.072093"/>
     <use style="fill:#ff0000;stroke:#ff0000;" x="179.842375" xlink:href="#mca52f6b8e9" y="231.863617"/>
     <use style="fill:#ff0000;stroke:#ff0000;" x="186.467978" xlink:href="#mca52f6b8e9" y="232.804916"/>
     <use style="fill:#ff0000;stroke:#ff0000;" x="193.093581" xlink:href="#mca52f6b8e9" y="233.326631"/>
     <use style="fill:#ff0000;stroke:#ff0000;" x="199.719184" xlink:href="#mca52f6b8e9" y="233.817058"/>
     <use style="fill:#ff0000;stroke:#ff0000;" x="206.344787" xlink:href="#mca52f6b8e9" y="234.188811"/>
     <use style="fill:#ff0000;stroke:#ff0000;" x="212.97039" xlink:href="#mca52f6b8e9" y="234.251501"/>
     <use style="fill:#ff0000;stroke:#ff0000;" x="219.595993" xlink:href="#mca52f6b8e9" y="234.450641"/>
     <use style="fill:#ff0000;stroke:#ff0000;" x="226.221596" xlink:href="#mca52f6b8e9" y="235.062124"/>
     <use style="fill:#ff0000;stroke:#ff0000;" x="232.847199" xlink:href="#mca52f6b8e9" y="235.244353"/>
     <use style="fill:#ff0000;stroke:#ff0000;" x="239.472801" xlink:href="#mca52f6b8e9" y="235.207191"/>
     <use style="fill:#ff0000;stroke:#ff0000;" x="246.098404" xlink:href="#mca52f6b8e9" y="235.572154"/>
     <use style="fill:#ff0000;stroke:#ff0000;" x="252.724007" xlink:href="#mca52f6b8e9" y="235.595922"/>
     <use style="fill:#ff0000;stroke:#ff0000;" x="259.34961" xlink:href="#mca52f6b8e9" y="235.774305"/>
     <use style="fill:#ff0000;stroke:#ff0000;" x="265.975213" xlink:href="#mca52f6b8e9" y="235.85244"/>
     <use style="fill:#ff0000;stroke:#ff0000;" x="272.600816" xlink:href="#mca52f6b8e9" y="236.392228"/>
     <use style="fill:#ff0000;stroke:#ff0000;" x="279.226419" xlink:href="#mca52f6b8e9" y="236.339092"/>
     <use style="fill:#ff0000;stroke:#ff0000;" x="285.852022" xlink:href="#mca52f6b8e9" y="236.185028"/>
     <use style="fill:#ff0000;stroke:#ff0000;" x="292.477625" xlink:href="#mca52f6b8e9" y="236.24613"/>
     <use style="fill:#ff0000;stroke:#ff0000;" x="299.103228" xlink:href="#mca52f6b8e9" y="236.74065"/>
     <use style="fill:#ff0000;stroke:#ff0000;" x="305.728831" xlink:href="#mca52f6b8e9" y="236.872305"/>
     <use style="fill:#ff0000;stroke:#ff0000;" x="312.354434" xlink:href="#mca52f6b8e9" y="236.74893"/>
     <use style="fill:#ff0000;stroke:#ff0000;" x="318.980037" xlink:href="#mca52f6b8e9" y="236.728225"/>
     <use style="fill:#ff0000;stroke:#ff0000;" x="325.60564" xlink:href="#mca52f6b8e9" y="237.091081"/>
     <use style="fill:#ff0000;stroke:#ff0000;" x="332.231243" xlink:href="#mca52f6b8e9" y="237.273422"/>
     <use style="fill:#ff0000;stroke:#ff0000;" x="338.856846" xlink:href="#mca52f6b8e9" y="237.429191"/>
     <use style="fill:#ff0000;stroke:#ff0000;" x="345.482449" xlink:href="#mca52f6b8e9" y="237.861569"/>
     <use style="fill:#ff0000;stroke:#ff0000;" x="352.108052" xlink:href="#mca52f6b8e9" y="238.235631"/>
     <use style="fill:#ff0000;stroke:#ff0000;" x="358.733655" xlink:href="#mca52f6b8e9" y="238.475707"/>
     <use style="fill:#ff0000;stroke:#ff0000;" x="365.359258" xlink:href="#mca52f6b8e9" y="238.429235"/>
     <use style="fill:#ff0000;stroke:#ff0000;" x="371.984861" xlink:href="#mca52f6b8e9" y="238.834915"/>
     <use style="fill:#ff0000;stroke:#ff0000;" x="378.610464" xlink:href="#mca52f6b8e9" y="239.007093"/>
     <use style="fill:#ff0000;stroke:#ff0000;" x="385.236067" xlink:href="#mca52f6b8e9" y="239.178653"/>
     <use style="fill:#ff0000;stroke:#ff0000;" x="391.86167" xlink:href="#mca52f6b8e9" y="239.325533"/>
     <use style="fill:#ff0000;stroke:#ff0000;" x="398.487273" xlink:href="#mca52f6b8e9" y="239.450865"/>
    </g>
   </g>
   <g id="line2d_14">
    <path clip-path="url(#pa44994d650)" d="M 73.832727 165.072974 
L 80.45833 178.968989 
L 87.083933 193.882227 
L 93.709536 167.318034 
L 100.335139 187.593696 
L 106.960742 214.896704 
L 113.586345 214.484263 
L 120.211948 213.572319 
L 126.837551 202.354598 
L 133.463154 219.979822 
L 140.088757 228.244099 
L 146.71436 242.363241 
L 153.339963 223.00933 
L 159.965566 224.017701 
L 166.591169 240.595336 
L 173.216772 226.697621 
L 179.842375 230.064634 
L 186.467978 228.426496 
L 193.093581 240.571995 
L 199.719184 219.499928 
L 206.344787 227.554552 
L 212.97039 245.178539 
L 219.595993 220.669243 
L 226.221596 243.779235 
L 232.847199 240.204461 
L 239.472801 217.505612 
L 246.098404 217.805479 
L 252.724007 245.558882 
L 259.34961 227.042573 
L 265.975213 246.120114 
L 272.600816 236.473945 
L 279.226419 227.334244 
L 285.852022 217.633221 
L 292.477625 241.709558 
L 299.103228 241.907255 
L 305.728831 230.883354 
L 312.354434 230.582078 
L 318.980037 219.49613 
L 325.60564 232.576352 
L 332.231243 238.183287 
L 338.856846 231.39663 
L 345.482449 241.015285 
L 352.108052 229.381746 
L 358.733655 244.326179 
L 365.359258 240.731697 
L 371.984861 245.989517 
L 378.610464 244.144316 
L 385.236067 230.529373 
L 391.86167 241.766496 
L 398.487273 246.183417 
" style="fill:none;stroke:#ff0000;stroke-linecap:square;stroke-width:1.5;"/>
   </g>
   <g id="line2d_15">
    <defs>
     <path d="M 0 3 
C 0.795609 3 1.55874 2.683901 2.12132 2.12132 
C 2.683901 1.55874 3 0.795609 3 0 
C 3 -0.795609 2.683901 -1.55874 2.12132 -2.12132 
C 1.55874 -2.683901 0.795609 -3 0 -3 
C -0.795609 -3 -1.55874 -2.683901 -2.12132 -2.12132 
C -2.683901 -1.55874 -3 -0.795609 -3 0 
C -3 0.795609 -2.683901 1.55874 -2.12132 2.12132 
C -1.55874 2.683901 -0.795609 3 0 3 
z
" id="mc40ecc55cb" style="stroke:#0000ff;"/>
    </defs>
    <g clip-path="url(#pa44994d650)">
     <use style="fill:#0000ff;stroke:#0000ff;" x="73.832727" xlink:href="#mc40ecc55cb" y="270.289785"/>
     <use style="fill:#0000ff;stroke:#0000ff;" x="80.45833" xlink:href="#mc40ecc55cb" y="288.432685"/>
     <use style="fill:#0000ff;stroke:#0000ff;" x="87.083933" xlink:href="#mc40ecc55cb" y="290.816997"/>
     <use style="fill:#0000ff;stroke:#0000ff;" x="93.709536" xlink:href="#mc40ecc55cb" y="291.838716"/>
     <use style="fill:#0000ff;stroke:#0000ff;" x="100.335139" xlink:href="#mc40ecc55cb" y="292.644815"/>
     <use style="fill:#0000ff;stroke:#0000ff;" x="106.960742" xlink:href="#mc40ecc55cb" y="293.039288"/>
     <use style="fill:#0000ff;stroke:#0000ff;" x="113.586345" xlink:href="#mc40ecc55cb" y="293.329154"/>
     <use style="fill:#0000ff;stroke:#0000ff;" x="120.211948" xlink:href="#mc40ecc55cb" y="293.647161"/>
     <use style="fill:#0000ff;stroke:#0000ff;" x="126.837551" xlink:href="#mc40ecc55cb" y="293.923018"/>
     <use style="fill:#0000ff;stroke:#0000ff;" x="133.463154" xlink:href="#mc40ecc55cb" y="294.152841"/>
     <use style="fill:#0000ff;stroke:#0000ff;" x="140.088757" xlink:href="#mc40ecc55cb" y="294.305402"/>
     <use style="fill:#0000ff;stroke:#0000ff;" x="146.71436" xlink:href="#mc40ecc55cb" y="294.442219"/>
     <use style="fill:#0000ff;stroke:#0000ff;" x="153.339963" xlink:href="#mc40ecc55cb" y="294.558743"/>
     <use style="fill:#0000ff;stroke:#0000ff;" x="159.965566" xlink:href="#mc40ecc55cb" y="294.639391"/>
     <use style="fill:#0000ff;stroke:#0000ff;" x="166.591169" xlink:href="#mc40ecc55cb" y="294.701586"/>
     <use style="fill:#0000ff;stroke:#0000ff;" x="173.216772" xlink:href="#mc40ecc55cb" y="294.730579"/>
     <use style="fill:#0000ff;stroke:#0000ff;" x="179.842375" xlink:href="#mc40ecc55cb" y="294.782193"/>
     <use style="fill:#0000ff;stroke:#0000ff;" x="186.467978" xlink:href="#mc40ecc55cb" y="294.821408"/>
     <use style="fill:#0000ff;stroke:#0000ff;" x="193.093581" xlink:href="#mc40ecc55cb" y="294.852905"/>
     <use style="fill:#0000ff;stroke:#0000ff;" x="199.719184" xlink:href="#mc40ecc55cb" y="294.876162"/>
     <use style="fill:#0000ff;stroke:#0000ff;" x="206.344787" xlink:href="#mc40ecc55cb" y="294.883592"/>
     <use style="fill:#0000ff;stroke:#0000ff;" x="212.97039" xlink:href="#mc40ecc55cb" y="294.89517"/>
     <use style="fill:#0000ff;stroke:#0000ff;" x="219.595993" xlink:href="#mc40ecc55cb" y="294.906268"/>
     <use style="fill:#0000ff;stroke:#0000ff;" x="226.221596" xlink:href="#mc40ecc55cb" y="294.924277"/>
     <use style="fill:#0000ff;stroke:#0000ff;" x="232.847199" xlink:href="#mc40ecc55cb" y="294.942249"/>
     <use style="fill:#0000ff;stroke:#0000ff;" x="239.472801" xlink:href="#mc40ecc55cb" y="294.946953"/>
     <use style="fill:#0000ff;stroke:#0000ff;" x="246.098404" xlink:href="#mc40ecc55cb" y="294.956998"/>
     <use style="fill:#0000ff;stroke:#0000ff;" x="252.724007" xlink:href="#mc40ecc55cb" y="294.953316"/>
     <use style="fill:#0000ff;stroke:#0000ff;" x="259.34961" xlink:href="#mc40ecc55cb" y="294.963892"/>
     <use style="fill:#0000ff;stroke:#0000ff;" x="265.975213" xlink:href="#mc40ecc55cb" y="294.973097"/>
     <use style="fill:#0000ff;stroke:#0000ff;" x="272.600816" xlink:href="#mc40ecc55cb" y="294.993434"/>
     <use style="fill:#0000ff;stroke:#0000ff;" x="279.226419" xlink:href="#mc40ecc55cb" y="294.987485"/>
     <use style="fill:#0000ff;stroke:#0000ff;" x="285.852022" xlink:href="#mc40ecc55cb" y="294.987364"/>
     <use style="fill:#0000ff;stroke:#0000ff;" x="292.477625" xlink:href="#mc40ecc55cb" y="294.985922"/>
     <use style="fill:#0000ff;stroke:#0000ff;" x="299.103228" xlink:href="#mc40ecc55cb" y="295.004615"/>
     <use style="fill:#0000ff;stroke:#0000ff;" x="305.728831" xlink:href="#mc40ecc55cb" y="295.009326"/>
     <use style="fill:#0000ff;stroke:#0000ff;" x="312.354434" xlink:href="#mc40ecc55cb" y="295.009701"/>
     <use style="fill:#0000ff;stroke:#0000ff;" x="318.980037" xlink:href="#mc40ecc55cb" y="295.017383"/>
     <use style="fill:#0000ff;stroke:#0000ff;" x="325.60564" xlink:href="#mc40ecc55cb" y="295.026556"/>
     <use style="fill:#0000ff;stroke:#0000ff;" x="332.231243" xlink:href="#mc40ecc55cb" y="295.03504"/>
     <use style="fill:#0000ff;stroke:#0000ff;" x="338.856846" xlink:href="#mc40ecc55cb" y="295.043539"/>
     <use style="fill:#0000ff;stroke:#0000ff;" x="345.482449" xlink:href="#mc40ecc55cb" y="295.055138"/>
     <use style="fill:#0000ff;stroke:#0000ff;" x="352.108052" xlink:href="#mc40ecc55cb" y="295.064712"/>
     <use style="fill:#0000ff;stroke:#0000ff;" x="358.733655" xlink:href="#mc40ecc55cb" y="295.085889"/>
     <use style="fill:#0000ff;stroke:#0000ff;" x="365.359258" xlink:href="#mc40ecc55cb" y="295.078689"/>
     <use style="fill:#0000ff;stroke:#0000ff;" x="371.984861" xlink:href="#mc40ecc55cb" y="295.098168"/>
     <use style="fill:#0000ff;stroke:#0000ff;" x="378.610464" xlink:href="#mc40ecc55cb" y="295.117677"/>
     <use style="fill:#0000ff;stroke:#0000ff;" x="385.236067" xlink:href="#mc40ecc55cb" y="295.125284"/>
     <use style="fill:#0000ff;stroke:#0000ff;" x="391.86167" xlink:href="#mc40ecc55cb" y="295.130997"/>
     <use style="fill:#0000ff;stroke:#0000ff;" x="398.487273" xlink:href="#mc40ecc55cb" y="295.129737"/>
    </g>
   </g>
   <g id="line2d_16">
    <path clip-path="url(#pa44994d650)" d="M 73.832727 289.145692 
L 80.45833 290.958949 
L 87.083933 292.591505 
L 93.709536 290.468573 
L 100.335139 292.70013 
L 106.960742 293.202343 
L 113.586345 293.72483 
L 120.211948 293.223401 
L 126.837551 293.500227 
L 133.463154 294.399047 
L 140.088757 294.53196 
L 146.71436 295.200472 
L 153.339963 294.519404 
L 159.965566 294.587333 
L 166.591169 295.114195 
L 173.216772 294.424151 
L 179.842375 294.851805 
L 186.467978 294.869829 
L 193.093581 295.062923 
L 199.719184 293.919503 
L 206.344787 294.779842 
L 212.97039 295.140886 
L 219.595993 294.268888 
L 226.221596 295.339432 
L 232.847199 295.13871 
L 239.472801 294.352825 
L 246.098404 294.415445 
L 252.724007 295.312305 
L 259.34961 294.650115 
L 265.975213 295.165271 
L 272.600816 295.025911 
L 279.226419 294.695867 
L 285.852022 294.481384 
L 292.477625 295.034965 
L 299.103228 295.143119 
L 305.728831 294.54087 
L 312.354434 294.828006 
L 318.980037 294.240614 
L 325.60564 295.048919 
L 332.231243 295.112162 
L 338.856846 294.841734 
L 345.482449 295.243409 
L 352.108052 294.896076 
L 358.733655 295.390604 
L 365.359258 295.171986 
L 371.984861 295.284576 
L 378.610464 295.295991 
L 385.236067 294.798756 
L 391.86167 295.146083 
L 398.487273 295.488 
" style="fill:none;stroke:#0000ff;stroke-linecap:square;stroke-width:1.5;"/>
   </g>
   <g id="patch_3">
    <path d="M 57.6 307.584 
L 57.6 41.472 
" style="fill:none;stroke:#000000;stroke-linecap:square;stroke-linejoin:miter;stroke-width:0.8;"/>
   </g>
   <g id="patch_4">
    <path d="M 414.72 307.584 
L 414.72 41.472 
" style="fill:none;stroke:#000000;stroke-linecap:square;stroke-linejoin:miter;stroke-width:0.8;"/>
   </g>
   <g id="patch_5">
    <path d="M 57.6 307.584 
L 414.72 307.584 
" style="fill:none;stroke:#000000;stroke-linecap:square;stroke-linejoin:miter;stroke-width:0.8;"/>
   </g>
   <g id="patch_6">
    <path d="M 57.6 41.472 
L 414.72 41.472 
" style="fill:none;stroke:#000000;stroke-linecap:square;stroke-linejoin:miter;stroke-width:0.8;"/>
   </g>
  </g>
 </g>
 <defs>
  <clipPath id="pa44994d650">
   <rect height="266.112" width="357.12" x="57.6" y="41.472"/>
  </clipPath>
 </defs>
</svg>
