<?xml version="1.0" encoding="utf-8" standalone="no"?>
<!DOCTYPE svg PUBLIC "-//W3C//DTD SVG 1.1//EN"
  "http://www.w3.org/Graphics/SVG/1.1/DTD/svg11.dtd">
<!-- Created with matplotlib (https://matplotlib.org/) -->
<svg height="345.6pt" version="1.1" viewBox="0 0 460.8 345.6" width="460.8pt" xmlns="http://www.w3.org/2000/svg" xmlns:xlink="http://www.w3.org/1999/xlink">
 <metadata>
  <rdf:RDF xmlns:cc="http://creativecommons.org/ns#" xmlns:dc="http://purl.org/dc/elements/1.1/" xmlns:rdf="http://www.w3.org/1999/02/22-rdf-syntax-ns#">
   <cc:Work>
    <dc:type rdf:resource="http://purl.org/dc/dcmitype/StillImage"/>
    <dc:date>2021-09-03T15:15:50.188546</dc:date>
    <dc:format>image/svg+xml</dc:format>
    <dc:creator>
     <cc:Agent>
      <dc:title>Matplotlib v3.3.4, https://matplotlib.org/</dc:title>
     </cc:Agent>
    </dc:creator>
   </cc:Work>
  </rdf:RDF>
 </metadata>
 <defs>
  <style type="text/css">*{stroke-linecap:butt;stroke-linejoin:round;}</style>
 </defs>
 <g id="figure_1">
  <g id="patch_1">
   <path d="M 0 345.6 
L 460.8 345.6 
L 460.8 0 
L 0 0 
z
" style="fill:#ffffff;"/>
  </g>
  <g id="axes_1">
   <g id="patch_2">
    <path d="M 57.6 307.584 
L 414.72 307.584 
L 414.72 41.472 
L 57.6 41.472 
z
" style="fill:#ffffff;"/>
   </g>
   <g id="matplotlib.axis_1">
    <g id="xtick_1">
     <g id="line2d_1">
      <defs>
       <path d="M 0 0 
L 0 3.5 
" id="m2505b3105e" style="stroke:#000000;stroke-width:0.8;"/>
      </defs>
      <g>
       <use style="stroke:#000000;stroke-width:0.8;" x="67.207124" xlink:href="#m2505b3105e" y="307.584"/>
      </g>
     </g>
     <g id="text_1">
      <!-- 0 -->
      <g transform="translate(64.025874 322.182437)scale(0.1 -0.1)">
       <defs>
        <path d="M 31.78125 66.40625 
Q 24.171875 66.40625 20.328125 58.90625 
Q 16.5 51.421875 16.5 36.375 
Q 16.5 21.390625 20.328125 13.890625 
Q 24.171875 6.390625 31.78125 6.390625 
Q 39.453125 6.390625 43.28125 13.890625 
Q 47.125 21.390625 47.125 36.375 
Q 47.125 51.421875 43.28125 58.90625 
Q 39.453125 66.40625 31.78125 66.40625 
z
M 31.78125 74.21875 
Q 44.046875 74.21875 50.515625 64.515625 
Q 56.984375 54.828125 56.984375 36.375 
Q 56.984375 17.96875 50.515625 8.265625 
Q 44.046875 -1.421875 31.78125 -1.421875 
Q 19.53125 -1.421875 13.0625 8.265625 
Q 6.59375 17.96875 6.59375 36.375 
Q 6.59375 54.828125 13.0625 64.515625 
Q 19.53125 74.21875 31.78125 74.21875 
z
" id="DejaVuSans-48"/>
       </defs>
       <use xlink:href="#DejaVuSans-48"/>
      </g>
     </g>
    </g>
    <g id="xtick_2">
     <g id="line2d_2">
      <g>
       <use style="stroke:#000000;stroke-width:0.8;" x="133.463154" xlink:href="#m2505b3105e" y="307.584"/>
      </g>
     </g>
     <g id="text_2">
      <!-- 10 -->
      <g transform="translate(127.100654 322.182437)scale(0.1 -0.1)">
       <defs>
        <path d="M 12.40625 8.296875 
L 28.515625 8.296875 
L 28.515625 63.921875 
L 10.984375 60.40625 
L 10.984375 69.390625 
L 28.421875 72.90625 
L 38.28125 72.90625 
L 38.28125 8.296875 
L 54.390625 8.296875 
L 54.390625 0 
L 12.40625 0 
z
" id="DejaVuSans-49"/>
       </defs>
       <use xlink:href="#DejaVuSans-49"/>
       <use x="63.623047" xlink:href="#DejaVuSans-48"/>
      </g>
     </g>
    </g>
    <g id="xtick_3">
     <g id="line2d_3">
      <g>
       <use style="stroke:#000000;stroke-width:0.8;" x="199.719184" xlink:href="#m2505b3105e" y="307.584"/>
      </g>
     </g>
     <g id="text_3">
      <!-- 20 -->
      <g transform="translate(193.356684 322.182437)scale(0.1 -0.1)">
       <defs>
        <path d="M 19.1875 8.296875 
L 53.609375 8.296875 
L 53.609375 0 
L 7.328125 0 
L 7.328125 8.296875 
Q 12.9375 14.109375 22.625 23.890625 
Q 32.328125 33.6875 34.8125 36.53125 
Q 39.546875 41.84375 41.421875 45.53125 
Q 43.3125 49.21875 43.3125 52.78125 
Q 43.3125 58.59375 39.234375 62.25 
Q 35.15625 65.921875 28.609375 65.921875 
Q 23.96875 65.921875 18.8125 64.3125 
Q 13.671875 62.703125 7.8125 59.421875 
L 7.8125 69.390625 
Q 13.765625 71.78125 18.9375 73 
Q 24.125 74.21875 28.421875 74.21875 
Q 39.75 74.21875 46.484375 68.546875 
Q 53.21875 62.890625 53.21875 53.421875 
Q 53.21875 48.921875 51.53125 44.890625 
Q 49.859375 40.875 45.40625 35.40625 
Q 44.1875 33.984375 37.640625 27.21875 
Q 31.109375 20.453125 19.1875 8.296875 
z
" id="DejaVuSans-50"/>
       </defs>
       <use xlink:href="#DejaVuSans-50"/>
       <use x="63.623047" xlink:href="#DejaVuSans-48"/>
      </g>
     </g>
    </g>
    <g id="xtick_4">
     <g id="line2d_4">
      <g>
       <use style="stroke:#000000;stroke-width:0.8;" x="265.975213" xlink:href="#m2505b3105e" y="307.584"/>
      </g>
     </g>
     <g id="text_4">
      <!-- 30 -->
      <g transform="translate(259.612713 322.182437)scale(0.1 -0.1)">
       <defs>
        <path d="M 40.578125 39.3125 
Q 47.65625 37.796875 51.625 33 
Q 55.609375 28.21875 55.609375 21.1875 
Q 55.609375 10.40625 48.1875 4.484375 
Q 40.765625 -1.421875 27.09375 -1.421875 
Q 22.515625 -1.421875 17.65625 -0.515625 
Q 12.796875 0.390625 7.625 2.203125 
L 7.625 11.71875 
Q 11.71875 9.328125 16.59375 8.109375 
Q 21.484375 6.890625 26.8125 6.890625 
Q 36.078125 6.890625 40.9375 10.546875 
Q 45.796875 14.203125 45.796875 21.1875 
Q 45.796875 27.640625 41.28125 31.265625 
Q 36.765625 34.90625 28.71875 34.90625 
L 20.21875 34.90625 
L 20.21875 43.015625 
L 29.109375 43.015625 
Q 36.375 43.015625 40.234375 45.921875 
Q 44.09375 48.828125 44.09375 54.296875 
Q 44.09375 59.90625 40.109375 62.90625 
Q 36.140625 65.921875 28.71875 65.921875 
Q 24.65625 65.921875 20.015625 65.03125 
Q 15.375 64.15625 9.8125 62.3125 
L 9.8125 71.09375 
Q 15.4375 72.65625 20.34375 73.4375 
Q 25.25 74.21875 29.59375 74.21875 
Q 40.828125 74.21875 47.359375 69.109375 
Q 53.90625 64.015625 53.90625 55.328125 
Q 53.90625 49.265625 50.4375 45.09375 
Q 46.96875 40.921875 40.578125 39.3125 
z
" id="DejaVuSans-51"/>
       </defs>
       <use xlink:href="#DejaVuSans-51"/>
       <use x="63.623047" xlink:href="#DejaVuSans-48"/>
      </g>
     </g>
    </g>
    <g id="xtick_5">
     <g id="line2d_5">
      <g>
       <use style="stroke:#000000;stroke-width:0.8;" x="332.231243" xlink:href="#m2505b3105e" y="307.584"/>
      </g>
     </g>
     <g id="text_5">
      <!-- 40 -->
      <g transform="translate(325.868743 322.182437)scale(0.1 -0.1)">
       <defs>
        <path d="M 37.796875 64.3125 
L 12.890625 25.390625 
L 37.796875 25.390625 
z
M 35.203125 72.90625 
L 47.609375 72.90625 
L 47.609375 25.390625 
L 58.015625 25.390625 
L 58.015625 17.1875 
L 47.609375 17.1875 
L 47.609375 0 
L 37.796875 0 
L 37.796875 17.1875 
L 4.890625 17.1875 
L 4.890625 26.703125 
z
" id="DejaVuSans-52"/>
       </defs>
       <use xlink:href="#DejaVuSans-52"/>
       <use x="63.623047" xlink:href="#DejaVuSans-48"/>
      </g>
     </g>
    </g>
    <g id="xtick_6">
     <g id="line2d_6">
      <g>
       <use style="stroke:#000000;stroke-width:0.8;" x="398.487273" xlink:href="#m2505b3105e" y="307.584"/>
      </g>
     </g>
     <g id="text_6">
      <!-- 50 -->
      <g transform="translate(392.124773 322.182437)scale(0.1 -0.1)">
       <defs>
        <path d="M 10.796875 72.90625 
L 49.515625 72.90625 
L 49.515625 64.59375 
L 19.828125 64.59375 
L 19.828125 46.734375 
Q 21.96875 47.46875 24.109375 47.828125 
Q 26.265625 48.1875 28.421875 48.1875 
Q 40.625 48.1875 47.75 41.5 
Q 54.890625 34.8125 54.890625 23.390625 
Q 54.890625 11.625 47.5625 5.09375 
Q 40.234375 -1.421875 26.90625 -1.421875 
Q 22.3125 -1.421875 17.546875 -0.640625 
Q 12.796875 0.140625 7.71875 1.703125 
L 7.71875 11.625 
Q 12.109375 9.234375 16.796875 8.0625 
Q 21.484375 6.890625 26.703125 6.890625 
Q 35.15625 6.890625 40.078125 11.328125 
Q 45.015625 15.765625 45.015625 23.390625 
Q 45.015625 31 40.078125 35.4375 
Q 35.15625 39.890625 26.703125 39.890625 
Q 22.75 39.890625 18.8125 39.015625 
Q 14.890625 38.140625 10.796875 36.28125 
z
" id="DejaVuSans-53"/>
       </defs>
       <use xlink:href="#DejaVuSans-53"/>
       <use x="63.623047" xlink:href="#DejaVuSans-48"/>
      </g>
     </g>
    </g>
   </g>
   <g id="matplotlib.axis_2">
    <g id="ytick_1">
     <g id="line2d_7">
      <defs>
       <path d="M 0 0 
L -3.5 0 
" id="mdbb0a91ed6" style="stroke:#000000;stroke-width:0.8;"/>
      </defs>
      <g>
       <use style="stroke:#000000;stroke-width:0.8;" x="57.6" xlink:href="#mdbb0a91ed6" y="301.876105"/>
      </g>
     </g>
     <g id="text_7">
      <!-- 0.00 -->
      <g transform="translate(28.334375 305.675323)scale(0.1 -0.1)">
       <defs>
        <path d="M 10.6875 12.40625 
L 21 12.40625 
L 21 0 
L 10.6875 0 
z
" id="DejaVuSans-46"/>
       </defs>
       <use xlink:href="#DejaVuSans-48"/>
       <use x="63.623047" xlink:href="#DejaVuSans-46"/>
       <use x="95.410156" xlink:href="#DejaVuSans-48"/>
       <use x="159.033203" xlink:href="#DejaVuSans-48"/>
      </g>
     </g>
    </g>
    <g id="ytick_2">
     <g id="line2d_8">
      <g>
       <use style="stroke:#000000;stroke-width:0.8;" x="57.6" xlink:href="#mdbb0a91ed6" y="246.509527"/>
      </g>
     </g>
     <g id="text_8">
      <!-- 0.02 -->
      <g transform="translate(28.334375 250.308745)scale(0.1 -0.1)">
       <use xlink:href="#DejaVuSans-48"/>
       <use x="63.623047" xlink:href="#DejaVuSans-46"/>
       <use x="95.410156" xlink:href="#DejaVuSans-48"/>
       <use x="159.033203" xlink:href="#DejaVuSans-50"/>
      </g>
     </g>
    </g>
    <g id="ytick_3">
     <g id="line2d_9">
      <g>
       <use style="stroke:#000000;stroke-width:0.8;" x="57.6" xlink:href="#mdbb0a91ed6" y="191.142949"/>
      </g>
     </g>
     <g id="text_9">
      <!-- 0.04 -->
      <g transform="translate(28.334375 194.942167)scale(0.1 -0.1)">
       <use xlink:href="#DejaVuSans-48"/>
       <use x="63.623047" xlink:href="#DejaVuSans-46"/>
       <use x="95.410156" xlink:href="#DejaVuSans-48"/>
       <use x="159.033203" xlink:href="#DejaVuSans-52"/>
      </g>
     </g>
    </g>
    <g id="ytick_4">
     <g id="line2d_10">
      <g>
       <use style="stroke:#000000;stroke-width:0.8;" x="57.6" xlink:href="#mdbb0a91ed6" y="135.776371"/>
      </g>
     </g>
     <g id="text_10">
      <!-- 0.06 -->
      <g transform="translate(28.334375 139.575589)scale(0.1 -0.1)">
       <defs>
        <path d="M 33.015625 40.375 
Q 26.375 40.375 22.484375 35.828125 
Q 18.609375 31.296875 18.609375 23.390625 
Q 18.609375 15.53125 22.484375 10.953125 
Q 26.375 6.390625 33.015625 6.390625 
Q 39.65625 6.390625 43.53125 10.953125 
Q 47.40625 15.53125 47.40625 23.390625 
Q 47.40625 31.296875 43.53125 35.828125 
Q 39.65625 40.375 33.015625 40.375 
z
M 52.59375 71.296875 
L 52.59375 62.3125 
Q 48.875 64.0625 45.09375 64.984375 
Q 41.3125 65.921875 37.59375 65.921875 
Q 27.828125 65.921875 22.671875 59.328125 
Q 17.53125 52.734375 16.796875 39.40625 
Q 19.671875 43.65625 24.015625 45.921875 
Q 28.375 48.1875 33.59375 48.1875 
Q 44.578125 48.1875 50.953125 41.515625 
Q 57.328125 34.859375 57.328125 23.390625 
Q 57.328125 12.15625 50.6875 5.359375 
Q 44.046875 -1.421875 33.015625 -1.421875 
Q 20.359375 -1.421875 13.671875 8.265625 
Q 6.984375 17.96875 6.984375 36.375 
Q 6.984375 53.65625 15.1875 63.9375 
Q 23.390625 74.21875 37.203125 74.21875 
Q 40.921875 74.21875 44.703125 73.484375 
Q 48.484375 72.75 52.59375 71.296875 
z
" id="DejaVuSans-54"/>
       </defs>
       <use xlink:href="#DejaVuSans-48"/>
       <use x="63.623047" xlink:href="#DejaVuSans-46"/>
       <use x="95.410156" xlink:href="#DejaVuSans-48"/>
       <use x="159.033203" xlink:href="#DejaVuSans-54"/>
      </g>
     </g>
    </g>
    <g id="ytick_5">
     <g id="line2d_11">
      <g>
       <use style="stroke:#000000;stroke-width:0.8;" x="57.6" xlink:href="#mdbb0a91ed6" y="80.409793"/>
      </g>
     </g>
     <g id="text_11">
      <!-- 0.08 -->
      <g transform="translate(28.334375 84.209011)scale(0.1 -0.1)">
       <defs>
        <path d="M 31.78125 34.625 
Q 24.75 34.625 20.71875 30.859375 
Q 16.703125 27.09375 16.703125 20.515625 
Q 16.703125 13.921875 20.71875 10.15625 
Q 24.75 6.390625 31.78125 6.390625 
Q 38.8125 6.390625 42.859375 10.171875 
Q 46.921875 13.96875 46.921875 20.515625 
Q 46.921875 27.09375 42.890625 30.859375 
Q 38.875 34.625 31.78125 34.625 
z
M 21.921875 38.8125 
Q 15.578125 40.375 12.03125 44.71875 
Q 8.5 49.078125 8.5 55.328125 
Q 8.5 64.0625 14.71875 69.140625 
Q 20.953125 74.21875 31.78125 74.21875 
Q 42.671875 74.21875 48.875 69.140625 
Q 55.078125 64.0625 55.078125 55.328125 
Q 55.078125 49.078125 51.53125 44.71875 
Q 48 40.375 41.703125 38.8125 
Q 48.828125 37.15625 52.796875 32.3125 
Q 56.78125 27.484375 56.78125 20.515625 
Q 56.78125 9.90625 50.3125 4.234375 
Q 43.84375 -1.421875 31.78125 -1.421875 
Q 19.734375 -1.421875 13.25 4.234375 
Q 6.78125 9.90625 6.78125 20.515625 
Q 6.78125 27.484375 10.78125 32.3125 
Q 14.796875 37.15625 21.921875 38.8125 
z
M 18.3125 54.390625 
Q 18.3125 48.734375 21.84375 45.5625 
Q 25.390625 42.390625 31.78125 42.390625 
Q 38.140625 42.390625 41.71875 45.5625 
Q 45.3125 48.734375 45.3125 54.390625 
Q 45.3125 60.0625 41.71875 63.234375 
Q 38.140625 66.40625 31.78125 66.40625 
Q 25.390625 66.40625 21.84375 63.234375 
Q 18.3125 60.0625 18.3125 54.390625 
z
" id="DejaVuSans-56"/>
       </defs>
       <use xlink:href="#DejaVuSans-48"/>
       <use x="63.623047" xlink:href="#DejaVuSans-46"/>
       <use x="95.410156" xlink:href="#DejaVuSans-48"/>
       <use x="159.033203" xlink:href="#DejaVuSans-56"/>
      </g>
     </g>
    </g>
   </g>
   <g id="line2d_12">
    <defs>
     <path d="M 0 3 
C 0.795609 3 1.55874 2.683901 2.12132 2.12132 
C 2.683901 1.55874 3 0.795609 3 0 
C 3 -0.795609 2.683901 -1.55874 2.12132 -2.12132 
C 1.55874 -2.683901 0.795609 -3 0 -3 
C -0.795609 -3 -1.55874 -2.683901 -2.12132 -2.12132 
C -2.683901 -1.55874 -3 -0.795609 -3 0 
C -3 0.795609 -2.683901 1.55874 -2.12132 2.12132 
C -1.55874 2.683901 -0.795609 3 0 3 
z
" id="mc0d7aca8ce" style="stroke:#ff0000;"/>
    </defs>
    <g clip-path="url(#p85b6c6a70f)">
     <use style="fill:#ff0000;stroke:#ff0000;" x="73.832727" xlink:href="#mc0d7aca8ce" y="53.568"/>
     <use style="fill:#ff0000;stroke:#ff0000;" x="80.45833" xlink:href="#mc0d7aca8ce" y="118.773768"/>
     <use style="fill:#ff0000;stroke:#ff0000;" x="87.083933" xlink:href="#mc0d7aca8ce" y="130.428079"/>
     <use style="fill:#ff0000;stroke:#ff0000;" x="93.709536" xlink:href="#mc0d7aca8ce" y="138.221794"/>
     <use style="fill:#ff0000;stroke:#ff0000;" x="100.335139" xlink:href="#mc0d7aca8ce" y="143.930522"/>
     <use style="fill:#ff0000;stroke:#ff0000;" x="106.960742" xlink:href="#mc0d7aca8ce" y="148.088541"/>
     <use style="fill:#ff0000;stroke:#ff0000;" x="113.586345" xlink:href="#mc0d7aca8ce" y="152.478887"/>
     <use style="fill:#ff0000;stroke:#ff0000;" x="120.211948" xlink:href="#mc0d7aca8ce" y="155.323692"/>
     <use style="fill:#ff0000;stroke:#ff0000;" x="126.837551" xlink:href="#mc0d7aca8ce" y="158.272913"/>
     <use style="fill:#ff0000;stroke:#ff0000;" x="133.463154" xlink:href="#mc0d7aca8ce" y="160.713867"/>
     <use style="fill:#ff0000;stroke:#ff0000;" x="140.088757" xlink:href="#mc0d7aca8ce" y="163.037646"/>
     <use style="fill:#ff0000;stroke:#ff0000;" x="146.71436" xlink:href="#mc0d7aca8ce" y="164.56278"/>
     <use style="fill:#ff0000;stroke:#ff0000;" x="153.339963" xlink:href="#mc0d7aca8ce" y="165.765699"/>
     <use style="fill:#ff0000;stroke:#ff0000;" x="159.965566" xlink:href="#mc0d7aca8ce" y="166.839357"/>
     <use style="fill:#ff0000;stroke:#ff0000;" x="166.591169" xlink:href="#mc0d7aca8ce" y="167.79481"/>
     <use style="fill:#ff0000;stroke:#ff0000;" x="173.216772" xlink:href="#mc0d7aca8ce" y="168.710651"/>
     <use style="fill:#ff0000;stroke:#ff0000;" x="179.842375" xlink:href="#mc0d7aca8ce" y="169.89874"/>
     <use style="fill:#ff0000;stroke:#ff0000;" x="186.467978" xlink:href="#mc0d7aca8ce" y="170.777166"/>
     <use style="fill:#ff0000;stroke:#ff0000;" x="193.093581" xlink:href="#mc0d7aca8ce" y="171.691987"/>
     <use style="fill:#ff0000;stroke:#ff0000;" x="199.719184" xlink:href="#mc0d7aca8ce" y="172.500615"/>
     <use style="fill:#ff0000;stroke:#ff0000;" x="206.344787" xlink:href="#mc0d7aca8ce" y="173.235992"/>
     <use style="fill:#ff0000;stroke:#ff0000;" x="212.97039" xlink:href="#mc0d7aca8ce" y="173.797268"/>
     <use style="fill:#ff0000;stroke:#ff0000;" x="219.595993" xlink:href="#mc0d7aca8ce" y="174.317478"/>
     <use style="fill:#ff0000;stroke:#ff0000;" x="226.221596" xlink:href="#mc0d7aca8ce" y="174.673766"/>
     <use style="fill:#ff0000;stroke:#ff0000;" x="232.847199" xlink:href="#mc0d7aca8ce" y="175.016172"/>
     <use style="fill:#ff0000;stroke:#ff0000;" x="239.472801" xlink:href="#mc0d7aca8ce" y="175.627971"/>
     <use style="fill:#ff0000;stroke:#ff0000;" x="246.098404" xlink:href="#mc0d7aca8ce" y="176.155059"/>
     <use style="fill:#ff0000;stroke:#ff0000;" x="252.724007" xlink:href="#mc0d7aca8ce" y="176.752719"/>
     <use style="fill:#ff0000;stroke:#ff0000;" x="259.34961" xlink:href="#mc0d7aca8ce" y="177.301392"/>
     <use style="fill:#ff0000;stroke:#ff0000;" x="265.975213" xlink:href="#mc0d7aca8ce" y="177.778288"/>
     <use style="fill:#ff0000;stroke:#ff0000;" x="272.600816" xlink:href="#mc0d7aca8ce" y="178.063603"/>
     <use style="fill:#ff0000;stroke:#ff0000;" x="279.226419" xlink:href="#mc0d7aca8ce" y="178.421912"/>
     <use style="fill:#ff0000;stroke:#ff0000;" x="285.852022" xlink:href="#mc0d7aca8ce" y="178.57877"/>
     <use style="fill:#ff0000;stroke:#ff0000;" x="292.477625" xlink:href="#mc0d7aca8ce" y="178.647732"/>
     <use style="fill:#ff0000;stroke:#ff0000;" x="299.103228" xlink:href="#mc0d7aca8ce" y="178.921898"/>
     <use style="fill:#ff0000;stroke:#ff0000;" x="305.728831" xlink:href="#mc0d7aca8ce" y="178.906027"/>
     <use style="fill:#ff0000;stroke:#ff0000;" x="312.354434" xlink:href="#mc0d7aca8ce" y="179.173861"/>
     <use style="fill:#ff0000;stroke:#ff0000;" x="318.980037" xlink:href="#mc0d7aca8ce" y="179.096495"/>
     <use style="fill:#ff0000;stroke:#ff0000;" x="325.60564" xlink:href="#mc0d7aca8ce" y="179.440995"/>
     <use style="fill:#ff0000;stroke:#ff0000;" x="332.231243" xlink:href="#mc0d7aca8ce" y="179.494735"/>
     <use style="fill:#ff0000;stroke:#ff0000;" x="338.856846" xlink:href="#mc0d7aca8ce" y="179.731961"/>
     <use style="fill:#ff0000;stroke:#ff0000;" x="345.482449" xlink:href="#mc0d7aca8ce" y="179.985471"/>
     <use style="fill:#ff0000;stroke:#ff0000;" x="352.108052" xlink:href="#mc0d7aca8ce" y="180.23367"/>
     <use style="fill:#ff0000;stroke:#ff0000;" x="358.733655" xlink:href="#mc0d7aca8ce" y="180.240228"/>
     <use style="fill:#ff0000;stroke:#ff0000;" x="365.359258" xlink:href="#mc0d7aca8ce" y="180.153229"/>
     <use style="fill:#ff0000;stroke:#ff0000;" x="371.984861" xlink:href="#mc0d7aca8ce" y="180.310562"/>
     <use style="fill:#ff0000;stroke:#ff0000;" x="378.610464" xlink:href="#mc0d7aca8ce" y="180.45391"/>
     <use style="fill:#ff0000;stroke:#ff0000;" x="385.236067" xlink:href="#mc0d7aca8ce" y="180.40445"/>
     <use style="fill:#ff0000;stroke:#ff0000;" x="391.86167" xlink:href="#mc0d7aca8ce" y="180.606004"/>
     <use style="fill:#ff0000;stroke:#ff0000;" x="398.487273" xlink:href="#mc0d7aca8ce" y="180.663364"/>
    </g>
   </g>
   <g id="line2d_13">
    <path clip-path="url(#p85b6c6a70f)" d="M 73.832727 125.928396 
L 80.45833 113.290334 
L 87.083933 152.207485 
L 93.709536 142.850171 
L 100.335139 139.131633 
L 106.960742 164.335547 
L 113.586345 156.48536 
L 120.211948 144.295967 
L 126.837551 172.007023 
L 133.463154 184.30238 
L 140.088757 155.033963 
L 146.71436 168.341173 
L 153.339963 185.19314 
L 159.965566 175.864763 
L 166.591169 130.953446 
L 173.216772 185.737585 
L 179.842375 169.309094 
L 186.467978 189.592438 
L 193.093581 189.968279 
L 199.719184 197.848507 
L 206.344787 165.593949 
L 212.97039 117.456242 
L 219.595993 180.483807 
L 226.221596 130.544429 
L 232.847199 185.783096 
L 239.472801 156.088749 
L 246.098404 177.161818 
L 252.724007 185.10413 
L 259.34961 159.379232 
L 265.975213 181.862601 
L 272.600816 176.478201 
L 279.226419 166.215524 
L 285.852022 163.192762 
L 292.477625 181.221309 
L 299.103228 178.675576 
L 305.728831 172.44405 
L 312.354434 161.764703 
L 318.980037 187.148627 
L 325.60564 136.230685 
L 332.231243 165.60617 
L 338.856846 197.052099 
L 345.482449 147.92039 
L 352.108052 164.298751 
L 358.733655 192.848817 
L 365.359258 151.957615 
L 371.984861 171.781296 
L 378.610464 155.239859 
L 385.236067 147.625278 
L 391.86167 150.419818 
L 398.487273 189.856178 
" style="fill:none;stroke:#ff0000;stroke-linecap:square;stroke-width:1.5;"/>
   </g>
   <g id="line2d_14">
    <defs>
     <path d="M 0 3 
C 0.795609 3 1.55874 2.683901 2.12132 2.12132 
C 2.683901 1.55874 3 0.795609 3 0 
C 3 -0.795609 2.683901 -1.55874 2.12132 -2.12132 
C 1.55874 -2.683901 0.795609 -3 0 -3 
C -0.795609 -3 -1.55874 -2.683901 -2.12132 -2.12132 
C -2.683901 -1.55874 -3 -0.795609 -3 0 
C -3 0.795609 -2.683901 1.55874 -2.12132 2.12132 
C -1.55874 2.683901 -0.795609 3 0 3 
z
" id="m45a04b6be5" style="stroke:#0000ff;"/>
    </defs>
    <g clip-path="url(#p85b6c6a70f)">
     <use style="fill:#0000ff;stroke:#0000ff;" x="73.832727" xlink:href="#m45a04b6be5" y="262.78072"/>
     <use style="fill:#0000ff;stroke:#0000ff;" x="80.45833" xlink:href="#m45a04b6be5" y="282.702134"/>
     <use style="fill:#0000ff;stroke:#0000ff;" x="87.083933" xlink:href="#m45a04b6be5" y="284.979715"/>
     <use style="fill:#0000ff;stroke:#0000ff;" x="93.709536" xlink:href="#m45a04b6be5" y="286.439236"/>
     <use style="fill:#0000ff;stroke:#0000ff;" x="100.335139" xlink:href="#m45a04b6be5" y="287.494564"/>
     <use style="fill:#0000ff;stroke:#0000ff;" x="106.960742" xlink:href="#m45a04b6be5" y="288.254664"/>
     <use style="fill:#0000ff;stroke:#0000ff;" x="113.586345" xlink:href="#m45a04b6be5" y="288.990337"/>
     <use style="fill:#0000ff;stroke:#0000ff;" x="120.211948" xlink:href="#m45a04b6be5" y="289.46103"/>
     <use style="fill:#0000ff;stroke:#0000ff;" x="126.837551" xlink:href="#m45a04b6be5" y="289.918185"/>
     <use style="fill:#0000ff;stroke:#0000ff;" x="133.463154" xlink:href="#m45a04b6be5" y="290.337847"/>
     <use style="fill:#0000ff;stroke:#0000ff;" x="140.088757" xlink:href="#m45a04b6be5" y="290.697091"/>
     <use style="fill:#0000ff;stroke:#0000ff;" x="146.71436" xlink:href="#m45a04b6be5" y="290.937828"/>
     <use style="fill:#0000ff;stroke:#0000ff;" x="153.339963" xlink:href="#m45a04b6be5" y="291.122069"/>
     <use style="fill:#0000ff;stroke:#0000ff;" x="159.965566" xlink:href="#m45a04b6be5" y="291.296916"/>
     <use style="fill:#0000ff;stroke:#0000ff;" x="166.591169" xlink:href="#m45a04b6be5" y="291.428688"/>
     <use style="fill:#0000ff;stroke:#0000ff;" x="173.216772" xlink:href="#m45a04b6be5" y="291.582843"/>
     <use style="fill:#0000ff;stroke:#0000ff;" x="179.842375" xlink:href="#m45a04b6be5" y="291.750713"/>
     <use style="fill:#0000ff;stroke:#0000ff;" x="186.467978" xlink:href="#m45a04b6be5" y="291.896432"/>
     <use style="fill:#0000ff;stroke:#0000ff;" x="193.093581" xlink:href="#m45a04b6be5" y="292.058304"/>
     <use style="fill:#0000ff;stroke:#0000ff;" x="199.719184" xlink:href="#m45a04b6be5" y="292.169297"/>
     <use style="fill:#0000ff;stroke:#0000ff;" x="206.344787" xlink:href="#m45a04b6be5" y="292.264221"/>
     <use style="fill:#0000ff;stroke:#0000ff;" x="212.97039" xlink:href="#m45a04b6be5" y="292.342326"/>
     <use style="fill:#0000ff;stroke:#0000ff;" x="219.595993" xlink:href="#m45a04b6be5" y="292.43602"/>
     <use style="fill:#0000ff;stroke:#0000ff;" x="226.221596" xlink:href="#m45a04b6be5" y="292.481612"/>
     <use style="fill:#0000ff;stroke:#0000ff;" x="232.847199" xlink:href="#m45a04b6be5" y="292.524944"/>
     <use style="fill:#0000ff;stroke:#0000ff;" x="239.472801" xlink:href="#m45a04b6be5" y="292.616796"/>
     <use style="fill:#0000ff;stroke:#0000ff;" x="246.098404" xlink:href="#m45a04b6be5" y="292.699367"/>
     <use style="fill:#0000ff;stroke:#0000ff;" x="252.724007" xlink:href="#m45a04b6be5" y="292.804872"/>
     <use style="fill:#0000ff;stroke:#0000ff;" x="259.34961" xlink:href="#m45a04b6be5" y="292.868567"/>
     <use style="fill:#0000ff;stroke:#0000ff;" x="265.975213" xlink:href="#m45a04b6be5" y="292.940983"/>
     <use style="fill:#0000ff;stroke:#0000ff;" x="272.600816" xlink:href="#m45a04b6be5" y="292.987565"/>
     <use style="fill:#0000ff;stroke:#0000ff;" x="279.226419" xlink:href="#m45a04b6be5" y="293.040131"/>
     <use style="fill:#0000ff;stroke:#0000ff;" x="285.852022" xlink:href="#m45a04b6be5" y="293.056776"/>
     <use style="fill:#0000ff;stroke:#0000ff;" x="292.477625" xlink:href="#m45a04b6be5" y="293.072988"/>
     <use style="fill:#0000ff;stroke:#0000ff;" x="299.103228" xlink:href="#m45a04b6be5" y="293.102291"/>
     <use style="fill:#0000ff;stroke:#0000ff;" x="305.728831" xlink:href="#m45a04b6be5" y="293.108112"/>
     <use style="fill:#0000ff;stroke:#0000ff;" x="312.354434" xlink:href="#m45a04b6be5" y="293.134459"/>
     <use style="fill:#0000ff;stroke:#0000ff;" x="318.980037" xlink:href="#m45a04b6be5" y="293.133898"/>
     <use style="fill:#0000ff;stroke:#0000ff;" x="325.60564" xlink:href="#m45a04b6be5" y="293.168713"/>
     <use style="fill:#0000ff;stroke:#0000ff;" x="332.231243" xlink:href="#m45a04b6be5" y="293.189267"/>
     <use style="fill:#0000ff;stroke:#0000ff;" x="338.856846" xlink:href="#m45a04b6be5" y="293.231768"/>
     <use style="fill:#0000ff;stroke:#0000ff;" x="345.482449" xlink:href="#m45a04b6be5" y="293.261492"/>
     <use style="fill:#0000ff;stroke:#0000ff;" x="352.108052" xlink:href="#m45a04b6be5" y="293.279118"/>
     <use style="fill:#0000ff;stroke:#0000ff;" x="358.733655" xlink:href="#m45a04b6be5" y="293.281954"/>
     <use style="fill:#0000ff;stroke:#0000ff;" x="365.359258" xlink:href="#m45a04b6be5" y="293.296834"/>
     <use style="fill:#0000ff;stroke:#0000ff;" x="371.984861" xlink:href="#m45a04b6be5" y="293.312457"/>
     <use style="fill:#0000ff;stroke:#0000ff;" x="378.610464" xlink:href="#m45a04b6be5" y="293.318406"/>
     <use style="fill:#0000ff;stroke:#0000ff;" x="385.236067" xlink:href="#m45a04b6be5" y="293.32722"/>
     <use style="fill:#0000ff;stroke:#0000ff;" x="391.86167" xlink:href="#m45a04b6be5" y="293.351225"/>
     <use style="fill:#0000ff;stroke:#0000ff;" x="398.487273" xlink:href="#m45a04b6be5" y="293.362416"/>
    </g>
   </g>
   <g id="line2d_15">
    <path clip-path="url(#p85b6c6a70f)" d="M 73.832727 284.376558 
L 80.45833 280.876082 
L 87.083933 289.07599 
L 93.709536 287.645325 
L 100.335139 286.46839 
L 106.960742 290.738867 
L 113.586345 290.569886 
L 120.211948 287.617159 
L 126.837551 292.189181 
L 133.463154 293.816232 
L 140.088757 289.136159 
L 146.71436 291.955574 
L 153.339963 293.916358 
L 159.965566 292.623591 
L 166.591169 285.373825 
L 173.216772 294.109018 
L 179.842375 291.746187 
L 186.467978 294.564564 
L 193.093581 294.373542 
L 199.719184 295.488 
L 206.344787 291.404334 
L 212.97039 284.127301 
L 219.595993 293.371055 
L 226.221596 286.215829 
L 232.847199 293.869366 
L 239.472801 289.754094 
L 246.098404 292.934974 
L 252.724007 294.112947 
L 259.34961 290.227276 
L 265.975213 293.421103 
L 272.600816 292.821518 
L 279.226419 291.270828 
L 285.852022 291.437578 
L 292.477625 293.686513 
L 299.103228 292.920821 
L 305.728831 292.124678 
L 312.354434 290.829974 
L 318.980037 294.352629 
L 325.60564 286.146434 
L 332.231243 291.281177 
L 338.856846 295.455887 
L 345.482449 288.482733 
L 352.108052 291.407059 
L 358.733655 295.006713 
L 365.359258 288.96609 
L 371.984861 291.854159 
L 378.610464 290.114376 
L 385.236067 288.66674 
L 391.86167 289.092581 
L 398.487273 294.577815 
" style="fill:none;stroke:#0000ff;stroke-linecap:square;stroke-width:1.5;"/>
   </g>
   <g id="patch_3">
    <path d="M 57.6 307.584 
L 57.6 41.472 
" style="fill:none;stroke:#000000;stroke-linecap:square;stroke-linejoin:miter;stroke-width:0.8;"/>
   </g>
   <g id="patch_4">
    <path d="M 414.72 307.584 
L 414.72 41.472 
" style="fill:none;stroke:#000000;stroke-linecap:square;stroke-linejoin:miter;stroke-width:0.8;"/>
   </g>
   <g id="patch_5">
    <path d="M 57.6 307.584 
L 414.72 307.584 
" style="fill:none;stroke:#000000;stroke-linecap:square;stroke-linejoin:miter;stroke-width:0.8;"/>
   </g>
   <g id="patch_6">
    <path d="M 57.6 41.472 
L 414.72 41.472 
" style="fill:none;stroke:#000000;stroke-linecap:square;stroke-linejoin:miter;stroke-width:0.8;"/>
   </g>
  </g>
 </g>
 <defs>
  <clipPath id="p85b6c6a70f">
   <rect height="266.112" width="357.12" x="57.6" y="41.472"/>
  </clipPath>
 </defs>
</svg>
