<?xml version="1.0" encoding="utf-8" standalone="no"?>
<!DOCTYPE svg PUBLIC "-//W3C//DTD SVG 1.1//EN"
  "http://www.w3.org/Graphics/SVG/1.1/DTD/svg11.dtd">
<!-- Created with matplotlib (https://matplotlib.org/) -->
<svg height="345.6pt" version="1.1" viewBox="0 0 460.8 345.6" width="460.8pt" xmlns="http://www.w3.org/2000/svg" xmlns:xlink="http://www.w3.org/1999/xlink">
 <metadata>
  <rdf:RDF xmlns:cc="http://creativecommons.org/ns#" xmlns:dc="http://purl.org/dc/elements/1.1/" xmlns:rdf="http://www.w3.org/1999/02/22-rdf-syntax-ns#">
   <cc:Work>
    <dc:type rdf:resource="http://purl.org/dc/dcmitype/StillImage"/>
    <dc:date>2021-09-05T18:49:29.953100</dc:date>
    <dc:format>image/svg+xml</dc:format>
    <dc:creator>
     <cc:Agent>
      <dc:title>Matplotlib v3.3.4, https://matplotlib.org/</dc:title>
     </cc:Agent>
    </dc:creator>
   </cc:Work>
  </rdf:RDF>
 </metadata>
 <defs>
  <style type="text/css">*{stroke-linecap:butt;stroke-linejoin:round;}</style>
 </defs>
 <g id="figure_1">
  <g id="patch_1">
   <path d="M 0 345.6 
L 460.8 345.6 
L 460.8 0 
L 0 0 
z
" style="fill:#ffffff;"/>
  </g>
  <g id="axes_1">
   <g id="patch_2">
    <path d="M 57.6 307.584 
L 414.72 307.584 
L 414.72 41.472 
L 57.6 41.472 
z
" style="fill:#ffffff;"/>
   </g>
   <g id="matplotlib.axis_1">
    <g id="xtick_1">
     <g id="line2d_1">
      <defs>
       <path d="M 0 0 
L 0 3.5 
" id="m77a2d64bf4" style="stroke:#000000;stroke-width:0.8;"/>
      </defs>
      <g>
       <use style="stroke:#000000;stroke-width:0.8;" x="67.207124" xlink:href="#m77a2d64bf4" y="307.584"/>
      </g>
     </g>
     <g id="text_1">
      <!-- 0 -->
      <g transform="translate(64.025874 322.182437)scale(0.1 -0.1)">
       <defs>
        <path d="M 31.78125 66.40625 
Q 24.171875 66.40625 20.328125 58.90625 
Q 16.5 51.421875 16.5 36.375 
Q 16.5 21.390625 20.328125 13.890625 
Q 24.171875 6.390625 31.78125 6.390625 
Q 39.453125 6.390625 43.28125 13.890625 
Q 47.125 21.390625 47.125 36.375 
Q 47.125 51.421875 43.28125 58.90625 
Q 39.453125 66.40625 31.78125 66.40625 
z
M 31.78125 74.21875 
Q 44.046875 74.21875 50.515625 64.515625 
Q 56.984375 54.828125 56.984375 36.375 
Q 56.984375 17.96875 50.515625 8.265625 
Q 44.046875 -1.421875 31.78125 -1.421875 
Q 19.53125 -1.421875 13.0625 8.265625 
Q 6.59375 17.96875 6.59375 36.375 
Q 6.59375 54.828125 13.0625 64.515625 
Q 19.53125 74.21875 31.78125 74.21875 
z
" id="DejaVuSans-48"/>
       </defs>
       <use xlink:href="#DejaVuSans-48"/>
      </g>
     </g>
    </g>
    <g id="xtick_2">
     <g id="line2d_2">
      <g>
       <use style="stroke:#000000;stroke-width:0.8;" x="133.463154" xlink:href="#m77a2d64bf4" y="307.584"/>
      </g>
     </g>
     <g id="text_2">
      <!-- 10 -->
      <g transform="translate(127.100654 322.182437)scale(0.1 -0.1)">
       <defs>
        <path d="M 12.40625 8.296875 
L 28.515625 8.296875 
L 28.515625 63.921875 
L 10.984375 60.40625 
L 10.984375 69.390625 
L 28.421875 72.90625 
L 38.28125 72.90625 
L 38.28125 8.296875 
L 54.390625 8.296875 
L 54.390625 0 
L 12.40625 0 
z
" id="DejaVuSans-49"/>
       </defs>
       <use xlink:href="#DejaVuSans-49"/>
       <use x="63.623047" xlink:href="#DejaVuSans-48"/>
      </g>
     </g>
    </g>
    <g id="xtick_3">
     <g id="line2d_3">
      <g>
       <use style="stroke:#000000;stroke-width:0.8;" x="199.719184" xlink:href="#m77a2d64bf4" y="307.584"/>
      </g>
     </g>
     <g id="text_3">
      <!-- 20 -->
      <g transform="translate(193.356684 322.182437)scale(0.1 -0.1)">
       <defs>
        <path d="M 19.1875 8.296875 
L 53.609375 8.296875 
L 53.609375 0 
L 7.328125 0 
L 7.328125 8.296875 
Q 12.9375 14.109375 22.625 23.890625 
Q 32.328125 33.6875 34.8125 36.53125 
Q 39.546875 41.84375 41.421875 45.53125 
Q 43.3125 49.21875 43.3125 52.78125 
Q 43.3125 58.59375 39.234375 62.25 
Q 35.15625 65.921875 28.609375 65.921875 
Q 23.96875 65.921875 18.8125 64.3125 
Q 13.671875 62.703125 7.8125 59.421875 
L 7.8125 69.390625 
Q 13.765625 71.78125 18.9375 73 
Q 24.125 74.21875 28.421875 74.21875 
Q 39.75 74.21875 46.484375 68.546875 
Q 53.21875 62.890625 53.21875 53.421875 
Q 53.21875 48.921875 51.53125 44.890625 
Q 49.859375 40.875 45.40625 35.40625 
Q 44.1875 33.984375 37.640625 27.21875 
Q 31.109375 20.453125 19.1875 8.296875 
z
" id="DejaVuSans-50"/>
       </defs>
       <use xlink:href="#DejaVuSans-50"/>
       <use x="63.623047" xlink:href="#DejaVuSans-48"/>
      </g>
     </g>
    </g>
    <g id="xtick_4">
     <g id="line2d_4">
      <g>
       <use style="stroke:#000000;stroke-width:0.8;" x="265.975213" xlink:href="#m77a2d64bf4" y="307.584"/>
      </g>
     </g>
     <g id="text_4">
      <!-- 30 -->
      <g transform="translate(259.612713 322.182437)scale(0.1 -0.1)">
       <defs>
        <path d="M 40.578125 39.3125 
Q 47.65625 37.796875 51.625 33 
Q 55.609375 28.21875 55.609375 21.1875 
Q 55.609375 10.40625 48.1875 4.484375 
Q 40.765625 -1.421875 27.09375 -1.421875 
Q 22.515625 -1.421875 17.65625 -0.515625 
Q 12.796875 0.390625 7.625 2.203125 
L 7.625 11.71875 
Q 11.71875 9.328125 16.59375 8.109375 
Q 21.484375 6.890625 26.8125 6.890625 
Q 36.078125 6.890625 40.9375 10.546875 
Q 45.796875 14.203125 45.796875 21.1875 
Q 45.796875 27.640625 41.28125 31.265625 
Q 36.765625 34.90625 28.71875 34.90625 
L 20.21875 34.90625 
L 20.21875 43.015625 
L 29.109375 43.015625 
Q 36.375 43.015625 40.234375 45.921875 
Q 44.09375 48.828125 44.09375 54.296875 
Q 44.09375 59.90625 40.109375 62.90625 
Q 36.140625 65.921875 28.71875 65.921875 
Q 24.65625 65.921875 20.015625 65.03125 
Q 15.375 64.15625 9.8125 62.3125 
L 9.8125 71.09375 
Q 15.4375 72.65625 20.34375 73.4375 
Q 25.25 74.21875 29.59375 74.21875 
Q 40.828125 74.21875 47.359375 69.109375 
Q 53.90625 64.015625 53.90625 55.328125 
Q 53.90625 49.265625 50.4375 45.09375 
Q 46.96875 40.921875 40.578125 39.3125 
z
" id="DejaVuSans-51"/>
       </defs>
       <use xlink:href="#DejaVuSans-51"/>
       <use x="63.623047" xlink:href="#DejaVuSans-48"/>
      </g>
     </g>
    </g>
    <g id="xtick_5">
     <g id="line2d_5">
      <g>
       <use style="stroke:#000000;stroke-width:0.8;" x="332.231243" xlink:href="#m77a2d64bf4" y="307.584"/>
      </g>
     </g>
     <g id="text_5">
      <!-- 40 -->
      <g transform="translate(325.868743 322.182437)scale(0.1 -0.1)">
       <defs>
        <path d="M 37.796875 64.3125 
L 12.890625 25.390625 
L 37.796875 25.390625 
z
M 35.203125 72.90625 
L 47.609375 72.90625 
L 47.609375 25.390625 
L 58.015625 25.390625 
L 58.015625 17.1875 
L 47.609375 17.1875 
L 47.609375 0 
L 37.796875 0 
L 37.796875 17.1875 
L 4.890625 17.1875 
L 4.890625 26.703125 
z
" id="DejaVuSans-52"/>
       </defs>
       <use xlink:href="#DejaVuSans-52"/>
       <use x="63.623047" xlink:href="#DejaVuSans-48"/>
      </g>
     </g>
    </g>
    <g id="xtick_6">
     <g id="line2d_6">
      <g>
       <use style="stroke:#000000;stroke-width:0.8;" x="398.487273" xlink:href="#m77a2d64bf4" y="307.584"/>
      </g>
     </g>
     <g id="text_6">
      <!-- 50 -->
      <g transform="translate(392.124773 322.182437)scale(0.1 -0.1)">
       <defs>
        <path d="M 10.796875 72.90625 
L 49.515625 72.90625 
L 49.515625 64.59375 
L 19.828125 64.59375 
L 19.828125 46.734375 
Q 21.96875 47.46875 24.109375 47.828125 
Q 26.265625 48.1875 28.421875 48.1875 
Q 40.625 48.1875 47.75 41.5 
Q 54.890625 34.8125 54.890625 23.390625 
Q 54.890625 11.625 47.5625 5.09375 
Q 40.234375 -1.421875 26.90625 -1.421875 
Q 22.3125 -1.421875 17.546875 -0.640625 
Q 12.796875 0.140625 7.71875 1.703125 
L 7.71875 11.625 
Q 12.109375 9.234375 16.796875 8.0625 
Q 21.484375 6.890625 26.703125 6.890625 
Q 35.15625 6.890625 40.078125 11.328125 
Q 45.015625 15.765625 45.015625 23.390625 
Q 45.015625 31 40.078125 35.4375 
Q 35.15625 39.890625 26.703125 39.890625 
Q 22.75 39.890625 18.8125 39.015625 
Q 14.890625 38.140625 10.796875 36.28125 
z
" id="DejaVuSans-53"/>
       </defs>
       <use xlink:href="#DejaVuSans-53"/>
       <use x="63.623047" xlink:href="#DejaVuSans-48"/>
      </g>
     </g>
    </g>
   </g>
   <g id="matplotlib.axis_2">
    <g id="ytick_1">
     <g id="line2d_7">
      <defs>
       <path d="M 0 0 
L -3.5 0 
" id="m47dffaed2a" style="stroke:#000000;stroke-width:0.8;"/>
      </defs>
      <g>
       <use style="stroke:#000000;stroke-width:0.8;" x="57.6" xlink:href="#m47dffaed2a" y="296.607742"/>
      </g>
     </g>
     <g id="text_7">
      <!-- 0.00 -->
      <g transform="translate(28.334375 300.40696)scale(0.1 -0.1)">
       <defs>
        <path d="M 10.6875 12.40625 
L 21 12.40625 
L 21 0 
L 10.6875 0 
z
" id="DejaVuSans-46"/>
       </defs>
       <use xlink:href="#DejaVuSans-48"/>
       <use x="63.623047" xlink:href="#DejaVuSans-46"/>
       <use x="95.410156" xlink:href="#DejaVuSans-48"/>
       <use x="159.033203" xlink:href="#DejaVuSans-48"/>
      </g>
     </g>
    </g>
    <g id="ytick_2">
     <g id="line2d_8">
      <g>
       <use style="stroke:#000000;stroke-width:0.8;" x="57.6" xlink:href="#m47dffaed2a" y="246.116759"/>
      </g>
     </g>
     <g id="text_8">
      <!-- 0.01 -->
      <g transform="translate(28.334375 249.915978)scale(0.1 -0.1)">
       <use xlink:href="#DejaVuSans-48"/>
       <use x="63.623047" xlink:href="#DejaVuSans-46"/>
       <use x="95.410156" xlink:href="#DejaVuSans-48"/>
       <use x="159.033203" xlink:href="#DejaVuSans-49"/>
      </g>
     </g>
    </g>
    <g id="ytick_3">
     <g id="line2d_9">
      <g>
       <use style="stroke:#000000;stroke-width:0.8;" x="57.6" xlink:href="#m47dffaed2a" y="195.625777"/>
      </g>
     </g>
     <g id="text_9">
      <!-- 0.02 -->
      <g transform="translate(28.334375 199.424996)scale(0.1 -0.1)">
       <use xlink:href="#DejaVuSans-48"/>
       <use x="63.623047" xlink:href="#DejaVuSans-46"/>
       <use x="95.410156" xlink:href="#DejaVuSans-48"/>
       <use x="159.033203" xlink:href="#DejaVuSans-50"/>
      </g>
     </g>
    </g>
    <g id="ytick_4">
     <g id="line2d_10">
      <g>
       <use style="stroke:#000000;stroke-width:0.8;" x="57.6" xlink:href="#m47dffaed2a" y="145.134795"/>
      </g>
     </g>
     <g id="text_10">
      <!-- 0.03 -->
      <g transform="translate(28.334375 148.934013)scale(0.1 -0.1)">
       <use xlink:href="#DejaVuSans-48"/>
       <use x="63.623047" xlink:href="#DejaVuSans-46"/>
       <use x="95.410156" xlink:href="#DejaVuSans-48"/>
       <use x="159.033203" xlink:href="#DejaVuSans-51"/>
      </g>
     </g>
    </g>
    <g id="ytick_5">
     <g id="line2d_11">
      <g>
       <use style="stroke:#000000;stroke-width:0.8;" x="57.6" xlink:href="#m47dffaed2a" y="94.643812"/>
      </g>
     </g>
     <g id="text_11">
      <!-- 0.04 -->
      <g transform="translate(28.334375 98.443031)scale(0.1 -0.1)">
       <use xlink:href="#DejaVuSans-48"/>
       <use x="63.623047" xlink:href="#DejaVuSans-46"/>
       <use x="95.410156" xlink:href="#DejaVuSans-48"/>
       <use x="159.033203" xlink:href="#DejaVuSans-52"/>
      </g>
     </g>
    </g>
    <g id="ytick_6">
     <g id="line2d_12">
      <g>
       <use style="stroke:#000000;stroke-width:0.8;" x="57.6" xlink:href="#m47dffaed2a" y="44.15283"/>
      </g>
     </g>
     <g id="text_12">
      <!-- 0.05 -->
      <g transform="translate(28.334375 47.952049)scale(0.1 -0.1)">
       <use xlink:href="#DejaVuSans-48"/>
       <use x="63.623047" xlink:href="#DejaVuSans-46"/>
       <use x="95.410156" xlink:href="#DejaVuSans-48"/>
       <use x="159.033203" xlink:href="#DejaVuSans-53"/>
      </g>
     </g>
    </g>
   </g>
   <g id="line2d_13">
    <defs>
     <path d="M 0 3 
C 0.795609 3 1.55874 2.683901 2.12132 2.12132 
C 2.683901 1.55874 3 0.795609 3 0 
C 3 -0.795609 2.683901 -1.55874 2.12132 -2.12132 
C 1.55874 -2.683901 0.795609 -3 0 -3 
C -0.795609 -3 -1.55874 -2.683901 -2.12132 -2.12132 
C -2.683901 -1.55874 -3 -0.795609 -3 0 
C -3 0.795609 -2.683901 1.55874 -2.12132 2.12132 
C -1.55874 2.683901 -0.795609 3 0 3 
z
" id="ma664997f2c" style="stroke:#ff0000;"/>
    </defs>
    <g clip-path="url(#p61489e0700)">
     <use style="fill:#ff0000;stroke:#ff0000;" x="73.832727" xlink:href="#ma664997f2c" y="53.568"/>
     <use style="fill:#ff0000;stroke:#ff0000;" x="80.45833" xlink:href="#ma664997f2c" y="150.391063"/>
     <use style="fill:#ff0000;stroke:#ff0000;" x="87.083933" xlink:href="#ma664997f2c" y="178.142887"/>
     <use style="fill:#ff0000;stroke:#ff0000;" x="93.709536" xlink:href="#ma664997f2c" y="192.744722"/>
     <use style="fill:#ff0000;stroke:#ff0000;" x="100.335139" xlink:href="#ma664997f2c" y="199.741191"/>
     <use style="fill:#ff0000;stroke:#ff0000;" x="106.960742" xlink:href="#ma664997f2c" y="205.45948"/>
     <use style="fill:#ff0000;stroke:#ff0000;" x="113.586345" xlink:href="#ma664997f2c" y="209.135101"/>
     <use style="fill:#ff0000;stroke:#ff0000;" x="120.211948" xlink:href="#ma664997f2c" y="212.607186"/>
     <use style="fill:#ff0000;stroke:#ff0000;" x="126.837551" xlink:href="#ma664997f2c" y="215.259099"/>
     <use style="fill:#ff0000;stroke:#ff0000;" x="133.463154" xlink:href="#ma664997f2c" y="218.273237"/>
     <use style="fill:#ff0000;stroke:#ff0000;" x="140.088757" xlink:href="#ma664997f2c" y="220.306801"/>
     <use style="fill:#ff0000;stroke:#ff0000;" x="146.71436" xlink:href="#ma664997f2c" y="222.41928"/>
     <use style="fill:#ff0000;stroke:#ff0000;" x="153.339963" xlink:href="#ma664997f2c" y="223.795222"/>
     <use style="fill:#ff0000;stroke:#ff0000;" x="159.965566" xlink:href="#ma664997f2c" y="224.897817"/>
     <use style="fill:#ff0000;stroke:#ff0000;" x="166.591169" xlink:href="#ma664997f2c" y="226.473585"/>
     <use style="fill:#ff0000;stroke:#ff0000;" x="173.216772" xlink:href="#ma664997f2c" y="227.887682"/>
     <use style="fill:#ff0000;stroke:#ff0000;" x="179.842375" xlink:href="#ma664997f2c" y="228.613154"/>
     <use style="fill:#ff0000;stroke:#ff0000;" x="186.467978" xlink:href="#ma664997f2c" y="230.075713"/>
     <use style="fill:#ff0000;stroke:#ff0000;" x="193.093581" xlink:href="#ma664997f2c" y="230.309598"/>
     <use style="fill:#ff0000;stroke:#ff0000;" x="199.719184" xlink:href="#ma664997f2c" y="231.026606"/>
     <use style="fill:#ff0000;stroke:#ff0000;" x="206.344787" xlink:href="#ma664997f2c" y="231.698674"/>
     <use style="fill:#ff0000;stroke:#ff0000;" x="212.97039" xlink:href="#ma664997f2c" y="232.144766"/>
     <use style="fill:#ff0000;stroke:#ff0000;" x="219.595993" xlink:href="#ma664997f2c" y="233.007683"/>
     <use style="fill:#ff0000;stroke:#ff0000;" x="226.221596" xlink:href="#ma664997f2c" y="233.388647"/>
     <use style="fill:#ff0000;stroke:#ff0000;" x="232.847199" xlink:href="#ma664997f2c" y="234.075006"/>
     <use style="fill:#ff0000;stroke:#ff0000;" x="239.472801" xlink:href="#ma664997f2c" y="234.185558"/>
     <use style="fill:#ff0000;stroke:#ff0000;" x="246.098404" xlink:href="#ma664997f2c" y="234.517355"/>
     <use style="fill:#ff0000;stroke:#ff0000;" x="252.724007" xlink:href="#ma664997f2c" y="234.859534"/>
     <use style="fill:#ff0000;stroke:#ff0000;" x="259.34961" xlink:href="#ma664997f2c" y="235.181823"/>
     <use style="fill:#ff0000;stroke:#ff0000;" x="265.975213" xlink:href="#ma664997f2c" y="235.737052"/>
     <use style="fill:#ff0000;stroke:#ff0000;" x="272.600816" xlink:href="#ma664997f2c" y="235.862355"/>
     <use style="fill:#ff0000;stroke:#ff0000;" x="279.226419" xlink:href="#ma664997f2c" y="235.686859"/>
     <use style="fill:#ff0000;stroke:#ff0000;" x="285.852022" xlink:href="#ma664997f2c" y="236.182585"/>
     <use style="fill:#ff0000;stroke:#ff0000;" x="292.477625" xlink:href="#ma664997f2c" y="236.002866"/>
     <use style="fill:#ff0000;stroke:#ff0000;" x="299.103228" xlink:href="#ma664997f2c" y="236.148469"/>
     <use style="fill:#ff0000;stroke:#ff0000;" x="305.728831" xlink:href="#ma664997f2c" y="235.959148"/>
     <use style="fill:#ff0000;stroke:#ff0000;" x="312.354434" xlink:href="#ma664997f2c" y="236.255066"/>
     <use style="fill:#ff0000;stroke:#ff0000;" x="318.980037" xlink:href="#ma664997f2c" y="236.210258"/>
     <use style="fill:#ff0000;stroke:#ff0000;" x="325.60564" xlink:href="#ma664997f2c" y="236.246828"/>
     <use style="fill:#ff0000;stroke:#ff0000;" x="332.231243" xlink:href="#ma664997f2c" y="236.238782"/>
     <use style="fill:#ff0000;stroke:#ff0000;" x="338.856846" xlink:href="#ma664997f2c" y="236.108518"/>
     <use style="fill:#ff0000;stroke:#ff0000;" x="345.482449" xlink:href="#ma664997f2c" y="236.275945"/>
     <use style="fill:#ff0000;stroke:#ff0000;" x="352.108052" xlink:href="#ma664997f2c" y="236.238782"/>
     <use style="fill:#ff0000;stroke:#ff0000;" x="358.733655" xlink:href="#ma664997f2c" y="236.097185"/>
     <use style="fill:#ff0000;stroke:#ff0000;" x="365.359258" xlink:href="#ma664997f2c" y="235.921722"/>
     <use style="fill:#ff0000;stroke:#ff0000;" x="371.984861" xlink:href="#ma664997f2c" y="236.152715"/>
     <use style="fill:#ff0000;stroke:#ff0000;" x="378.610464" xlink:href="#ma664997f2c" y="236.398681"/>
     <use style="fill:#ff0000;stroke:#ff0000;" x="385.236067" xlink:href="#ma664997f2c" y="236.090565"/>
     <use style="fill:#ff0000;stroke:#ff0000;" x="391.86167" xlink:href="#ma664997f2c" y="236.14988"/>
     <use style="fill:#ff0000;stroke:#ff0000;" x="398.487273" xlink:href="#ma664997f2c" y="236.115821"/>
    </g>
   </g>
   <g id="line2d_14">
    <path clip-path="url(#p61489e0700)" d="M 73.832727 139.289978 
L 80.45833 170.236336 
L 87.083933 185.088834 
L 93.709536 200.44326 
L 100.335139 188.278017 
L 106.960742 135.715514 
L 113.586345 201.715845 
L 120.211948 205.244649 
L 126.837551 226.741223 
L 133.463154 227.511325 
L 140.088757 201.353351 
L 146.71436 207.433945 
L 153.339963 233.270304 
L 159.965566 214.070394 
L 166.591169 234.218987 
L 173.216772 231.271001 
L 179.842375 219.08274 
L 186.467978 210.80445 
L 193.093581 233.226074 
L 199.719184 233.122721 
L 206.344787 226.00755 
L 212.97039 231.150889 
L 219.595993 235.499499 
L 226.221596 231.657646 
L 232.847199 215.551387 
L 239.472801 240.55584 
L 246.098404 233.139828 
L 252.724007 213.944268 
L 259.34961 241.801081 
L 265.975213 235.989234 
L 272.600816 235.125889 
L 279.226419 226.283662 
L 285.852022 233.168385 
L 292.477625 233.360227 
L 299.103228 239.089721 
L 305.728831 242.347864 
L 312.354434 236.501225 
L 318.980037 239.12907 
L 325.60564 246.196512 
L 332.231243 242.860259 
L 338.856846 235.771802 
L 345.482449 224.769796 
L 352.108052 231.455916 
L 358.733655 243.300671 
L 365.359258 213.308653 
L 371.984861 241.116382 
L 378.610464 226.371902 
L 385.236067 247.454275 
L 391.86167 241.494761 
L 398.487273 233.802566 
" style="fill:none;stroke:#ff0000;stroke-linecap:square;stroke-width:1.5;"/>
   </g>
   <g id="line2d_15">
    <defs>
     <path d="M 0 3 
C 0.795609 3 1.55874 2.683901 2.12132 2.12132 
C 2.683901 1.55874 3 0.795609 3 0 
C 3 -0.795609 2.683901 -1.55874 2.12132 -2.12132 
C 1.55874 -2.683901 0.795609 -3 0 -3 
C -0.795609 -3 -1.55874 -2.683901 -2.12132 -2.12132 
C -2.683901 -1.55874 -3 -0.795609 -3 0 
C -3 0.795609 -2.683901 1.55874 -2.12132 2.12132 
C -1.55874 2.683901 -0.795609 3 0 3 
z
" id="mf7a95816e3" style="stroke:#0000ff;"/>
    </defs>
    <g clip-path="url(#p61489e0700)">
     <use style="fill:#0000ff;stroke:#0000ff;" x="73.832727" xlink:href="#mf7a95816e3" y="270.342267"/>
     <use style="fill:#0000ff;stroke:#0000ff;" x="80.45833" xlink:href="#mf7a95816e3" y="288.390298"/>
     <use style="fill:#0000ff;stroke:#0000ff;" x="87.083933" xlink:href="#mf7a95816e3" y="291.016563"/>
     <use style="fill:#0000ff;stroke:#0000ff;" x="93.709536" xlink:href="#mf7a95816e3" y="292.22814"/>
     <use style="fill:#0000ff;stroke:#0000ff;" x="100.335139" xlink:href="#mf7a95816e3" y="292.784627"/>
     <use style="fill:#0000ff;stroke:#0000ff;" x="106.960742" xlink:href="#mf7a95816e3" y="293.204637"/>
     <use style="fill:#0000ff;stroke:#0000ff;" x="113.586345" xlink:href="#mf7a95816e3" y="293.474788"/>
     <use style="fill:#0000ff;stroke:#0000ff;" x="120.211948" xlink:href="#mf7a95816e3" y="293.693816"/>
     <use style="fill:#0000ff;stroke:#0000ff;" x="126.837551" xlink:href="#mf7a95816e3" y="293.868903"/>
     <use style="fill:#0000ff;stroke:#0000ff;" x="133.463154" xlink:href="#mf7a95816e3" y="294.042885"/>
     <use style="fill:#0000ff;stroke:#0000ff;" x="140.088757" xlink:href="#mf7a95816e3" y="294.176438"/>
     <use style="fill:#0000ff;stroke:#0000ff;" x="146.71436" xlink:href="#mf7a95816e3" y="294.302282"/>
     <use style="fill:#0000ff;stroke:#0000ff;" x="153.339963" xlink:href="#mf7a95816e3" y="294.374008"/>
     <use style="fill:#0000ff;stroke:#0000ff;" x="159.965566" xlink:href="#mf7a95816e3" y="294.421851"/>
     <use style="fill:#0000ff;stroke:#0000ff;" x="166.591169" xlink:href="#mf7a95816e3" y="294.494374"/>
     <use style="fill:#0000ff;stroke:#0000ff;" x="173.216772" xlink:href="#mf7a95816e3" y="294.551554"/>
     <use style="fill:#0000ff;stroke:#0000ff;" x="179.842375" xlink:href="#mf7a95816e3" y="294.602397"/>
     <use style="fill:#0000ff;stroke:#0000ff;" x="186.467978" xlink:href="#mf7a95816e3" y="294.645379"/>
     <use style="fill:#0000ff;stroke:#0000ff;" x="193.093581" xlink:href="#mf7a95816e3" y="294.667632"/>
     <use style="fill:#0000ff;stroke:#0000ff;" x="199.719184" xlink:href="#mf7a95816e3" y="294.694866"/>
     <use style="fill:#0000ff;stroke:#0000ff;" x="206.344787" xlink:href="#mf7a95816e3" y="294.731288"/>
     <use style="fill:#0000ff;stroke:#0000ff;" x="212.97039" xlink:href="#mf7a95816e3" y="294.757896"/>
     <use style="fill:#0000ff;stroke:#0000ff;" x="219.595993" xlink:href="#mf7a95816e3" y="294.797318"/>
     <use style="fill:#0000ff;stroke:#0000ff;" x="226.221596" xlink:href="#mf7a95816e3" y="294.812456"/>
     <use style="fill:#0000ff;stroke:#0000ff;" x="232.847199" xlink:href="#mf7a95816e3" y="294.845724"/>
     <use style="fill:#0000ff;stroke:#0000ff;" x="239.472801" xlink:href="#mf7a95816e3" y="294.854054"/>
     <use style="fill:#0000ff;stroke:#0000ff;" x="246.098404" xlink:href="#mf7a95816e3" y="294.877467"/>
     <use style="fill:#0000ff;stroke:#0000ff;" x="252.724007" xlink:href="#mf7a95816e3" y="294.899591"/>
     <use style="fill:#0000ff;stroke:#0000ff;" x="259.34961" xlink:href="#mf7a95816e3" y="294.913184"/>
     <use style="fill:#0000ff;stroke:#0000ff;" x="265.975213" xlink:href="#mf7a95816e3" y="294.927361"/>
     <use style="fill:#0000ff;stroke:#0000ff;" x="272.600816" xlink:href="#mf7a95816e3" y="294.940874"/>
     <use style="fill:#0000ff;stroke:#0000ff;" x="279.226419" xlink:href="#mf7a95816e3" y="294.935556"/>
     <use style="fill:#0000ff;stroke:#0000ff;" x="285.852022" xlink:href="#mf7a95816e3" y="294.957775"/>
     <use style="fill:#0000ff;stroke:#0000ff;" x="292.477625" xlink:href="#mf7a95816e3" y="294.953132"/>
     <use style="fill:#0000ff;stroke:#0000ff;" x="299.103228" xlink:href="#mf7a95816e3" y="294.963936"/>
     <use style="fill:#0000ff;stroke:#0000ff;" x="305.728831" xlink:href="#mf7a95816e3" y="294.963883"/>
     <use style="fill:#0000ff;stroke:#0000ff;" x="312.354434" xlink:href="#mf7a95816e3" y="294.973301"/>
     <use style="fill:#0000ff;stroke:#0000ff;" x="318.980037" xlink:href="#mf7a95816e3" y="294.974322"/>
     <use style="fill:#0000ff;stroke:#0000ff;" x="325.60564" xlink:href="#mf7a95816e3" y="294.979118"/>
     <use style="fill:#0000ff;stroke:#0000ff;" x="332.231243" xlink:href="#mf7a95816e3" y="294.978059"/>
     <use style="fill:#0000ff;stroke:#0000ff;" x="338.856846" xlink:href="#mf7a95816e3" y="294.980115"/>
     <use style="fill:#0000ff;stroke:#0000ff;" x="345.482449" xlink:href="#mf7a95816e3" y="294.993795"/>
     <use style="fill:#0000ff;stroke:#0000ff;" x="352.108052" xlink:href="#mf7a95816e3" y="294.988641"/>
     <use style="fill:#0000ff;stroke:#0000ff;" x="358.733655" xlink:href="#mf7a95816e3" y="294.982791"/>
     <use style="fill:#0000ff;stroke:#0000ff;" x="365.359258" xlink:href="#mf7a95816e3" y="294.98671"/>
     <use style="fill:#0000ff;stroke:#0000ff;" x="371.984861" xlink:href="#mf7a95816e3" y="294.98332"/>
     <use style="fill:#0000ff;stroke:#0000ff;" x="378.610464" xlink:href="#mf7a95816e3" y="294.997517"/>
     <use style="fill:#0000ff;stroke:#0000ff;" x="385.236067" xlink:href="#mf7a95816e3" y="294.988676"/>
     <use style="fill:#0000ff;stroke:#0000ff;" x="391.86167" xlink:href="#mf7a95816e3" y="294.99395"/>
     <use style="fill:#0000ff;stroke:#0000ff;" x="398.487273" xlink:href="#mf7a95816e3" y="294.988044"/>
    </g>
   </g>
   <g id="line2d_16">
    <path clip-path="url(#p61489e0700)" d="M 73.832727 287.590499 
L 80.45833 289.484979 
L 87.083933 290.051033 
L 93.709536 292.630823 
L 100.335139 292.474461 
L 106.960742 289.485271 
L 113.586345 293.428425 
L 120.211948 293.675046 
L 126.837551 294.457726 
L 133.463154 294.351722 
L 140.088757 293.371527 
L 146.71436 293.601592 
L 153.339963 294.699849 
L 159.965566 294.159025 
L 166.591169 294.804824 
L 173.216772 294.425955 
L 179.842375 294.470936 
L 186.467978 293.990239 
L 193.093581 294.865047 
L 199.719184 294.846538 
L 206.344787 294.405472 
L 212.97039 294.464932 
L 219.595993 294.768807 
L 226.221596 294.71672 
L 232.847199 294.331333 
L 239.472801 295.114599 
L 246.098404 294.93435 
L 252.724007 294.124718 
L 259.34961 295.153962 
L 265.975213 294.934601 
L 272.600816 295.002336 
L 279.226419 294.595381 
L 285.852022 294.805564 
L 292.477625 294.888215 
L 299.103228 295.139296 
L 305.728831 295.195132 
L 312.354434 295.196307 
L 318.980037 295.066798 
L 325.60564 295.488 
L 332.231243 294.867063 
L 338.856846 294.885363 
L 345.482449 294.815516 
L 352.108052 294.741067 
L 358.733655 295.395583 
L 365.359258 294.107095 
L 371.984861 295.151487 
L 378.610464 294.860296 
L 385.236067 295.450363 
L 391.86167 295.215926 
L 398.487273 294.981861 
" style="fill:none;stroke:#0000ff;stroke-linecap:square;stroke-width:1.5;"/>
   </g>
   <g id="patch_3">
    <path d="M 57.6 307.584 
L 57.6 41.472 
" style="fill:none;stroke:#000000;stroke-linecap:square;stroke-linejoin:miter;stroke-width:0.8;"/>
   </g>
   <g id="patch_4">
    <path d="M 414.72 307.584 
L 414.72 41.472 
" style="fill:none;stroke:#000000;stroke-linecap:square;stroke-linejoin:miter;stroke-width:0.8;"/>
   </g>
   <g id="patch_5">
    <path d="M 57.6 307.584 
L 414.72 307.584 
" style="fill:none;stroke:#000000;stroke-linecap:square;stroke-linejoin:miter;stroke-width:0.8;"/>
   </g>
   <g id="patch_6">
    <path d="M 57.6 41.472 
L 414.72 41.472 
" style="fill:none;stroke:#000000;stroke-linecap:square;stroke-linejoin:miter;stroke-width:0.8;"/>
   </g>
  </g>
 </g>
 <defs>
  <clipPath id="p61489e0700">
   <rect height="266.112" width="357.12" x="57.6" y="41.472"/>
  </clipPath>
 </defs>
</svg>
