<?xml version="1.0" encoding="utf-8" standalone="no"?>
<!DOCTYPE svg PUBLIC "-//W3C//DTD SVG 1.1//EN"
  "http://www.w3.org/Graphics/SVG/1.1/DTD/svg11.dtd">
<!-- Created with matplotlib (https://matplotlib.org/) -->
<svg height="432pt" version="1.1" viewBox="0 0 648 432" width="648pt" xmlns="http://www.w3.org/2000/svg" xmlns:xlink="http://www.w3.org/1999/xlink">
 <metadata>
  <rdf:RDF xmlns:cc="http://creativecommons.org/ns#" xmlns:dc="http://purl.org/dc/elements/1.1/" xmlns:rdf="http://www.w3.org/1999/02/22-rdf-syntax-ns#">
   <cc:Work>
    <dc:type rdf:resource="http://purl.org/dc/dcmitype/StillImage"/>
    <dc:date>2021-10-05T22:09:01.163046</dc:date>
    <dc:format>image/svg+xml</dc:format>
    <dc:creator>
     <cc:Agent>
      <dc:title>Matplotlib v3.3.4, https://matplotlib.org/</dc:title>
     </cc:Agent>
    </dc:creator>
   </cc:Work>
  </rdf:RDF>
 </metadata>
 <defs>
  <style type="text/css">*{stroke-linecap:butt;stroke-linejoin:round;}</style>
 </defs>
 <g id="figure_1">
  <g id="patch_1">
   <path d="M 0 432 
L 648 432 
L 648 0 
L 0 0 
z
" style="fill:#ffffff;"/>
  </g>
  <g id="axes_1">
   <g id="patch_2">
    <path d="M 81 384.48 
L 583.2 384.48 
L 583.2 51.84 
L 81 51.84 
z
" style="fill:#ffffff;"/>
   </g>
   <g id="matplotlib.axis_1">
    <g id="xtick_1">
     <g id="line2d_1">
      <defs>
       <path d="M 0 0 
L 0 3.5 
" id="m4657a653d4" style="stroke:#000000;stroke-width:0.8;"/>
      </defs>
      <g>
       <use style="stroke:#000000;stroke-width:0.8;" x="96.089214" xlink:href="#m4657a653d4" y="384.48"/>
      </g>
     </g>
     <g id="text_1">
      <!-- 0 -->
      <g transform="translate(91.08437 404.364062)scale(0.18 -0.18)">
       <defs>
        <path d="M 4.15625 35.296875 
Q 4.15625 48 6.765625 55.734375 
Q 9.375 63.484375 14.515625 67.671875 
Q 19.671875 71.875 27.484375 71.875 
Q 33.25 71.875 37.59375 69.546875 
Q 41.9375 67.234375 44.765625 62.859375 
Q 47.609375 58.5 49.21875 52.21875 
Q 50.828125 45.953125 50.828125 35.296875 
Q 50.828125 22.703125 48.234375 14.96875 
Q 45.65625 7.234375 40.5 3 
Q 35.359375 -1.21875 27.484375 -1.21875 
Q 17.140625 -1.21875 11.234375 6.203125 
Q 4.15625 15.140625 4.15625 35.296875 
z
M 13.1875 35.296875 
Q 13.1875 17.671875 17.3125 11.828125 
Q 21.4375 6 27.484375 6 
Q 33.546875 6 37.671875 11.859375 
Q 41.796875 17.71875 41.796875 35.296875 
Q 41.796875 52.984375 37.671875 58.78125 
Q 33.546875 64.59375 27.390625 64.59375 
Q 21.34375 64.59375 17.71875 59.46875 
Q 13.1875 52.9375 13.1875 35.296875 
z
" id="ArialMT-48"/>
       </defs>
       <use xlink:href="#ArialMT-48"/>
      </g>
     </g>
    </g>
    <g id="xtick_2">
     <g id="line2d_2">
      <g>
       <use style="stroke:#000000;stroke-width:0.8;" x="173.4698" xlink:href="#m4657a653d4" y="384.48"/>
      </g>
     </g>
     <g id="text_2">
      <!-- 10 -->
      <g transform="translate(163.460112 404.364062)scale(0.18 -0.18)">
       <defs>
        <path d="M 37.25 0 
L 28.46875 0 
L 28.46875 56 
Q 25.296875 52.984375 20.140625 49.953125 
Q 14.984375 46.921875 10.890625 45.40625 
L 10.890625 53.90625 
Q 18.265625 57.375 23.78125 62.296875 
Q 29.296875 67.234375 31.59375 71.875 
L 37.25 71.875 
z
" id="ArialMT-49"/>
       </defs>
       <use xlink:href="#ArialMT-49"/>
       <use x="55.615234" xlink:href="#ArialMT-48"/>
      </g>
     </g>
    </g>
    <g id="xtick_3">
     <g id="line2d_3">
      <g>
       <use style="stroke:#000000;stroke-width:0.8;" x="250.850385" xlink:href="#m4657a653d4" y="384.48"/>
      </g>
     </g>
     <g id="text_3">
      <!-- 20 -->
      <g transform="translate(240.840698 404.364062)scale(0.18 -0.18)">
       <defs>
        <path d="M 50.34375 8.453125 
L 50.34375 0 
L 3.03125 0 
Q 2.9375 3.171875 4.046875 6.109375 
Q 5.859375 10.9375 9.828125 15.625 
Q 13.8125 20.3125 21.34375 26.46875 
Q 33.015625 36.03125 37.109375 41.625 
Q 41.21875 47.21875 41.21875 52.203125 
Q 41.21875 57.421875 37.46875 61 
Q 33.734375 64.59375 27.734375 64.59375 
Q 21.390625 64.59375 17.578125 60.78125 
Q 13.765625 56.984375 13.71875 50.25 
L 4.6875 51.171875 
Q 5.609375 61.28125 11.65625 66.578125 
Q 17.71875 71.875 27.9375 71.875 
Q 38.234375 71.875 44.234375 66.15625 
Q 50.25 60.453125 50.25 52 
Q 50.25 47.703125 48.484375 43.546875 
Q 46.734375 39.40625 42.65625 34.8125 
Q 38.578125 30.21875 29.109375 22.21875 
Q 21.1875 15.578125 18.9375 13.203125 
Q 16.703125 10.84375 15.234375 8.453125 
z
" id="ArialMT-50"/>
       </defs>
       <use xlink:href="#ArialMT-50"/>
       <use x="55.615234" xlink:href="#ArialMT-48"/>
      </g>
     </g>
    </g>
    <g id="xtick_4">
     <g id="line2d_4">
      <g>
       <use style="stroke:#000000;stroke-width:0.8;" x="328.230971" xlink:href="#m4657a653d4" y="384.48"/>
      </g>
     </g>
     <g id="text_4">
      <!-- 30 -->
      <g transform="translate(318.221283 404.364062)scale(0.18 -0.18)">
       <defs>
        <path d="M 4.203125 18.890625 
L 12.984375 20.0625 
Q 14.5 12.59375 18.140625 9.296875 
Q 21.78125 6 27 6 
Q 33.203125 6 37.46875 10.296875 
Q 41.75 14.59375 41.75 20.953125 
Q 41.75 27 37.796875 30.921875 
Q 33.84375 34.859375 27.734375 34.859375 
Q 25.25 34.859375 21.53125 33.890625 
L 22.515625 41.609375 
Q 23.390625 41.5 23.921875 41.5 
Q 29.546875 41.5 34.03125 44.421875 
Q 38.53125 47.359375 38.53125 53.46875 
Q 38.53125 58.296875 35.25 61.46875 
Q 31.984375 64.65625 26.8125 64.65625 
Q 21.6875 64.65625 18.265625 61.421875 
Q 14.84375 58.203125 13.875 51.765625 
L 5.078125 53.328125 
Q 6.6875 62.15625 12.390625 67.015625 
Q 18.109375 71.875 26.609375 71.875 
Q 32.46875 71.875 37.390625 69.359375 
Q 42.328125 66.84375 44.9375 62.5 
Q 47.5625 58.15625 47.5625 53.265625 
Q 47.5625 48.640625 45.0625 44.828125 
Q 42.578125 41.015625 37.703125 38.765625 
Q 44.046875 37.3125 47.5625 32.6875 
Q 51.078125 28.078125 51.078125 21.140625 
Q 51.078125 11.765625 44.234375 5.25 
Q 37.40625 -1.265625 26.953125 -1.265625 
Q 17.53125 -1.265625 11.296875 4.34375 
Q 5.078125 9.96875 4.203125 18.890625 
z
" id="ArialMT-51"/>
       </defs>
       <use xlink:href="#ArialMT-51"/>
       <use x="55.615234" xlink:href="#ArialMT-48"/>
      </g>
     </g>
    </g>
    <g id="xtick_5">
     <g id="line2d_5">
      <g>
       <use style="stroke:#000000;stroke-width:0.8;" x="405.611556" xlink:href="#m4657a653d4" y="384.48"/>
      </g>
     </g>
     <g id="text_5">
      <!-- 40 -->
      <g transform="translate(395.601869 404.364062)scale(0.18 -0.18)">
       <defs>
        <path d="M 32.328125 0 
L 32.328125 17.140625 
L 1.265625 17.140625 
L 1.265625 25.203125 
L 33.9375 71.578125 
L 41.109375 71.578125 
L 41.109375 25.203125 
L 50.78125 25.203125 
L 50.78125 17.140625 
L 41.109375 17.140625 
L 41.109375 0 
z
M 32.328125 25.203125 
L 32.328125 57.46875 
L 9.90625 25.203125 
z
" id="ArialMT-52"/>
       </defs>
       <use xlink:href="#ArialMT-52"/>
       <use x="55.615234" xlink:href="#ArialMT-48"/>
      </g>
     </g>
    </g>
    <g id="xtick_6">
     <g id="line2d_6">
      <g>
       <use style="stroke:#000000;stroke-width:0.8;" x="482.992142" xlink:href="#m4657a653d4" y="384.48"/>
      </g>
     </g>
     <g id="text_6">
      <!-- 50 -->
      <g transform="translate(472.982454 404.364062)scale(0.18 -0.18)">
       <defs>
        <path d="M 4.15625 18.75 
L 13.375 19.53125 
Q 14.40625 12.796875 18.140625 9.390625 
Q 21.875 6 27.15625 6 
Q 33.5 6 37.890625 10.78125 
Q 42.28125 15.578125 42.28125 23.484375 
Q 42.28125 31 38.0625 35.34375 
Q 33.84375 39.703125 27 39.703125 
Q 22.75 39.703125 19.328125 37.765625 
Q 15.921875 35.84375 13.96875 32.765625 
L 5.71875 33.84375 
L 12.640625 70.609375 
L 48.25 70.609375 
L 48.25 62.203125 
L 19.671875 62.203125 
L 15.828125 42.96875 
Q 22.265625 47.46875 29.34375 47.46875 
Q 38.71875 47.46875 45.15625 40.96875 
Q 51.609375 34.46875 51.609375 24.265625 
Q 51.609375 14.546875 45.953125 7.46875 
Q 39.0625 -1.21875 27.15625 -1.21875 
Q 17.390625 -1.21875 11.203125 4.25 
Q 5.03125 9.71875 4.15625 18.75 
z
" id="ArialMT-53"/>
       </defs>
       <use xlink:href="#ArialMT-53"/>
       <use x="55.615234" xlink:href="#ArialMT-48"/>
      </g>
     </g>
    </g>
    <g id="xtick_7">
     <g id="line2d_7">
      <g>
       <use style="stroke:#000000;stroke-width:0.8;" x="560.372727" xlink:href="#m4657a653d4" y="384.48"/>
      </g>
     </g>
     <g id="text_7">
      <!-- 60 -->
      <g transform="translate(550.36304 404.364062)scale(0.18 -0.18)">
       <defs>
        <path d="M 49.75 54.046875 
L 41.015625 53.375 
Q 39.84375 58.546875 37.703125 60.890625 
Q 34.125 64.65625 28.90625 64.65625 
Q 24.703125 64.65625 21.53125 62.3125 
Q 17.390625 59.28125 14.984375 53.46875 
Q 12.59375 47.65625 12.5 36.921875 
Q 15.671875 41.75 20.265625 44.09375 
Q 24.859375 46.4375 29.890625 46.4375 
Q 38.671875 46.4375 44.84375 39.96875 
Q 51.03125 33.5 51.03125 23.25 
Q 51.03125 16.5 48.125 10.71875 
Q 45.21875 4.9375 40.140625 1.859375 
Q 35.0625 -1.21875 28.609375 -1.21875 
Q 17.625 -1.21875 10.6875 6.859375 
Q 3.765625 14.9375 3.765625 33.5 
Q 3.765625 54.25 11.421875 63.671875 
Q 18.109375 71.875 29.4375 71.875 
Q 37.890625 71.875 43.28125 67.140625 
Q 48.6875 62.40625 49.75 54.046875 
z
M 13.875 23.1875 
Q 13.875 18.65625 15.796875 14.5 
Q 17.71875 10.359375 21.1875 8.171875 
Q 24.65625 6 28.46875 6 
Q 34.03125 6 38.03125 10.484375 
Q 42.046875 14.984375 42.046875 22.703125 
Q 42.046875 30.125 38.078125 34.390625 
Q 34.125 38.671875 28.125 38.671875 
Q 22.171875 38.671875 18.015625 34.390625 
Q 13.875 30.125 13.875 23.1875 
z
" id="ArialMT-54"/>
       </defs>
       <use xlink:href="#ArialMT-54"/>
       <use x="55.615234" xlink:href="#ArialMT-48"/>
      </g>
     </g>
    </g>
    <g id="text_8">
     <!-- epochs -->
     <g transform="translate(296.631875 427.68875)scale(0.22 -0.22)">
      <defs>
       <path d="M 42.09375 16.703125 
L 51.171875 15.578125 
Q 49.03125 7.625 43.21875 3.21875 
Q 37.40625 -1.171875 28.375 -1.171875 
Q 17 -1.171875 10.328125 5.828125 
Q 3.65625 12.84375 3.65625 25.484375 
Q 3.65625 38.578125 10.390625 45.796875 
Q 17.140625 53.03125 27.875 53.03125 
Q 38.28125 53.03125 44.875 45.953125 
Q 51.46875 38.875 51.46875 26.03125 
Q 51.46875 25.25 51.421875 23.6875 
L 12.75 23.6875 
Q 13.234375 15.140625 17.578125 10.59375 
Q 21.921875 6.0625 28.421875 6.0625 
Q 33.25 6.0625 36.671875 8.59375 
Q 40.09375 11.140625 42.09375 16.703125 
z
M 13.234375 30.90625 
L 42.1875 30.90625 
Q 41.609375 37.453125 38.875 40.71875 
Q 34.671875 45.796875 27.984375 45.796875 
Q 21.921875 45.796875 17.796875 41.75 
Q 13.671875 37.703125 13.234375 30.90625 
z
" id="ArialMT-101"/>
       <path d="M 6.59375 -19.875 
L 6.59375 51.859375 
L 14.59375 51.859375 
L 14.59375 45.125 
Q 17.4375 49.078125 21 51.046875 
Q 24.5625 53.03125 29.640625 53.03125 
Q 36.28125 53.03125 41.359375 49.609375 
Q 46.4375 46.1875 49.015625 39.953125 
Q 51.609375 33.734375 51.609375 26.3125 
Q 51.609375 18.359375 48.75 11.984375 
Q 45.90625 5.609375 40.453125 2.21875 
Q 35.015625 -1.171875 29 -1.171875 
Q 24.609375 -1.171875 21.109375 0.6875 
Q 17.625 2.546875 15.375 5.375 
L 15.375 -19.875 
z
M 14.546875 25.640625 
Q 14.546875 15.625 18.59375 10.84375 
Q 22.65625 6.0625 28.421875 6.0625 
Q 34.28125 6.0625 38.453125 11.015625 
Q 42.625 15.96875 42.625 26.375 
Q 42.625 36.28125 38.546875 41.203125 
Q 34.46875 46.140625 28.8125 46.140625 
Q 23.1875 46.140625 18.859375 40.890625 
Q 14.546875 35.640625 14.546875 25.640625 
z
" id="ArialMT-112"/>
       <path d="M 3.328125 25.921875 
Q 3.328125 40.328125 11.328125 47.265625 
Q 18.015625 53.03125 27.640625 53.03125 
Q 38.328125 53.03125 45.109375 46.015625 
Q 51.90625 39.015625 51.90625 26.65625 
Q 51.90625 16.65625 48.90625 10.90625 
Q 45.90625 5.171875 40.15625 2 
Q 34.421875 -1.171875 27.640625 -1.171875 
Q 16.75 -1.171875 10.03125 5.8125 
Q 3.328125 12.796875 3.328125 25.921875 
z
M 12.359375 25.921875 
Q 12.359375 15.96875 16.703125 11.015625 
Q 21.046875 6.0625 27.640625 6.0625 
Q 34.1875 6.0625 38.53125 11.03125 
Q 42.875 16.015625 42.875 26.21875 
Q 42.875 35.84375 38.5 40.796875 
Q 34.125 45.75 27.640625 45.75 
Q 21.046875 45.75 16.703125 40.8125 
Q 12.359375 35.890625 12.359375 25.921875 
z
" id="ArialMT-111"/>
       <path d="M 40.4375 19 
L 49.078125 17.875 
Q 47.65625 8.9375 41.8125 3.875 
Q 35.984375 -1.171875 27.484375 -1.171875 
Q 16.84375 -1.171875 10.375 5.78125 
Q 3.90625 12.75 3.90625 25.734375 
Q 3.90625 34.125 6.6875 40.421875 
Q 9.46875 46.734375 15.15625 49.875 
Q 20.84375 53.03125 27.546875 53.03125 
Q 35.984375 53.03125 41.359375 48.75 
Q 46.734375 44.484375 48.25 36.625 
L 39.703125 35.296875 
Q 38.484375 40.53125 35.375 43.15625 
Q 32.28125 45.796875 27.875 45.796875 
Q 21.234375 45.796875 17.078125 41.03125 
Q 12.9375 36.28125 12.9375 25.984375 
Q 12.9375 15.53125 16.9375 10.796875 
Q 20.953125 6.0625 27.390625 6.0625 
Q 32.5625 6.0625 36.03125 9.234375 
Q 39.5 12.40625 40.4375 19 
z
" id="ArialMT-99"/>
       <path d="M 6.59375 0 
L 6.59375 71.578125 
L 15.375 71.578125 
L 15.375 45.90625 
Q 21.53125 53.03125 30.90625 53.03125 
Q 36.671875 53.03125 40.921875 50.75 
Q 45.171875 48.484375 47 44.484375 
Q 48.828125 40.484375 48.828125 32.859375 
L 48.828125 0 
L 40.046875 0 
L 40.046875 32.859375 
Q 40.046875 39.453125 37.1875 42.453125 
Q 34.328125 45.453125 29.109375 45.453125 
Q 25.203125 45.453125 21.75 43.421875 
Q 18.3125 41.40625 16.84375 37.9375 
Q 15.375 34.46875 15.375 28.375 
L 15.375 0 
z
" id="ArialMT-104"/>
       <path d="M 3.078125 15.484375 
L 11.765625 16.84375 
Q 12.5 11.625 15.84375 8.84375 
Q 19.1875 6.0625 25.203125 6.0625 
Q 31.25 6.0625 34.171875 8.515625 
Q 37.109375 10.984375 37.109375 14.3125 
Q 37.109375 17.28125 34.515625 19 
Q 32.71875 20.171875 25.53125 21.96875 
Q 15.875 24.421875 12.140625 26.203125 
Q 8.40625 27.984375 6.46875 31.125 
Q 4.546875 34.28125 4.546875 38.09375 
Q 4.546875 41.546875 6.125 44.5 
Q 7.71875 47.46875 10.453125 49.421875 
Q 12.5 50.921875 16.03125 51.96875 
Q 19.578125 53.03125 23.640625 53.03125 
Q 29.734375 53.03125 34.34375 51.265625 
Q 38.96875 49.515625 41.15625 46.5 
Q 43.359375 43.5 44.1875 38.484375 
L 35.59375 37.3125 
Q 35.015625 41.3125 32.203125 43.546875 
Q 29.390625 45.796875 24.265625 45.796875 
Q 18.21875 45.796875 15.625 43.796875 
Q 13.03125 41.796875 13.03125 39.109375 
Q 13.03125 37.40625 14.109375 36.03125 
Q 15.1875 34.625 17.484375 33.6875 
Q 18.796875 33.203125 25.25 31.453125 
Q 34.578125 28.953125 38.25 27.359375 
Q 41.9375 25.78125 44.03125 22.75 
Q 46.140625 19.734375 46.140625 15.234375 
Q 46.140625 10.84375 43.578125 6.953125 
Q 41.015625 3.078125 36.171875 0.953125 
Q 31.34375 -1.171875 25.25 -1.171875 
Q 15.140625 -1.171875 9.84375 3.03125 
Q 4.546875 7.234375 3.078125 15.484375 
z
" id="ArialMT-115"/>
      </defs>
      <use xlink:href="#ArialMT-101"/>
      <use x="55.615234" xlink:href="#ArialMT-112"/>
      <use x="111.230469" xlink:href="#ArialMT-111"/>
      <use x="166.845703" xlink:href="#ArialMT-99"/>
      <use x="216.845703" xlink:href="#ArialMT-104"/>
      <use x="272.460938" xlink:href="#ArialMT-115"/>
     </g>
    </g>
   </g>
   <g id="matplotlib.axis_2">
    <g id="ytick_1">
     <g id="line2d_8">
      <defs>
       <path d="M 0 0 
L -3.5 0 
" id="m00217c4c3a" style="stroke:#000000;stroke-width:0.8;"/>
      </defs>
      <g>
       <use style="stroke:#000000;stroke-width:0.8;" x="81" xlink:href="#m00217c4c3a" y="341.025166"/>
      </g>
     </g>
     <g id="text_9">
      <!-- 0.02 -->
      <g transform="translate(38.970312 347.467197)scale(0.18 -0.18)">
       <defs>
        <path d="M 9.078125 0 
L 9.078125 10.015625 
L 19.09375 10.015625 
L 19.09375 0 
z
" id="ArialMT-46"/>
       </defs>
       <use xlink:href="#ArialMT-48"/>
       <use x="55.615234" xlink:href="#ArialMT-46"/>
       <use x="83.398438" xlink:href="#ArialMT-48"/>
       <use x="139.013672" xlink:href="#ArialMT-50"/>
      </g>
     </g>
    </g>
    <g id="ytick_2">
     <g id="line2d_9">
      <g>
       <use style="stroke:#000000;stroke-width:0.8;" x="81" xlink:href="#m00217c4c3a" y="282.733205"/>
      </g>
     </g>
     <g id="text_10">
      <!-- 0.03 -->
      <g transform="translate(38.970312 289.175237)scale(0.18 -0.18)">
       <use xlink:href="#ArialMT-48"/>
       <use x="55.615234" xlink:href="#ArialMT-46"/>
       <use x="83.398438" xlink:href="#ArialMT-48"/>
       <use x="139.013672" xlink:href="#ArialMT-51"/>
      </g>
     </g>
    </g>
    <g id="ytick_3">
     <g id="line2d_10">
      <g>
       <use style="stroke:#000000;stroke-width:0.8;" x="81" xlink:href="#m00217c4c3a" y="224.441245"/>
      </g>
     </g>
     <g id="text_11">
      <!-- 0.04 -->
      <g transform="translate(38.970312 230.883276)scale(0.18 -0.18)">
       <use xlink:href="#ArialMT-48"/>
       <use x="55.615234" xlink:href="#ArialMT-46"/>
       <use x="83.398438" xlink:href="#ArialMT-48"/>
       <use x="139.013672" xlink:href="#ArialMT-52"/>
      </g>
     </g>
    </g>
    <g id="ytick_4">
     <g id="line2d_11">
      <g>
       <use style="stroke:#000000;stroke-width:0.8;" x="81" xlink:href="#m00217c4c3a" y="166.149285"/>
      </g>
     </g>
     <g id="text_12">
      <!-- 0.05 -->
      <g transform="translate(38.970312 172.591316)scale(0.18 -0.18)">
       <use xlink:href="#ArialMT-48"/>
       <use x="55.615234" xlink:href="#ArialMT-46"/>
       <use x="83.398438" xlink:href="#ArialMT-48"/>
       <use x="139.013672" xlink:href="#ArialMT-53"/>
      </g>
     </g>
    </g>
    <g id="ytick_5">
     <g id="line2d_12">
      <g>
       <use style="stroke:#000000;stroke-width:0.8;" x="81" xlink:href="#m00217c4c3a" y="107.857324"/>
      </g>
     </g>
     <g id="text_13">
      <!-- 0.06 -->
      <g transform="translate(38.970312 114.299355)scale(0.18 -0.18)">
       <use xlink:href="#ArialMT-48"/>
       <use x="55.615234" xlink:href="#ArialMT-46"/>
       <use x="83.398438" xlink:href="#ArialMT-48"/>
       <use x="139.013672" xlink:href="#ArialMT-54"/>
      </g>
     </g>
    </g>
   </g>
   <g id="line2d_13">
    <defs>
     <path d="M 0 3 
C 0.795609 3 1.55874 2.683901 2.12132 2.12132 
C 2.683901 1.55874 3 0.795609 3 0 
C 3 -0.795609 2.683901 -1.55874 2.12132 -2.12132 
C 1.55874 -2.683901 0.795609 -3 0 -3 
C -0.795609 -3 -1.55874 -2.683901 -2.12132 -2.12132 
C -2.683901 -1.55874 -3 -0.795609 -3 0 
C -3 0.795609 -2.683901 1.55874 -2.12132 2.12132 
C -1.55874 2.683901 -0.795609 3 0 3 
z
" id="m9983c856be" style="stroke:#ff0000;"/>
    </defs>
    <g clip-path="url(#pfcb356c2e5)">
     <use style="fill:#ff0000;stroke:#ff0000;" x="103.827273" xlink:href="#m9983c856be" y="66.96"/>
     <use style="fill:#ff0000;stroke:#ff0000;" x="111.565331" xlink:href="#m9983c856be" y="203.153619"/>
     <use style="fill:#ff0000;stroke:#ff0000;" x="119.30339" xlink:href="#m9983c856be" y="228.535633"/>
     <use style="fill:#ff0000;stroke:#ff0000;" x="127.041448" xlink:href="#m9983c856be" y="253.331025"/>
     <use style="fill:#ff0000;stroke:#ff0000;" x="134.779507" xlink:href="#m9983c856be" y="264.300041"/>
     <use style="fill:#ff0000;stroke:#ff0000;" x="142.517565" xlink:href="#m9983c856be" y="269.455657"/>
     <use style="fill:#ff0000;stroke:#ff0000;" x="150.255624" xlink:href="#m9983c856be" y="275.337742"/>
     <use style="fill:#ff0000;stroke:#ff0000;" x="157.993683" xlink:href="#m9983c856be" y="280.400786"/>
     <use style="fill:#ff0000;stroke:#ff0000;" x="165.731741" xlink:href="#m9983c856be" y="286.23451"/>
     <use style="fill:#ff0000;stroke:#ff0000;" x="173.4698" xlink:href="#m9983c856be" y="291.825684"/>
     <use style="fill:#ff0000;stroke:#ff0000;" x="181.207858" xlink:href="#m9983c856be" y="296.960041"/>
     <use style="fill:#ff0000;stroke:#ff0000;" x="188.945917" xlink:href="#m9983c856be" y="302.217232"/>
     <use style="fill:#ff0000;stroke:#ff0000;" x="196.683975" xlink:href="#m9983c856be" y="303.882133"/>
     <use style="fill:#ff0000;stroke:#ff0000;" x="204.422034" xlink:href="#m9983c856be" y="308.904764"/>
     <use style="fill:#ff0000;stroke:#ff0000;" x="212.160092" xlink:href="#m9983c856be" y="313.448211"/>
     <use style="fill:#ff0000;stroke:#ff0000;" x="219.898151" xlink:href="#m9983c856be" y="316.084868"/>
     <use style="fill:#ff0000;stroke:#ff0000;" x="227.63621" xlink:href="#m9983c856be" y="319.260036"/>
     <use style="fill:#ff0000;stroke:#ff0000;" x="235.374268" xlink:href="#m9983c856be" y="321.800092"/>
     <use style="fill:#ff0000;stroke:#ff0000;" x="243.112327" xlink:href="#m9983c856be" y="326.132009"/>
     <use style="fill:#ff0000;stroke:#ff0000;" x="250.850385" xlink:href="#m9983c856be" y="327.229953"/>
     <use style="fill:#ff0000;stroke:#ff0000;" x="258.588444" xlink:href="#m9983c856be" y="328.372066"/>
     <use style="fill:#ff0000;stroke:#ff0000;" x="266.326502" xlink:href="#m9983c856be" y="331.092816"/>
     <use style="fill:#ff0000;stroke:#ff0000;" x="274.064561" xlink:href="#m9983c856be" y="332.279685"/>
     <use style="fill:#ff0000;stroke:#ff0000;" x="281.802619" xlink:href="#m9983c856be" y="333.57006"/>
     <use style="fill:#ff0000;stroke:#ff0000;" x="289.540678" xlink:href="#m9983c856be" y="334.993497"/>
     <use style="fill:#ff0000;stroke:#ff0000;" x="297.278737" xlink:href="#m9983c856be" y="336.698854"/>
     <use style="fill:#ff0000;stroke:#ff0000;" x="305.016795" xlink:href="#m9983c856be" y="337.809588"/>
     <use style="fill:#ff0000;stroke:#ff0000;" x="312.754854" xlink:href="#m9983c856be" y="339.567617"/>
     <use style="fill:#ff0000;stroke:#ff0000;" x="320.492912" xlink:href="#m9983c856be" y="339.750721"/>
     <use style="fill:#ff0000;stroke:#ff0000;" x="328.230971" xlink:href="#m9983c856be" y="341.606057"/>
     <use style="fill:#ff0000;stroke:#ff0000;" x="335.969029" xlink:href="#m9983c856be" y="342.684522"/>
     <use style="fill:#ff0000;stroke:#ff0000;" x="343.707088" xlink:href="#m9983c856be" y="345.365207"/>
     <use style="fill:#ff0000;stroke:#ff0000;" x="351.445146" xlink:href="#m9983c856be" y="346.028646"/>
     <use style="fill:#ff0000;stroke:#ff0000;" x="359.183205" xlink:href="#m9983c856be" y="347.398555"/>
     <use style="fill:#ff0000;stroke:#ff0000;" x="366.921263" xlink:href="#m9983c856be" y="347.759498"/>
     <use style="fill:#ff0000;stroke:#ff0000;" x="374.659322" xlink:href="#m9983c856be" y="348.55424"/>
     <use style="fill:#ff0000;stroke:#ff0000;" x="382.397381" xlink:href="#m9983c856be" y="350.607978"/>
     <use style="fill:#ff0000;stroke:#ff0000;" x="390.135439" xlink:href="#m9983c856be" y="351.330212"/>
     <use style="fill:#ff0000;stroke:#ff0000;" x="397.873498" xlink:href="#m9983c856be" y="352.800858"/>
     <use style="fill:#ff0000;stroke:#ff0000;" x="405.611556" xlink:href="#m9983c856be" y="352.864865"/>
     <use style="fill:#ff0000;stroke:#ff0000;" x="413.349615" xlink:href="#m9983c856be" y="354.140072"/>
     <use style="fill:#ff0000;stroke:#ff0000;" x="421.087673" xlink:href="#m9983c856be" y="355.961368"/>
     <use style="fill:#ff0000;stroke:#ff0000;" x="428.825732" xlink:href="#m9983c856be" y="356.575068"/>
     <use style="fill:#ff0000;stroke:#ff0000;" x="436.56379" xlink:href="#m9983c856be" y="357.401851"/>
     <use style="fill:#ff0000;stroke:#ff0000;" x="444.301849" xlink:href="#m9983c856be" y="358.135606"/>
     <use style="fill:#ff0000;stroke:#ff0000;" x="452.039908" xlink:href="#m9983c856be" y="359.591605"/>
     <use style="fill:#ff0000;stroke:#ff0000;" x="459.777966" xlink:href="#m9983c856be" y="360.560559"/>
     <use style="fill:#ff0000;stroke:#ff0000;" x="467.516025" xlink:href="#m9983c856be" y="361.185377"/>
     <use style="fill:#ff0000;stroke:#ff0000;" x="475.254083" xlink:href="#m9983c856be" y="361.432966"/>
     <use style="fill:#ff0000;stroke:#ff0000;" x="482.992142" xlink:href="#m9983c856be" y="361.903475"/>
     <use style="fill:#ff0000;stroke:#ff0000;" x="490.7302" xlink:href="#m9983c856be" y="363.989243"/>
     <use style="fill:#ff0000;stroke:#ff0000;" x="498.468259" xlink:href="#m9983c856be" y="364.021795"/>
     <use style="fill:#ff0000;stroke:#ff0000;" x="506.206317" xlink:href="#m9983c856be" y="364.713747"/>
     <use style="fill:#ff0000;stroke:#ff0000;" x="513.944376" xlink:href="#m9983c856be" y="365.507718"/>
     <use style="fill:#ff0000;stroke:#ff0000;" x="521.682435" xlink:href="#m9983c856be" y="366.777442"/>
     <use style="fill:#ff0000;stroke:#ff0000;" x="529.420493" xlink:href="#m9983c856be" y="366.516867"/>
     <use style="fill:#ff0000;stroke:#ff0000;" x="537.158552" xlink:href="#m9983c856be" y="367.996927"/>
     <use style="fill:#ff0000;stroke:#ff0000;" x="544.89661" xlink:href="#m9983c856be" y="369.36"/>
     <use style="fill:#ff0000;stroke:#ff0000;" x="552.634669" xlink:href="#m9983c856be" y="368.057687"/>
     <use style="fill:#ff0000;stroke:#ff0000;" x="560.372727" xlink:href="#m9983c856be" y="368.730621"/>
    </g>
   </g>
   <g id="line2d_14">
    <defs>
     <path d="M 0 3 
C 0.795609 3 1.55874 2.683901 2.12132 2.12132 
C 2.683901 1.55874 3 0.795609 3 0 
C 3 -0.795609 2.683901 -1.55874 2.12132 -2.12132 
C 1.55874 -2.683901 0.795609 -3 0 -3 
C -0.795609 -3 -1.55874 -2.683901 -2.12132 -2.12132 
C -2.683901 -1.55874 -3 -0.795609 -3 0 
C -3 0.795609 -2.683901 1.55874 -2.12132 2.12132 
C -1.55874 2.683901 -0.795609 3 0 3 
z
" id="m3a51b9579e" style="stroke:#0000ff;"/>
    </defs>
    <g clip-path="url(#pfcb356c2e5)">
     <use style="fill:#0000ff;stroke:#0000ff;" x="103.827273" xlink:href="#m3a51b9579e" y="66.96"/>
     <use style="fill:#0000ff;stroke:#0000ff;" x="111.565331" xlink:href="#m3a51b9579e" y="203.153619"/>
     <use style="fill:#0000ff;stroke:#0000ff;" x="119.30339" xlink:href="#m3a51b9579e" y="228.535633"/>
     <use style="fill:#0000ff;stroke:#0000ff;" x="127.041448" xlink:href="#m3a51b9579e" y="253.331025"/>
     <use style="fill:#0000ff;stroke:#0000ff;" x="134.779507" xlink:href="#m3a51b9579e" y="264.300041"/>
     <use style="fill:#0000ff;stroke:#0000ff;" x="142.517565" xlink:href="#m3a51b9579e" y="269.455657"/>
     <use style="fill:#0000ff;stroke:#0000ff;" x="150.255624" xlink:href="#m3a51b9579e" y="275.337742"/>
     <use style="fill:#0000ff;stroke:#0000ff;" x="157.993683" xlink:href="#m3a51b9579e" y="280.400786"/>
     <use style="fill:#0000ff;stroke:#0000ff;" x="165.731741" xlink:href="#m3a51b9579e" y="286.23451"/>
     <use style="fill:#0000ff;stroke:#0000ff;" x="173.4698" xlink:href="#m3a51b9579e" y="291.825684"/>
     <use style="fill:#0000ff;stroke:#0000ff;" x="181.207858" xlink:href="#m3a51b9579e" y="296.960041"/>
     <use style="fill:#0000ff;stroke:#0000ff;" x="188.945917" xlink:href="#m3a51b9579e" y="302.217232"/>
     <use style="fill:#0000ff;stroke:#0000ff;" x="196.683975" xlink:href="#m3a51b9579e" y="303.882133"/>
     <use style="fill:#0000ff;stroke:#0000ff;" x="204.422034" xlink:href="#m3a51b9579e" y="308.904764"/>
     <use style="fill:#0000ff;stroke:#0000ff;" x="212.160092" xlink:href="#m3a51b9579e" y="313.448211"/>
     <use style="fill:#0000ff;stroke:#0000ff;" x="219.898151" xlink:href="#m3a51b9579e" y="316.084868"/>
     <use style="fill:#0000ff;stroke:#0000ff;" x="227.63621" xlink:href="#m3a51b9579e" y="319.260036"/>
     <use style="fill:#0000ff;stroke:#0000ff;" x="235.374268" xlink:href="#m3a51b9579e" y="321.800092"/>
     <use style="fill:#0000ff;stroke:#0000ff;" x="243.112327" xlink:href="#m3a51b9579e" y="326.132009"/>
     <use style="fill:#0000ff;stroke:#0000ff;" x="250.850385" xlink:href="#m3a51b9579e" y="327.229953"/>
     <use style="fill:#0000ff;stroke:#0000ff;" x="258.588444" xlink:href="#m3a51b9579e" y="328.372066"/>
     <use style="fill:#0000ff;stroke:#0000ff;" x="266.326502" xlink:href="#m3a51b9579e" y="331.092816"/>
     <use style="fill:#0000ff;stroke:#0000ff;" x="274.064561" xlink:href="#m3a51b9579e" y="332.279685"/>
     <use style="fill:#0000ff;stroke:#0000ff;" x="281.802619" xlink:href="#m3a51b9579e" y="333.57006"/>
     <use style="fill:#0000ff;stroke:#0000ff;" x="289.540678" xlink:href="#m3a51b9579e" y="334.993497"/>
     <use style="fill:#0000ff;stroke:#0000ff;" x="297.278737" xlink:href="#m3a51b9579e" y="336.698854"/>
     <use style="fill:#0000ff;stroke:#0000ff;" x="305.016795" xlink:href="#m3a51b9579e" y="337.809588"/>
     <use style="fill:#0000ff;stroke:#0000ff;" x="312.754854" xlink:href="#m3a51b9579e" y="339.567617"/>
     <use style="fill:#0000ff;stroke:#0000ff;" x="320.492912" xlink:href="#m3a51b9579e" y="339.750721"/>
     <use style="fill:#0000ff;stroke:#0000ff;" x="328.230971" xlink:href="#m3a51b9579e" y="341.606057"/>
     <use style="fill:#0000ff;stroke:#0000ff;" x="335.969029" xlink:href="#m3a51b9579e" y="342.684522"/>
     <use style="fill:#0000ff;stroke:#0000ff;" x="343.707088" xlink:href="#m3a51b9579e" y="345.365207"/>
     <use style="fill:#0000ff;stroke:#0000ff;" x="351.445146" xlink:href="#m3a51b9579e" y="346.028646"/>
     <use style="fill:#0000ff;stroke:#0000ff;" x="359.183205" xlink:href="#m3a51b9579e" y="347.398555"/>
     <use style="fill:#0000ff;stroke:#0000ff;" x="366.921263" xlink:href="#m3a51b9579e" y="347.759498"/>
     <use style="fill:#0000ff;stroke:#0000ff;" x="374.659322" xlink:href="#m3a51b9579e" y="348.55424"/>
     <use style="fill:#0000ff;stroke:#0000ff;" x="382.397381" xlink:href="#m3a51b9579e" y="350.607978"/>
     <use style="fill:#0000ff;stroke:#0000ff;" x="390.135439" xlink:href="#m3a51b9579e" y="351.330212"/>
     <use style="fill:#0000ff;stroke:#0000ff;" x="397.873498" xlink:href="#m3a51b9579e" y="352.800858"/>
     <use style="fill:#0000ff;stroke:#0000ff;" x="405.611556" xlink:href="#m3a51b9579e" y="352.864865"/>
     <use style="fill:#0000ff;stroke:#0000ff;" x="413.349615" xlink:href="#m3a51b9579e" y="354.140072"/>
     <use style="fill:#0000ff;stroke:#0000ff;" x="421.087673" xlink:href="#m3a51b9579e" y="355.961368"/>
     <use style="fill:#0000ff;stroke:#0000ff;" x="428.825732" xlink:href="#m3a51b9579e" y="356.575068"/>
     <use style="fill:#0000ff;stroke:#0000ff;" x="436.56379" xlink:href="#m3a51b9579e" y="357.401851"/>
     <use style="fill:#0000ff;stroke:#0000ff;" x="444.301849" xlink:href="#m3a51b9579e" y="358.135606"/>
     <use style="fill:#0000ff;stroke:#0000ff;" x="452.039908" xlink:href="#m3a51b9579e" y="359.591605"/>
     <use style="fill:#0000ff;stroke:#0000ff;" x="459.777966" xlink:href="#m3a51b9579e" y="360.560559"/>
     <use style="fill:#0000ff;stroke:#0000ff;" x="467.516025" xlink:href="#m3a51b9579e" y="361.185377"/>
     <use style="fill:#0000ff;stroke:#0000ff;" x="475.254083" xlink:href="#m3a51b9579e" y="361.432966"/>
     <use style="fill:#0000ff;stroke:#0000ff;" x="482.992142" xlink:href="#m3a51b9579e" y="361.903475"/>
     <use style="fill:#0000ff;stroke:#0000ff;" x="490.7302" xlink:href="#m3a51b9579e" y="363.989243"/>
     <use style="fill:#0000ff;stroke:#0000ff;" x="498.468259" xlink:href="#m3a51b9579e" y="364.021795"/>
     <use style="fill:#0000ff;stroke:#0000ff;" x="506.206317" xlink:href="#m3a51b9579e" y="364.713747"/>
     <use style="fill:#0000ff;stroke:#0000ff;" x="513.944376" xlink:href="#m3a51b9579e" y="365.507718"/>
     <use style="fill:#0000ff;stroke:#0000ff;" x="521.682435" xlink:href="#m3a51b9579e" y="366.777442"/>
     <use style="fill:#0000ff;stroke:#0000ff;" x="529.420493" xlink:href="#m3a51b9579e" y="366.516867"/>
     <use style="fill:#0000ff;stroke:#0000ff;" x="537.158552" xlink:href="#m3a51b9579e" y="367.996927"/>
     <use style="fill:#0000ff;stroke:#0000ff;" x="544.89661" xlink:href="#m3a51b9579e" y="369.36"/>
     <use style="fill:#0000ff;stroke:#0000ff;" x="552.634669" xlink:href="#m3a51b9579e" y="368.057687"/>
     <use style="fill:#0000ff;stroke:#0000ff;" x="560.372727" xlink:href="#m3a51b9579e" y="368.730621"/>
    </g>
   </g>
   <g id="line2d_15">
    <path clip-path="url(#pfcb356c2e5)" d="M 103.827273 74.917322 
L 111.565331 135.584549 
L 119.30339 185.686321 
L 127.041448 184.043091 
L 134.779507 214.097596 
L 142.517565 209.321327 
L 150.255624 223.516585 
L 157.993683 212.535192 
L 165.731741 227.073857 
L 173.4698 257.206495 
L 181.207858 270.474828 
L 188.945917 266.89293 
L 196.683975 282.879311 
L 204.422034 282.040313 
L 212.160092 288.045633 
L 219.898151 286.508277 
L 227.63621 281.798555 
L 235.374268 314.007037 
L 243.112327 308.400456 
L 250.850385 276.757444 
L 258.588444 310.705692 
L 266.326502 305.13493 
L 274.064561 315.739267 
L 281.802619 297.488899 
L 289.540678 305.883136 
L 297.278737 297.36207 
L 305.016795 287.300739 
L 312.754854 292.814237 
L 320.492912 297.201441 
L 328.230971 288.765478 
L 335.969029 315.980059 
L 343.707088 326.966479 
L 351.445146 295.483369 
L 359.183205 315.776096 
L 366.921263 316.296431 
L 374.659322 305.377882 
L 382.397381 303.3165 
L 390.135439 322.574378 
L 397.873498 319.478559 
L 405.611556 302.946979 
L 413.349615 318.671211 
L 421.087673 316.191046 
L 428.825732 313.326247 
L 436.56379 327.734663 
L 444.301849 300.288509 
L 452.039908 317.999433 
L 459.777966 332.676795 
L 467.516025 319.623705 
L 475.254083 321.704653 
L 482.992142 327.416391 
L 490.7302 324.67703 
L 498.468259 298.691653 
L 506.206317 326.45799 
L 513.944376 338.34583 
L 521.682435 332.329728 
L 529.420493 324.434664 
L 537.158552 317.236916 
L 544.89661 326.718695 
L 552.634669 313.250937 
L 560.372727 328.054076 
" style="fill:none;stroke:#ff0000;stroke-linecap:square;stroke-width:1.5;"/>
   </g>
   <g id="line2d_16">
    <path clip-path="url(#pfcb356c2e5)" d="M 103.827273 74.917322 
L 111.565331 135.584549 
L 119.30339 185.686321 
L 127.041448 184.043091 
L 134.779507 214.097596 
L 142.517565 209.321327 
L 150.255624 223.516585 
L 157.993683 212.535192 
L 165.731741 227.073857 
L 173.4698 257.206495 
L 181.207858 270.474828 
L 188.945917 266.89293 
L 196.683975 282.879311 
L 204.422034 282.040313 
L 212.160092 288.045633 
L 219.898151 286.508277 
L 227.63621 281.798555 
L 235.374268 314.007037 
L 243.112327 308.400456 
L 250.850385 276.757444 
L 258.588444 310.705692 
L 266.326502 305.13493 
L 274.064561 315.739267 
L 281.802619 297.488899 
L 289.540678 305.883136 
L 297.278737 297.36207 
L 305.016795 287.300739 
L 312.754854 292.814237 
L 320.492912 297.201441 
L 328.230971 288.765478 
L 335.969029 315.980059 
L 343.707088 326.966479 
L 351.445146 295.483369 
L 359.183205 315.776096 
L 366.921263 316.296431 
L 374.659322 305.377882 
L 382.397381 303.3165 
L 390.135439 322.574378 
L 397.873498 319.478559 
L 405.611556 302.946979 
L 413.349615 318.671211 
L 421.087673 316.191046 
L 428.825732 313.326247 
L 436.56379 327.734663 
L 444.301849 300.288509 
L 452.039908 317.999433 
L 459.777966 332.676795 
L 467.516025 319.623705 
L 475.254083 321.704653 
L 482.992142 327.416391 
L 490.7302 324.67703 
L 498.468259 298.691653 
L 506.206317 326.45799 
L 513.944376 338.34583 
L 521.682435 332.329728 
L 529.420493 324.434664 
L 537.158552 317.236916 
L 544.89661 326.718695 
L 552.634669 313.250937 
L 560.372727 328.054076 
" style="fill:none;stroke:#0000ff;stroke-linecap:square;stroke-width:1.5;"/>
   </g>
   <g id="patch_3">
    <path d="M 81 384.48 
L 81 51.84 
" style="fill:none;stroke:#000000;stroke-linecap:square;stroke-linejoin:miter;stroke-width:0.8;"/>
   </g>
   <g id="patch_4">
    <path d="M 583.2 384.48 
L 583.2 51.84 
" style="fill:none;stroke:#000000;stroke-linecap:square;stroke-linejoin:miter;stroke-width:0.8;"/>
   </g>
   <g id="patch_5">
    <path d="M 81 384.48 
L 583.2 384.48 
" style="fill:none;stroke:#000000;stroke-linecap:square;stroke-linejoin:miter;stroke-width:0.8;"/>
   </g>
   <g id="patch_6">
    <path d="M 81 51.84 
L 583.2 51.84 
" style="fill:none;stroke:#000000;stroke-linecap:square;stroke-linejoin:miter;stroke-width:0.8;"/>
   </g>
   <g id="legend_1">
    <g id="patch_7">
     <path d="M 478.022813 142.25375 
L 573.4 142.25375 
Q 576.2 142.25375 576.2 139.45375 
L 576.2 61.64 
Q 576.2 58.84 573.4 58.84 
L 478.022813 58.84 
Q 475.222813 58.84 475.222813 61.64 
L 475.222813 139.45375 
Q 475.222813 142.25375 478.022813 142.25375 
z
" style="fill:#ffffff;opacity:0.8;stroke:#cccccc;stroke-linejoin:miter;"/>
    </g>
    <g id="line2d_17"/>
    <g id="line2d_18">
     <g>
      <use style="fill:#ff0000;stroke:#ff0000;" x="494.822813" xlink:href="#m9983c856be" y="69.560937"/>
     </g>
    </g>
    <g id="text_14">
     <!-- acc -->
     <g transform="translate(520.022813 74.460938)scale(0.14 -0.14)">
      <defs>
       <path d="M 40.4375 6.390625 
Q 35.546875 2.25 31.03125 0.53125 
Q 26.515625 -1.171875 21.34375 -1.171875 
Q 12.796875 -1.171875 8.203125 3 
Q 3.609375 7.171875 3.609375 13.671875 
Q 3.609375 17.484375 5.34375 20.625 
Q 7.078125 23.78125 9.890625 25.6875 
Q 12.703125 27.59375 16.21875 28.5625 
Q 18.796875 29.25 24.03125 29.890625 
Q 34.671875 31.15625 39.703125 32.90625 
Q 39.75 34.71875 39.75 35.203125 
Q 39.75 40.578125 37.25 42.78125 
Q 33.890625 45.75 27.25 45.75 
Q 21.046875 45.75 18.09375 43.578125 
Q 15.140625 41.40625 13.71875 35.890625 
L 5.125 37.0625 
Q 6.296875 42.578125 8.984375 45.96875 
Q 11.671875 49.359375 16.75 51.1875 
Q 21.828125 53.03125 28.515625 53.03125 
Q 35.15625 53.03125 39.296875 51.46875 
Q 43.453125 49.90625 45.40625 47.53125 
Q 47.359375 45.171875 48.140625 41.546875 
Q 48.578125 39.3125 48.578125 33.453125 
L 48.578125 21.734375 
Q 48.578125 9.46875 49.140625 6.21875 
Q 49.703125 2.984375 51.375 0 
L 42.1875 0 
Q 40.828125 2.734375 40.4375 6.390625 
z
M 39.703125 26.03125 
Q 34.90625 24.078125 25.34375 22.703125 
Q 19.921875 21.921875 17.671875 20.9375 
Q 15.4375 19.96875 14.203125 18.09375 
Q 12.984375 16.21875 12.984375 13.921875 
Q 12.984375 10.40625 15.640625 8.0625 
Q 18.3125 5.71875 23.4375 5.71875 
Q 28.515625 5.71875 32.46875 7.9375 
Q 36.421875 10.15625 38.28125 14.015625 
Q 39.703125 17 39.703125 22.796875 
z
" id="ArialMT-97"/>
      </defs>
      <use xlink:href="#ArialMT-97"/>
      <use x="55.615234" xlink:href="#ArialMT-99"/>
      <use x="105.615234" xlink:href="#ArialMT-99"/>
     </g>
    </g>
    <g id="line2d_19"/>
    <g id="line2d_20">
     <g>
      <use style="fill:#0000ff;stroke:#0000ff;" x="494.822813" xlink:href="#m3a51b9579e" y="89.364375"/>
     </g>
    </g>
    <g id="text_15">
     <!-- loss -->
     <g transform="translate(520.022813 94.264375)scale(0.14 -0.14)">
      <defs>
       <path d="M 6.390625 0 
L 6.390625 71.578125 
L 15.1875 71.578125 
L 15.1875 0 
z
" id="ArialMT-108"/>
      </defs>
      <use xlink:href="#ArialMT-108"/>
      <use x="22.216797" xlink:href="#ArialMT-111"/>
      <use x="77.832031" xlink:href="#ArialMT-115"/>
      <use x="127.832031" xlink:href="#ArialMT-115"/>
     </g>
    </g>
    <g id="line2d_21">
     <path d="M 480.822813 109.167812 
L 508.822813 109.167812 
" style="fill:none;stroke:#ff0000;stroke-linecap:square;stroke-width:1.5;"/>
    </g>
    <g id="line2d_22"/>
    <g id="text_16">
     <!-- val_acc -->
     <g transform="translate(520.022813 114.067813)scale(0.14 -0.14)">
      <defs>
       <path d="M 21 0 
L 1.265625 51.859375 
L 10.546875 51.859375 
L 21.6875 20.796875 
Q 23.484375 15.765625 25 10.359375 
Q 26.171875 14.453125 28.265625 20.21875 
L 39.796875 51.859375 
L 48.828125 51.859375 
L 29.203125 0 
z
" id="ArialMT-118"/>
       <path d="M -1.515625 -19.875 
L -1.515625 -13.53125 
L 56.734375 -13.53125 
L 56.734375 -19.875 
z
" id="ArialMT-95"/>
      </defs>
      <use xlink:href="#ArialMT-118"/>
      <use x="50" xlink:href="#ArialMT-97"/>
      <use x="105.615234" xlink:href="#ArialMT-108"/>
      <use x="127.832031" xlink:href="#ArialMT-95"/>
      <use x="183.447266" xlink:href="#ArialMT-97"/>
      <use x="239.0625" xlink:href="#ArialMT-99"/>
      <use x="289.0625" xlink:href="#ArialMT-99"/>
     </g>
    </g>
    <g id="line2d_23">
     <path d="M 480.822813 128.97125 
L 508.822813 128.97125 
" style="fill:none;stroke:#0000ff;stroke-linecap:square;stroke-width:1.5;"/>
    </g>
    <g id="line2d_24"/>
    <g id="text_17">
     <!-- val_loss -->
     <g transform="translate(520.022813 133.87125)scale(0.14 -0.14)">
      <use xlink:href="#ArialMT-118"/>
      <use x="50" xlink:href="#ArialMT-97"/>
      <use x="105.615234" xlink:href="#ArialMT-108"/>
      <use x="127.832031" xlink:href="#ArialMT-95"/>
      <use x="183.447266" xlink:href="#ArialMT-108"/>
      <use x="205.664062" xlink:href="#ArialMT-111"/>
      <use x="261.279297" xlink:href="#ArialMT-115"/>
      <use x="311.279297" xlink:href="#ArialMT-115"/>
     </g>
    </g>
   </g>
  </g>
 </g>
 <defs>
  <clipPath id="pfcb356c2e5">
   <rect height="332.64" width="502.2" x="81" y="51.84"/>
  </clipPath>
 </defs>
</svg>
