<?xml version="1.0" encoding="utf-8" standalone="no"?>
<!DOCTYPE svg PUBLIC "-//W3C//DTD SVG 1.1//EN"
  "http://www.w3.org/Graphics/SVG/1.1/DTD/svg11.dtd">
<!-- Created with matplotlib (https://matplotlib.org/) -->
<svg height="345.6pt" version="1.1" viewBox="0 0 460.8 345.6" width="460.8pt" xmlns="http://www.w3.org/2000/svg" xmlns:xlink="http://www.w3.org/1999/xlink">
 <metadata>
  <rdf:RDF xmlns:cc="http://creativecommons.org/ns#" xmlns:dc="http://purl.org/dc/elements/1.1/" xmlns:rdf="http://www.w3.org/1999/02/22-rdf-syntax-ns#">
   <cc:Work>
    <dc:type rdf:resource="http://purl.org/dc/dcmitype/StillImage"/>
    <dc:date>2021-09-05T16:58:38.978412</dc:date>
    <dc:format>image/svg+xml</dc:format>
    <dc:creator>
     <cc:Agent>
      <dc:title>Matplotlib v3.3.4, https://matplotlib.org/</dc:title>
     </cc:Agent>
    </dc:creator>
   </cc:Work>
  </rdf:RDF>
 </metadata>
 <defs>
  <style type="text/css">*{stroke-linecap:butt;stroke-linejoin:round;}</style>
 </defs>
 <g id="figure_1">
  <g id="patch_1">
   <path d="M 0 345.6 
L 460.8 345.6 
L 460.8 0 
L 0 0 
z
" style="fill:#ffffff;"/>
  </g>
  <g id="axes_1">
   <g id="patch_2">
    <path d="M 57.6 307.584 
L 414.72 307.584 
L 414.72 41.472 
L 57.6 41.472 
z
" style="fill:#ffffff;"/>
   </g>
   <g id="matplotlib.axis_1">
    <g id="xtick_1">
     <g id="line2d_1">
      <defs>
       <path d="M 0 0 
L 0 3.5 
" id="mbe7d56bec8" style="stroke:#000000;stroke-width:0.8;"/>
      </defs>
      <g>
       <use style="stroke:#000000;stroke-width:0.8;" x="67.207124" xlink:href="#mbe7d56bec8" y="307.584"/>
      </g>
     </g>
     <g id="text_1">
      <!-- 0 -->
      <g transform="translate(64.025874 322.182437)scale(0.1 -0.1)">
       <defs>
        <path d="M 31.78125 66.40625 
Q 24.171875 66.40625 20.328125 58.90625 
Q 16.5 51.421875 16.5 36.375 
Q 16.5 21.390625 20.328125 13.890625 
Q 24.171875 6.390625 31.78125 6.390625 
Q 39.453125 6.390625 43.28125 13.890625 
Q 47.125 21.390625 47.125 36.375 
Q 47.125 51.421875 43.28125 58.90625 
Q 39.453125 66.40625 31.78125 66.40625 
z
M 31.78125 74.21875 
Q 44.046875 74.21875 50.515625 64.515625 
Q 56.984375 54.828125 56.984375 36.375 
Q 56.984375 17.96875 50.515625 8.265625 
Q 44.046875 -1.421875 31.78125 -1.421875 
Q 19.53125 -1.421875 13.0625 8.265625 
Q 6.59375 17.96875 6.59375 36.375 
Q 6.59375 54.828125 13.0625 64.515625 
Q 19.53125 74.21875 31.78125 74.21875 
z
" id="DejaVuSans-48"/>
       </defs>
       <use xlink:href="#DejaVuSans-48"/>
      </g>
     </g>
    </g>
    <g id="xtick_2">
     <g id="line2d_2">
      <g>
       <use style="stroke:#000000;stroke-width:0.8;" x="133.463154" xlink:href="#mbe7d56bec8" y="307.584"/>
      </g>
     </g>
     <g id="text_2">
      <!-- 10 -->
      <g transform="translate(127.100654 322.182437)scale(0.1 -0.1)">
       <defs>
        <path d="M 12.40625 8.296875 
L 28.515625 8.296875 
L 28.515625 63.921875 
L 10.984375 60.40625 
L 10.984375 69.390625 
L 28.421875 72.90625 
L 38.28125 72.90625 
L 38.28125 8.296875 
L 54.390625 8.296875 
L 54.390625 0 
L 12.40625 0 
z
" id="DejaVuSans-49"/>
       </defs>
       <use xlink:href="#DejaVuSans-49"/>
       <use x="63.623047" xlink:href="#DejaVuSans-48"/>
      </g>
     </g>
    </g>
    <g id="xtick_3">
     <g id="line2d_3">
      <g>
       <use style="stroke:#000000;stroke-width:0.8;" x="199.719184" xlink:href="#mbe7d56bec8" y="307.584"/>
      </g>
     </g>
     <g id="text_3">
      <!-- 20 -->
      <g transform="translate(193.356684 322.182437)scale(0.1 -0.1)">
       <defs>
        <path d="M 19.1875 8.296875 
L 53.609375 8.296875 
L 53.609375 0 
L 7.328125 0 
L 7.328125 8.296875 
Q 12.9375 14.109375 22.625 23.890625 
Q 32.328125 33.6875 34.8125 36.53125 
Q 39.546875 41.84375 41.421875 45.53125 
Q 43.3125 49.21875 43.3125 52.78125 
Q 43.3125 58.59375 39.234375 62.25 
Q 35.15625 65.921875 28.609375 65.921875 
Q 23.96875 65.921875 18.8125 64.3125 
Q 13.671875 62.703125 7.8125 59.421875 
L 7.8125 69.390625 
Q 13.765625 71.78125 18.9375 73 
Q 24.125 74.21875 28.421875 74.21875 
Q 39.75 74.21875 46.484375 68.546875 
Q 53.21875 62.890625 53.21875 53.421875 
Q 53.21875 48.921875 51.53125 44.890625 
Q 49.859375 40.875 45.40625 35.40625 
Q 44.1875 33.984375 37.640625 27.21875 
Q 31.109375 20.453125 19.1875 8.296875 
z
" id="DejaVuSans-50"/>
       </defs>
       <use xlink:href="#DejaVuSans-50"/>
       <use x="63.623047" xlink:href="#DejaVuSans-48"/>
      </g>
     </g>
    </g>
    <g id="xtick_4">
     <g id="line2d_4">
      <g>
       <use style="stroke:#000000;stroke-width:0.8;" x="265.975213" xlink:href="#mbe7d56bec8" y="307.584"/>
      </g>
     </g>
     <g id="text_4">
      <!-- 30 -->
      <g transform="translate(259.612713 322.182437)scale(0.1 -0.1)">
       <defs>
        <path d="M 40.578125 39.3125 
Q 47.65625 37.796875 51.625 33 
Q 55.609375 28.21875 55.609375 21.1875 
Q 55.609375 10.40625 48.1875 4.484375 
Q 40.765625 -1.421875 27.09375 -1.421875 
Q 22.515625 -1.421875 17.65625 -0.515625 
Q 12.796875 0.390625 7.625 2.203125 
L 7.625 11.71875 
Q 11.71875 9.328125 16.59375 8.109375 
Q 21.484375 6.890625 26.8125 6.890625 
Q 36.078125 6.890625 40.9375 10.546875 
Q 45.796875 14.203125 45.796875 21.1875 
Q 45.796875 27.640625 41.28125 31.265625 
Q 36.765625 34.90625 28.71875 34.90625 
L 20.21875 34.90625 
L 20.21875 43.015625 
L 29.109375 43.015625 
Q 36.375 43.015625 40.234375 45.921875 
Q 44.09375 48.828125 44.09375 54.296875 
Q 44.09375 59.90625 40.109375 62.90625 
Q 36.140625 65.921875 28.71875 65.921875 
Q 24.65625 65.921875 20.015625 65.03125 
Q 15.375 64.15625 9.8125 62.3125 
L 9.8125 71.09375 
Q 15.4375 72.65625 20.34375 73.4375 
Q 25.25 74.21875 29.59375 74.21875 
Q 40.828125 74.21875 47.359375 69.109375 
Q 53.90625 64.015625 53.90625 55.328125 
Q 53.90625 49.265625 50.4375 45.09375 
Q 46.96875 40.921875 40.578125 39.3125 
z
" id="DejaVuSans-51"/>
       </defs>
       <use xlink:href="#DejaVuSans-51"/>
       <use x="63.623047" xlink:href="#DejaVuSans-48"/>
      </g>
     </g>
    </g>
    <g id="xtick_5">
     <g id="line2d_5">
      <g>
       <use style="stroke:#000000;stroke-width:0.8;" x="332.231243" xlink:href="#mbe7d56bec8" y="307.584"/>
      </g>
     </g>
     <g id="text_5">
      <!-- 40 -->
      <g transform="translate(325.868743 322.182437)scale(0.1 -0.1)">
       <defs>
        <path d="M 37.796875 64.3125 
L 12.890625 25.390625 
L 37.796875 25.390625 
z
M 35.203125 72.90625 
L 47.609375 72.90625 
L 47.609375 25.390625 
L 58.015625 25.390625 
L 58.015625 17.1875 
L 47.609375 17.1875 
L 47.609375 0 
L 37.796875 0 
L 37.796875 17.1875 
L 4.890625 17.1875 
L 4.890625 26.703125 
z
" id="DejaVuSans-52"/>
       </defs>
       <use xlink:href="#DejaVuSans-52"/>
       <use x="63.623047" xlink:href="#DejaVuSans-48"/>
      </g>
     </g>
    </g>
    <g id="xtick_6">
     <g id="line2d_6">
      <g>
       <use style="stroke:#000000;stroke-width:0.8;" x="398.487273" xlink:href="#mbe7d56bec8" y="307.584"/>
      </g>
     </g>
     <g id="text_6">
      <!-- 50 -->
      <g transform="translate(392.124773 322.182437)scale(0.1 -0.1)">
       <defs>
        <path d="M 10.796875 72.90625 
L 49.515625 72.90625 
L 49.515625 64.59375 
L 19.828125 64.59375 
L 19.828125 46.734375 
Q 21.96875 47.46875 24.109375 47.828125 
Q 26.265625 48.1875 28.421875 48.1875 
Q 40.625 48.1875 47.75 41.5 
Q 54.890625 34.8125 54.890625 23.390625 
Q 54.890625 11.625 47.5625 5.09375 
Q 40.234375 -1.421875 26.90625 -1.421875 
Q 22.3125 -1.421875 17.546875 -0.640625 
Q 12.796875 0.140625 7.71875 1.703125 
L 7.71875 11.625 
Q 12.109375 9.234375 16.796875 8.0625 
Q 21.484375 6.890625 26.703125 6.890625 
Q 35.15625 6.890625 40.078125 11.328125 
Q 45.015625 15.765625 45.015625 23.390625 
Q 45.015625 31 40.078125 35.4375 
Q 35.15625 39.890625 26.703125 39.890625 
Q 22.75 39.890625 18.8125 39.015625 
Q 14.890625 38.140625 10.796875 36.28125 
z
" id="DejaVuSans-53"/>
       </defs>
       <use xlink:href="#DejaVuSans-53"/>
       <use x="63.623047" xlink:href="#DejaVuSans-48"/>
      </g>
     </g>
    </g>
   </g>
   <g id="matplotlib.axis_2">
    <g id="ytick_1">
     <g id="line2d_7">
      <defs>
       <path d="M 0 0 
L -3.5 0 
" id="m5ef35be482" style="stroke:#000000;stroke-width:0.8;"/>
      </defs>
      <g>
       <use style="stroke:#000000;stroke-width:0.8;" x="57.6" xlink:href="#m5ef35be482" y="296.232353"/>
      </g>
     </g>
     <g id="text_7">
      <!-- 0.00 -->
      <g transform="translate(28.334375 300.031572)scale(0.1 -0.1)">
       <defs>
        <path d="M 10.6875 12.40625 
L 21 12.40625 
L 21 0 
L 10.6875 0 
z
" id="DejaVuSans-46"/>
       </defs>
       <use xlink:href="#DejaVuSans-48"/>
       <use x="63.623047" xlink:href="#DejaVuSans-46"/>
       <use x="95.410156" xlink:href="#DejaVuSans-48"/>
       <use x="159.033203" xlink:href="#DejaVuSans-48"/>
      </g>
     </g>
    </g>
    <g id="ytick_2">
     <g id="line2d_8">
      <g>
       <use style="stroke:#000000;stroke-width:0.8;" x="57.6" xlink:href="#m5ef35be482" y="255.637615"/>
      </g>
     </g>
     <g id="text_8">
      <!-- 0.01 -->
      <g transform="translate(28.334375 259.436834)scale(0.1 -0.1)">
       <use xlink:href="#DejaVuSans-48"/>
       <use x="63.623047" xlink:href="#DejaVuSans-46"/>
       <use x="95.410156" xlink:href="#DejaVuSans-48"/>
       <use x="159.033203" xlink:href="#DejaVuSans-49"/>
      </g>
     </g>
    </g>
    <g id="ytick_3">
     <g id="line2d_9">
      <g>
       <use style="stroke:#000000;stroke-width:0.8;" x="57.6" xlink:href="#m5ef35be482" y="215.042878"/>
      </g>
     </g>
     <g id="text_9">
      <!-- 0.02 -->
      <g transform="translate(28.334375 218.842097)scale(0.1 -0.1)">
       <use xlink:href="#DejaVuSans-48"/>
       <use x="63.623047" xlink:href="#DejaVuSans-46"/>
       <use x="95.410156" xlink:href="#DejaVuSans-48"/>
       <use x="159.033203" xlink:href="#DejaVuSans-50"/>
      </g>
     </g>
    </g>
    <g id="ytick_4">
     <g id="line2d_10">
      <g>
       <use style="stroke:#000000;stroke-width:0.8;" x="57.6" xlink:href="#m5ef35be482" y="174.448141"/>
      </g>
     </g>
     <g id="text_10">
      <!-- 0.03 -->
      <g transform="translate(28.334375 178.247359)scale(0.1 -0.1)">
       <use xlink:href="#DejaVuSans-48"/>
       <use x="63.623047" xlink:href="#DejaVuSans-46"/>
       <use x="95.410156" xlink:href="#DejaVuSans-48"/>
       <use x="159.033203" xlink:href="#DejaVuSans-51"/>
      </g>
     </g>
    </g>
    <g id="ytick_5">
     <g id="line2d_11">
      <g>
       <use style="stroke:#000000;stroke-width:0.8;" x="57.6" xlink:href="#m5ef35be482" y="133.853403"/>
      </g>
     </g>
     <g id="text_11">
      <!-- 0.04 -->
      <g transform="translate(28.334375 137.652622)scale(0.1 -0.1)">
       <use xlink:href="#DejaVuSans-48"/>
       <use x="63.623047" xlink:href="#DejaVuSans-46"/>
       <use x="95.410156" xlink:href="#DejaVuSans-48"/>
       <use x="159.033203" xlink:href="#DejaVuSans-52"/>
      </g>
     </g>
    </g>
    <g id="ytick_6">
     <g id="line2d_12">
      <g>
       <use style="stroke:#000000;stroke-width:0.8;" x="57.6" xlink:href="#m5ef35be482" y="93.258666"/>
      </g>
     </g>
     <g id="text_12">
      <!-- 0.05 -->
      <g transform="translate(28.334375 97.057884)scale(0.1 -0.1)">
       <use xlink:href="#DejaVuSans-48"/>
       <use x="63.623047" xlink:href="#DejaVuSans-46"/>
       <use x="95.410156" xlink:href="#DejaVuSans-48"/>
       <use x="159.033203" xlink:href="#DejaVuSans-53"/>
      </g>
     </g>
    </g>
    <g id="ytick_7">
     <g id="line2d_13">
      <g>
       <use style="stroke:#000000;stroke-width:0.8;" x="57.6" xlink:href="#m5ef35be482" y="52.663928"/>
      </g>
     </g>
     <g id="text_13">
      <!-- 0.06 -->
      <g transform="translate(28.334375 56.463147)scale(0.1 -0.1)">
       <defs>
        <path d="M 33.015625 40.375 
Q 26.375 40.375 22.484375 35.828125 
Q 18.609375 31.296875 18.609375 23.390625 
Q 18.609375 15.53125 22.484375 10.953125 
Q 26.375 6.390625 33.015625 6.390625 
Q 39.65625 6.390625 43.53125 10.953125 
Q 47.40625 15.53125 47.40625 23.390625 
Q 47.40625 31.296875 43.53125 35.828125 
Q 39.65625 40.375 33.015625 40.375 
z
M 52.59375 71.296875 
L 52.59375 62.3125 
Q 48.875 64.0625 45.09375 64.984375 
Q 41.3125 65.921875 37.59375 65.921875 
Q 27.828125 65.921875 22.671875 59.328125 
Q 17.53125 52.734375 16.796875 39.40625 
Q 19.671875 43.65625 24.015625 45.921875 
Q 28.375 48.1875 33.59375 48.1875 
Q 44.578125 48.1875 50.953125 41.515625 
Q 57.328125 34.859375 57.328125 23.390625 
Q 57.328125 12.15625 50.6875 5.359375 
Q 44.046875 -1.421875 33.015625 -1.421875 
Q 20.359375 -1.421875 13.671875 8.265625 
Q 6.984375 17.96875 6.984375 36.375 
Q 6.984375 53.65625 15.1875 63.9375 
Q 23.390625 74.21875 37.203125 74.21875 
Q 40.921875 74.21875 44.703125 73.484375 
Q 48.484375 72.75 52.59375 71.296875 
z
" id="DejaVuSans-54"/>
       </defs>
       <use xlink:href="#DejaVuSans-48"/>
       <use x="63.623047" xlink:href="#DejaVuSans-46"/>
       <use x="95.410156" xlink:href="#DejaVuSans-48"/>
       <use x="159.033203" xlink:href="#DejaVuSans-54"/>
      </g>
     </g>
    </g>
   </g>
   <g id="line2d_14">
    <defs>
     <path d="M 0 3 
C 0.795609 3 1.55874 2.683901 2.12132 2.12132 
C 2.683901 1.55874 3 0.795609 3 0 
C 3 -0.795609 2.683901 -1.55874 2.12132 -2.12132 
C 1.55874 -2.683901 0.795609 -3 0 -3 
C -0.795609 -3 -1.55874 -2.683901 -2.12132 -2.12132 
C -2.683901 -1.55874 -3 -0.795609 -3 0 
C -3 0.795609 -2.683901 1.55874 -2.12132 2.12132 
C -1.55874 2.683901 -0.795609 3 0 3 
z
" id="m650eeb612e" style="stroke:#ff0000;"/>
    </defs>
    <g clip-path="url(#p36b45ef1fd)">
     <use style="fill:#ff0000;stroke:#ff0000;" x="73.832727" xlink:href="#m650eeb612e" y="53.568"/>
     <use style="fill:#ff0000;stroke:#ff0000;" x="80.45833" xlink:href="#m650eeb612e" y="152.686045"/>
     <use style="fill:#ff0000;stroke:#ff0000;" x="87.083933" xlink:href="#m650eeb612e" y="183.350214"/>
     <use style="fill:#ff0000;stroke:#ff0000;" x="93.709536" xlink:href="#m650eeb612e" y="200.869959"/>
     <use style="fill:#ff0000;stroke:#ff0000;" x="100.335139" xlink:href="#m650eeb612e" y="213.038447"/>
     <use style="fill:#ff0000;stroke:#ff0000;" x="106.960742" xlink:href="#m650eeb612e" y="221.97195"/>
     <use style="fill:#ff0000;stroke:#ff0000;" x="113.586345" xlink:href="#m650eeb612e" y="228.68373"/>
     <use style="fill:#ff0000;stroke:#ff0000;" x="120.211948" xlink:href="#m650eeb612e" y="233.879314"/>
     <use style="fill:#ff0000;stroke:#ff0000;" x="126.837551" xlink:href="#m650eeb612e" y="238.192086"/>
     <use style="fill:#ff0000;stroke:#ff0000;" x="133.463154" xlink:href="#m650eeb612e" y="242.117362"/>
     <use style="fill:#ff0000;stroke:#ff0000;" x="140.088757" xlink:href="#m650eeb612e" y="245.49428"/>
     <use style="fill:#ff0000;stroke:#ff0000;" x="146.71436" xlink:href="#m650eeb612e" y="248.07701"/>
     <use style="fill:#ff0000;stroke:#ff0000;" x="153.339963" xlink:href="#m650eeb612e" y="250.082464"/>
     <use style="fill:#ff0000;stroke:#ff0000;" x="159.965566" xlink:href="#m650eeb612e" y="251.93224"/>
     <use style="fill:#ff0000;stroke:#ff0000;" x="166.591169" xlink:href="#m650eeb612e" y="253.035057"/>
     <use style="fill:#ff0000;stroke:#ff0000;" x="173.216772" xlink:href="#m650eeb612e" y="253.975119"/>
     <use style="fill:#ff0000;stroke:#ff0000;" x="179.842375" xlink:href="#m650eeb612e" y="254.797436"/>
     <use style="fill:#ff0000;stroke:#ff0000;" x="186.467978" xlink:href="#m650eeb612e" y="255.570048"/>
     <use style="fill:#ff0000;stroke:#ff0000;" x="193.093581" xlink:href="#m650eeb612e" y="256.269576"/>
     <use style="fill:#ff0000;stroke:#ff0000;" x="199.719184" xlink:href="#m650eeb612e" y="256.766905"/>
     <use style="fill:#ff0000;stroke:#ff0000;" x="206.344787" xlink:href="#m650eeb612e" y="257.310416"/>
     <use style="fill:#ff0000;stroke:#ff0000;" x="212.97039" xlink:href="#m650eeb612e" y="257.727595"/>
     <use style="fill:#ff0000;stroke:#ff0000;" x="219.595993" xlink:href="#m650eeb612e" y="258.298614"/>
     <use style="fill:#ff0000;stroke:#ff0000;" x="226.221596" xlink:href="#m650eeb612e" y="258.740987"/>
     <use style="fill:#ff0000;stroke:#ff0000;" x="232.847199" xlink:href="#m650eeb612e" y="259.237908"/>
     <use style="fill:#ff0000;stroke:#ff0000;" x="239.472801" xlink:href="#m650eeb612e" y="259.732697"/>
     <use style="fill:#ff0000;stroke:#ff0000;" x="246.098404" xlink:href="#m650eeb612e" y="259.833558"/>
     <use style="fill:#ff0000;stroke:#ff0000;" x="252.724007" xlink:href="#m650eeb612e" y="260.57391"/>
     <use style="fill:#ff0000;stroke:#ff0000;" x="259.34961" xlink:href="#m650eeb612e" y="260.552991"/>
     <use style="fill:#ff0000;stroke:#ff0000;" x="265.975213" xlink:href="#m650eeb612e" y="261.059349"/>
     <use style="fill:#ff0000;stroke:#ff0000;" x="272.600816" xlink:href="#m650eeb612e" y="261.366873"/>
     <use style="fill:#ff0000;stroke:#ff0000;" x="279.226419" xlink:href="#m650eeb612e" y="261.818933"/>
     <use style="fill:#ff0000;stroke:#ff0000;" x="285.852022" xlink:href="#m650eeb612e" y="261.907216"/>
     <use style="fill:#ff0000;stroke:#ff0000;" x="292.477625" xlink:href="#m650eeb612e" y="262.218736"/>
     <use style="fill:#ff0000;stroke:#ff0000;" x="299.103228" xlink:href="#m650eeb612e" y="262.430624"/>
     <use style="fill:#ff0000;stroke:#ff0000;" x="305.728831" xlink:href="#m650eeb612e" y="262.780174"/>
     <use style="fill:#ff0000;stroke:#ff0000;" x="312.354434" xlink:href="#m650eeb612e" y="262.871293"/>
     <use style="fill:#ff0000;stroke:#ff0000;" x="318.980037" xlink:href="#m650eeb612e" y="262.950925"/>
     <use style="fill:#ff0000;stroke:#ff0000;" x="325.60564" xlink:href="#m650eeb612e" y="263.352622"/>
     <use style="fill:#ff0000;stroke:#ff0000;" x="332.231243" xlink:href="#m650eeb612e" y="263.278608"/>
     <use style="fill:#ff0000;stroke:#ff0000;" x="338.856846" xlink:href="#m650eeb612e" y="263.733586"/>
     <use style="fill:#ff0000;stroke:#ff0000;" x="345.482449" xlink:href="#m650eeb612e" y="264.01851"/>
     <use style="fill:#ff0000;stroke:#ff0000;" x="352.108052" xlink:href="#m650eeb612e" y="264.154686"/>
     <use style="fill:#ff0000;stroke:#ff0000;" x="358.733655" xlink:href="#m650eeb612e" y="263.851619"/>
     <use style="fill:#ff0000;stroke:#ff0000;" x="365.359258" xlink:href="#m650eeb612e" y="264.136251"/>
     <use style="fill:#ff0000;stroke:#ff0000;" x="371.984861" xlink:href="#m650eeb612e" y="261.52886"/>
     <use style="fill:#ff0000;stroke:#ff0000;" x="378.610464" xlink:href="#m650eeb612e" y="264.47173"/>
     <use style="fill:#ff0000;stroke:#ff0000;" x="385.236067" xlink:href="#m650eeb612e" y="264.646335"/>
     <use style="fill:#ff0000;stroke:#ff0000;" x="391.86167" xlink:href="#m650eeb612e" y="264.633309"/>
     <use style="fill:#ff0000;stroke:#ff0000;" x="398.487273" xlink:href="#m650eeb612e" y="264.874384"/>
    </g>
   </g>
   <g id="line2d_15">
    <path clip-path="url(#p36b45ef1fd)" d="M 73.832727 64.827937 
L 80.45833 164.248558 
L 87.083933 223.376942 
L 93.709536 202.701895 
L 100.335139 227.069864 
L 106.960742 233.642636 
L 113.586345 240.000117 
L 120.211948 242.964537 
L 126.837551 243.008623 
L 133.463154 241.636762 
L 140.088757 243.547211 
L 146.71436 253.648771 
L 153.339963 255.504158 
L 159.965566 256.42523 
L 166.591169 249.390879 
L 173.216772 259.649027 
L 179.842375 252.043891 
L 186.467978 253.056766 
L 193.093581 257.302189 
L 199.719184 258.406064 
L 206.344787 258.259003 
L 212.97039 255.59384 
L 219.595993 257.163064 
L 226.221596 258.847806 
L 232.847199 255.957175 
L 239.472801 260.138504 
L 246.098404 258.986168 
L 252.724007 250.660779 
L 259.34961 261.433568 
L 265.975213 250.23428 
L 272.600816 264.701094 
L 279.226419 260.837136 
L 285.852022 260.581951 
L 292.477625 258.849345 
L 299.103228 264.804923 
L 305.728831 266.892622 
L 312.354434 266.395897 
L 318.980037 263.513286 
L 325.60564 259.711605 
L 332.231243 258.978731 
L 338.856846 261.225362 
L 345.482449 262.32413 
L 352.108052 268.334267 
L 358.733655 265.007505 
L 365.359258 265.633497 
L 371.984861 262.71653 
L 378.610464 265.28874 
L 385.236067 264.325936 
L 391.86167 262.056019 
L 398.487273 264.56019 
" style="fill:none;stroke:#ff0000;stroke-linecap:square;stroke-width:1.5;"/>
   </g>
   <g id="line2d_16">
    <defs>
     <path d="M 0 3 
C 0.795609 3 1.55874 2.683901 2.12132 2.12132 
C 2.683901 1.55874 3 0.795609 3 0 
C 3 -0.795609 2.683901 -1.55874 2.12132 -2.12132 
C 1.55874 -2.683901 0.795609 -3 0 -3 
C -0.795609 -3 -1.55874 -2.683901 -2.12132 -2.12132 
C -2.683901 -1.55874 -3 -0.795609 -3 0 
C -3 0.795609 -2.683901 1.55874 -2.12132 2.12132 
C -1.55874 2.683901 -0.795609 3 0 3 
z
" id="m306a55970f" style="stroke:#0000ff;"/>
    </defs>
    <g clip-path="url(#p36b45ef1fd)">
     <use style="fill:#0000ff;stroke:#0000ff;" x="73.832727" xlink:href="#m306a55970f" y="263.453082"/>
     <use style="fill:#0000ff;stroke:#0000ff;" x="80.45833" xlink:href="#m306a55970f" y="285.885021"/>
     <use style="fill:#0000ff;stroke:#0000ff;" x="87.083933" xlink:href="#m306a55970f" y="289.622858"/>
     <use style="fill:#0000ff;stroke:#0000ff;" x="93.709536" xlink:href="#m306a55970f" y="291.373034"/>
     <use style="fill:#0000ff;stroke:#0000ff;" x="100.335139" xlink:href="#m306a55970f" y="292.416499"/>
     <use style="fill:#0000ff;stroke:#0000ff;" x="106.960742" xlink:href="#m306a55970f" y="293.074102"/>
     <use style="fill:#0000ff;stroke:#0000ff;" x="113.586345" xlink:href="#m306a55970f" y="293.524305"/>
     <use style="fill:#0000ff;stroke:#0000ff;" x="120.211948" xlink:href="#m306a55970f" y="293.872635"/>
     <use style="fill:#0000ff;stroke:#0000ff;" x="126.837551" xlink:href="#m306a55970f" y="294.103076"/>
     <use style="fill:#0000ff;stroke:#0000ff;" x="133.463154" xlink:href="#m306a55970f" y="294.303944"/>
     <use style="fill:#0000ff;stroke:#0000ff;" x="140.088757" xlink:href="#m306a55970f" y="294.460118"/>
     <use style="fill:#0000ff;stroke:#0000ff;" x="146.71436" xlink:href="#m306a55970f" y="294.565376"/>
     <use style="fill:#0000ff;stroke:#0000ff;" x="153.339963" xlink:href="#m306a55970f" y="294.668408"/>
     <use style="fill:#0000ff;stroke:#0000ff;" x="159.965566" xlink:href="#m306a55970f" y="294.720867"/>
     <use style="fill:#0000ff;stroke:#0000ff;" x="166.591169" xlink:href="#m306a55970f" y="294.7972"/>
     <use style="fill:#0000ff;stroke:#0000ff;" x="173.216772" xlink:href="#m306a55970f" y="294.832604"/>
     <use style="fill:#0000ff;stroke:#0000ff;" x="179.842375" xlink:href="#m306a55970f" y="294.874416"/>
     <use style="fill:#0000ff;stroke:#0000ff;" x="186.467978" xlink:href="#m306a55970f" y="294.912618"/>
     <use style="fill:#0000ff;stroke:#0000ff;" x="193.093581" xlink:href="#m306a55970f" y="294.935618"/>
     <use style="fill:#0000ff;stroke:#0000ff;" x="199.719184" xlink:href="#m306a55970f" y="294.954997"/>
     <use style="fill:#0000ff;stroke:#0000ff;" x="206.344787" xlink:href="#m306a55970f" y="294.984756"/>
     <use style="fill:#0000ff;stroke:#0000ff;" x="212.97039" xlink:href="#m306a55970f" y="295.009534"/>
     <use style="fill:#0000ff;stroke:#0000ff;" x="219.595993" xlink:href="#m306a55970f" y="295.028083"/>
     <use style="fill:#0000ff;stroke:#0000ff;" x="226.221596" xlink:href="#m306a55970f" y="295.045467"/>
     <use style="fill:#0000ff;stroke:#0000ff;" x="232.847199" xlink:href="#m306a55970f" y="295.062923"/>
     <use style="fill:#0000ff;stroke:#0000ff;" x="239.472801" xlink:href="#m306a55970f" y="295.087729"/>
     <use style="fill:#0000ff;stroke:#0000ff;" x="246.098404" xlink:href="#m306a55970f" y="295.091092"/>
     <use style="fill:#0000ff;stroke:#0000ff;" x="252.724007" xlink:href="#m306a55970f" y="295.130301"/>
     <use style="fill:#0000ff;stroke:#0000ff;" x="259.34961" xlink:href="#m306a55970f" y="295.125836"/>
     <use style="fill:#0000ff;stroke:#0000ff;" x="265.975213" xlink:href="#m306a55970f" y="295.145039"/>
     <use style="fill:#0000ff;stroke:#0000ff;" x="272.600816" xlink:href="#m306a55970f" y="295.16651"/>
     <use style="fill:#0000ff;stroke:#0000ff;" x="279.226419" xlink:href="#m306a55970f" y="295.160218"/>
     <use style="fill:#0000ff;stroke:#0000ff;" x="285.852022" xlink:href="#m306a55970f" y="295.16503"/>
     <use style="fill:#0000ff;stroke:#0000ff;" x="292.477625" xlink:href="#m306a55970f" y="295.182928"/>
     <use style="fill:#0000ff;stroke:#0000ff;" x="299.103228" xlink:href="#m306a55970f" y="295.182448"/>
     <use style="fill:#0000ff;stroke:#0000ff;" x="305.728831" xlink:href="#m306a55970f" y="295.183497"/>
     <use style="fill:#0000ff;stroke:#0000ff;" x="312.354434" xlink:href="#m306a55970f" y="295.185045"/>
     <use style="fill:#0000ff;stroke:#0000ff;" x="318.980037" xlink:href="#m306a55970f" y="295.186589"/>
     <use style="fill:#0000ff;stroke:#0000ff;" x="325.60564" xlink:href="#m306a55970f" y="295.209428"/>
     <use style="fill:#0000ff;stroke:#0000ff;" x="332.231243" xlink:href="#m306a55970f" y="295.217733"/>
     <use style="fill:#0000ff;stroke:#0000ff;" x="338.856846" xlink:href="#m306a55970f" y="295.238619"/>
     <use style="fill:#0000ff;stroke:#0000ff;" x="345.482449" xlink:href="#m306a55970f" y="295.245544"/>
     <use style="fill:#0000ff;stroke:#0000ff;" x="352.108052" xlink:href="#m306a55970f" y="295.244862"/>
     <use style="fill:#0000ff;stroke:#0000ff;" x="358.733655" xlink:href="#m306a55970f" y="295.208958"/>
     <use style="fill:#0000ff;stroke:#0000ff;" x="365.359258" xlink:href="#m306a55970f" y="295.233276"/>
     <use style="fill:#0000ff;stroke:#0000ff;" x="371.984861" xlink:href="#m306a55970f" y="295.082804"/>
     <use style="fill:#0000ff;stroke:#0000ff;" x="378.610464" xlink:href="#m306a55970f" y="295.248151"/>
     <use style="fill:#0000ff;stroke:#0000ff;" x="385.236067" xlink:href="#m306a55970f" y="295.272114"/>
     <use style="fill:#0000ff;stroke:#0000ff;" x="391.86167" xlink:href="#m306a55970f" y="295.25321"/>
     <use style="fill:#0000ff;stroke:#0000ff;" x="398.487273" xlink:href="#m306a55970f" y="295.265812"/>
    </g>
   </g>
   <g id="line2d_17">
    <path clip-path="url(#p36b45ef1fd)" d="M 73.832727 274.460769 
L 80.45833 288.312401 
L 87.083933 293.022253 
L 93.709536 291.395453 
L 100.335139 293.543222 
L 106.960742 293.869985 
L 113.586345 294.135392 
L 120.211948 294.317081 
L 126.837551 294.385571 
L 133.463154 294.224262 
L 140.088757 294.21084 
L 146.71436 294.768128 
L 153.339963 294.939606 
L 159.965566 294.944551 
L 166.591169 294.639155 
L 173.216772 295.085836 
L 179.842375 294.589236 
L 186.467978 294.835806 
L 193.093581 294.912237 
L 199.719184 295.093531 
L 206.344787 295.008775 
L 212.97039 294.752457 
L 219.595993 295.001808 
L 226.221596 295.141501 
L 232.847199 294.781991 
L 239.472801 295.038879 
L 246.098404 294.982248 
L 252.724007 294.752386 
L 259.34961 295.061142 
L 265.975213 294.80261 
L 272.600816 295.244148 
L 279.226419 295.042304 
L 285.852022 295.06425 
L 292.477625 295.001511 
L 299.103228 295.043077 
L 305.728831 295.309971 
L 312.354434 295.30482 
L 318.980037 295.251411 
L 325.60564 294.991259 
L 332.231243 295.012302 
L 338.856846 295.049987 
L 345.482449 295.048779 
L 352.108052 295.488 
L 358.733655 295.229442 
L 365.359258 295.361972 
L 371.984861 295.125083 
L 378.610464 295.295134 
L 385.236067 295.277276 
L 391.86167 295.18343 
L 398.487273 295.318138 
" style="fill:none;stroke:#0000ff;stroke-linecap:square;stroke-width:1.5;"/>
   </g>
   <g id="patch_3">
    <path d="M 57.6 307.584 
L 57.6 41.472 
" style="fill:none;stroke:#000000;stroke-linecap:square;stroke-linejoin:miter;stroke-width:0.8;"/>
   </g>
   <g id="patch_4">
    <path d="M 414.72 307.584 
L 414.72 41.472 
" style="fill:none;stroke:#000000;stroke-linecap:square;stroke-linejoin:miter;stroke-width:0.8;"/>
   </g>
   <g id="patch_5">
    <path d="M 57.6 307.584 
L 414.72 307.584 
" style="fill:none;stroke:#000000;stroke-linecap:square;stroke-linejoin:miter;stroke-width:0.8;"/>
   </g>
   <g id="patch_6">
    <path d="M 57.6 41.472 
L 414.72 41.472 
" style="fill:none;stroke:#000000;stroke-linecap:square;stroke-linejoin:miter;stroke-width:0.8;"/>
   </g>
  </g>
 </g>
 <defs>
  <clipPath id="p36b45ef1fd">
   <rect height="266.112" width="357.12" x="57.6" y="41.472"/>
  </clipPath>
 </defs>
</svg>
